<svg xmlns="http://www.w3.org/2000/svg" xmlns:xlink="http://www.w3.org/1999/xlink" width="226" zoomAndPan="magnify" viewBox="0 0 169.5 196.499993" height="262" preserveAspectRatio="xMidYMid meet" version="1.2"><defs><clipPath id="9bbe8bd3f6"><path d="M 134 40 L 143.988281 40 L 143.988281 48 L 134 48 Z M 134 40 "/></clipPath><clipPath id="ca1402619b"><path d="M 134 76 L 143.988281 76 L 143.988281 84 L 134 84 Z M 134 76 "/></clipPath><clipPath id="620e1289f3"><path d="M 81 0.0390625 L 88 0.0390625 L 88 9 L 81 9 Z M 81 0.0390625 "/></clipPath><clipPath id="0cd59f13aa"><path d="M 81 115 L 88 115 L 88 124.171875 L 81 124.171875 Z M 81 115 "/></clipPath></defs><g id="62051a6d95"><g clip-rule="nonzero" clip-path="url(#9bbe8bd3f6)"><path style=" stroke:none;fill-rule:nonzero;fill:#000000;fill-opacity:1;" d="M 138.085938 41.179688 C 135.808594 41.917969 134.390625 43.902344 134.960938 45.621094 C 135.519531 47.339844 137.832031 48.128906 140.109375 47.382812 C 142.394531 46.640625 143.789062 44.640625 143.246094 42.921875 C 142.683594 41.222656 140.375 40.414062 138.085938 41.179688 "/></g><g clip-rule="nonzero" clip-path="url(#ca1402619b)"><path style=" stroke:none;fill-rule:nonzero;fill:#000000;fill-opacity:1;" d="M 140.109375 76.832031 C 137.832031 76.082031 135.519531 76.875 134.960938 78.59375 C 134.390625 80.3125 135.808594 82.320312 138.085938 83.058594 C 140.375 83.800781 142.683594 83.015625 143.226562 81.289062 C 143.789062 79.570312 142.394531 77.574219 140.109375 76.832031 "/></g><path style=" stroke:none;fill-rule:nonzero;fill:#000000;fill-opacity:1;" d="M 120.710938 11.890625 C 119.257812 10.84375 116.929688 11.558594 115.511719 13.496094 C 114.101562 15.4375 114.140625 17.878906 115.59375 18.941406 C 117.058594 20.003906 119.386719 19.289062 120.796875 17.335938 C 122.214844 15.394531 122.164062 12.953125 120.710938 11.890625 "/><path style=" stroke:none;fill-rule:nonzero;fill:#000000;fill-opacity:1;" d="M 120.710938 112.324219 C 122.164062 111.261719 122.214844 108.820312 120.796875 106.878906 C 119.386719 104.9375 117.058594 104.226562 115.59375 105.269531 C 114.140625 106.335938 114.101562 108.777344 115.511719 110.714844 C 116.929688 112.671875 119.257812 113.371094 120.710938 112.324219 "/><path style=" stroke:none;fill-rule:nonzero;fill:#000000;fill-opacity:1;" d="M 131.019531 42.328125 C 128.453125 40.109375 124.933594 38.039062 123.011719 36.976562 C 122.648438 36.78125 122.214844 36.714844 121.824219 36.839844 C 121.519531 36.933594 121.28125 37.105469 121.074219 37.34375 C 121.015625 37.429688 120.949219 37.519531 120.90625 37.605469 L 120.820312 37.785156 C 120.472656 38.457031 120.683594 39.28125 121.296875 39.714844 L 126.886719 43.664062 L 120.167969 45.859375 L 118.101562 46.539062 L 111.101562 48.800781 C 110.726562 48.929688 110.402344 49.191406 110.226562 49.558594 C 110.03125 49.90625 110.011719 50.351562 110.113281 50.714844 L 110.183594 50.9375 C 110.445312 51.71875 111.3125 52.179688 112.121094 51.914062 L 119.105469 49.625 L 119.777344 51.695312 L 112.773438 53.984375 C 111.984375 54.246094 111.550781 55.097656 111.8125 55.898438 L 111.882812 56.117188 C 111.984375 56.484375 112.273438 56.816406 112.621094 56.984375 C 112.988281 57.179688 113.402344 57.207031 113.792969 57.097656 L 120.796875 54.808594 L 122.859375 54.136719 L 129.589844 51.957031 L 127.363281 58.421875 C 127.125 59.144531 127.457031 59.929688 128.128906 60.277344 L 128.296875 60.363281 C 128.519531 60.472656 128.757812 60.542969 128.976562 60.542969 C 129.148438 60.542969 129.328125 60.5 129.480469 60.449219 C 129.871094 60.320312 130.195312 60.039062 130.371094 59.648438 C 131.308594 57.664062 132.9375 53.898438 133.695312 50.605469 L 133.71875 50.605469 L 133.71875 50.519531 C 134.128906 48.734375 134.28125 47.082031 133.941406 45.96875 L 133.941406 45.953125 C 133.566406 44.8125 132.453125 43.570312 131.042969 42.351562 L 131.042969 42.328125 L 131.019531 42.328125 "/><path style=" stroke:none;fill-rule:nonzero;fill:#000000;fill-opacity:1;" d="M 123.011719 87.234375 C 124.933594 86.171875 128.453125 84.105469 131.019531 81.902344 L 131.085938 81.835938 C 132.453125 80.644531 133.566406 79.402344 133.914062 78.261719 C 134.066406 77.828125 134.128906 77.28125 134.128906 76.695312 C 134.128906 75.804688 133.984375 74.738281 133.71875 73.652344 L 133.71875 73.609375 L 133.695312 73.609375 C 132.9375 70.316406 131.308594 66.574219 130.371094 64.566406 C 130.195312 64.199219 129.871094 63.917969 129.480469 63.765625 C 129.328125 63.714844 129.175781 63.699219 128.996094 63.699219 C 128.757812 63.699219 128.519531 63.738281 128.296875 63.851562 L 128.128906 63.9375 C 127.457031 64.285156 127.125 65.066406 127.363281 65.789062 L 129.589844 72.273438 L 122.859375 70.078125 L 120.796875 69.40625 L 113.792969 67.132812 C 112.988281 66.878906 112.136719 67.3125 111.882812 68.121094 L 111.8125 68.316406 C 111.550781 69.117188 111.984375 69.96875 112.792969 70.230469 L 119.777344 72.519531 L 119.105469 74.585938 L 112.121094 72.324219 C 111.3125 72.058594 110.445312 72.492188 110.199219 73.277344 L 110.113281 73.496094 C 110.011719 73.890625 110.03125 74.304688 110.226562 74.65625 C 110.402344 75.019531 110.726562 75.285156 111.101562 75.410156 L 118.101562 77.699219 L 120.167969 78.371094 L 126.886719 80.550781 L 121.296875 84.496094 C 120.683594 84.929688 120.472656 85.757812 120.820312 86.429688 L 120.90625 86.605469 C 120.949219 86.691406 121.015625 86.785156 121.074219 86.871094 C 121.28125 87.109375 121.519531 87.277344 121.824219 87.371094 C 122.214844 87.5 122.648438 87.457031 123.011719 87.234375 "/><path style=" stroke:none;fill-rule:nonzero;fill:#000000;fill-opacity:1;" d="M 99.570312 103.289062 L 99.527344 103.484375 C 99.457031 103.902344 99.570312 104.308594 99.824219 104.640625 C 100.070312 104.964844 100.4375 105.1875 100.851562 105.246094 C 103.027344 105.507812 107.113281 105.902344 110.464844 105.621094 L 110.488281 105.636719 L 110.574219 105.621094 C 112.375 105.441406 113.988281 105.09375 114.964844 104.394531 C 115.925781 103.679688 116.777344 102.242188 117.488281 100.542969 L 117.515625 100.523438 L 117.515625 100.5 C 118.816406 97.386719 119.707031 93.378906 120.125 91.226562 C 120.210938 90.808594 120.125 90.390625 119.886719 90.050781 C 119.648438 89.71875 119.273438 89.480469 118.859375 89.414062 L 118.664062 89.398438 C 118.578125 89.371094 118.492188 89.371094 118.40625 89.371094 C 117.769531 89.371094 117.183594 89.804688 116.972656 90.445312 L 114.964844 96.992188 L 110.8125 91.269531 L 109.527344 89.507812 L 105.203125 83.535156 C 104.964844 83.210938 104.617188 82.992188 104.199219 82.921875 C 103.808594 82.863281 103.394531 82.972656 103.070312 83.210938 L 102.890625 83.339844 C 102.21875 83.816406 102.066406 84.777344 102.570312 85.449219 L 106.894531 91.421875 L 105.136719 92.707031 L 100.808594 86.734375 C 100.308594 86.0625 99.347656 85.910156 98.675781 86.410156 L 98.5 86.523438 C 98.175781 86.761719 97.953125 87.125 97.894531 87.515625 C 97.828125 87.933594 97.9375 88.324219 98.148438 88.65625 L 102.484375 94.621094 L 103.765625 96.382812 L 107.921875 102.113281 L 101.089844 102.003906 C 100.324219 101.980469 99.679688 102.546875 99.570312 103.289062 "/><path style=" stroke:none;fill-rule:nonzero;fill:#000000;fill-opacity:1;" d="M 102.484375 29.59375 L 98.175781 35.554688 C 97.675781 36.238281 97.828125 37.191406 98.5 37.691406 L 98.675781 37.800781 C 99 38.039062 99.417969 38.152344 99.808594 38.082031 C 100.199219 38.023438 100.5625 37.800781 100.808594 37.480469 L 105.136719 31.53125 L 106.878906 32.792969 L 102.570312 38.761719 C 102.066406 39.433594 102.21875 40.398438 102.890625 40.898438 L 103.070312 41 C 103.394531 41.238281 103.808594 41.347656 104.199219 41.289062 C 104.617188 41.222656 104.964844 41 105.203125 40.675781 L 109.527344 34.707031 L 110.8125 32.96875 L 114.949219 27.261719 L 116.972656 33.769531 C 117.167969 34.40625 117.753906 34.839844 118.40625 34.839844 C 118.492188 34.839844 118.578125 34.839844 118.664062 34.816406 L 118.859375 34.800781 C 119.257812 34.730469 119.621094 34.519531 119.859375 34.160156 C 120.097656 33.820312 120.191406 33.402344 120.125 33.011719 C 119.691406 30.835938 118.816406 26.84375 117.488281 23.730469 L 117.515625 23.714844 L 117.472656 23.648438 C 116.75 21.945312 115.902344 20.53125 114.949219 19.835938 C 113.988281 19.136719 112.359375 18.773438 110.503906 18.617188 L 110.464844 18.617188 C 107.113281 18.328125 103.027344 18.730469 100.851562 18.984375 C 100.546875 19.027344 100.265625 19.164062 100.019531 19.359375 C 99.960938 19.417969 99.890625 19.488281 99.824219 19.570312 C 99.570312 19.902344 99.457031 20.335938 99.527344 20.730469 L 99.570312 20.949219 C 99.679688 21.691406 100.324219 22.234375 101.089844 22.234375 L 107.921875 22.125 L 103.765625 27.847656 L 102.484375 29.59375 "/><path style=" stroke:none;fill-rule:nonzero;fill:#000000;fill-opacity:1;" d="M 95.625 63.738281 L 85.90625 63.738281 L 85.90625 73.539062 L 93.988281 73.539062 C 94.9375 70.546875 95.5 67.21875 95.625 63.738281 "/><path style=" stroke:none;fill-rule:nonzero;fill:#000000;fill-opacity:1;" d="M 85.90625 60.472656 L 95.625 60.472656 C 95.492188 57.003906 94.9375 53.675781 93.988281 50.671875 L 85.90625 50.671875 L 85.90625 60.472656 "/><g clip-rule="nonzero" clip-path="url(#620e1289f3)"><path style=" stroke:none;fill-rule:nonzero;fill:#000000;fill-opacity:1;" d="M 87.539062 4.394531 C 87.539062 1.996094 86.085938 0.0390625 84.273438 0.0390625 C 82.464844 0.0390625 81.011719 1.996094 81.011719 4.394531 C 81.011719 6.792969 82.464844 8.75 84.273438 8.75 C 86.085938 8.75 87.539062 6.792969 87.539062 4.394531 "/></g><g clip-rule="nonzero" clip-path="url(#0cd59f13aa)"><path style=" stroke:none;fill-rule:nonzero;fill:#000000;fill-opacity:1;" d="M 81.011719 119.816406 C 81.011719 122.21875 82.464844 124.171875 84.273438 124.171875 C 86.085938 124.171875 87.539062 122.21875 87.539062 119.816406 C 87.539062 117.417969 86.085938 115.460938 84.273438 115.460938 C 82.464844 115.460938 81.011719 117.417969 81.011719 119.816406 "/></g><path style=" stroke:none;fill-rule:nonzero;fill:#000000;fill-opacity:1;" d="M 85.90625 40.039062 L 85.90625 47.40625 L 92.78125 47.40625 C 90.996094 43.449219 88.539062 40.832031 85.90625 40.039062 "/><path style=" stroke:none;fill-rule:nonzero;fill:#000000;fill-opacity:1;" d="M 85.90625 84.171875 C 88.53125 83.390625 90.988281 80.761719 92.78125 76.808594 L 85.90625 76.808594 L 85.90625 84.171875 "/><path style=" stroke:none;fill-rule:nonzero;fill:#000000;fill-opacity:1;" d="M 82.644531 50.671875 L 74.5625 50.671875 C 73.609375 53.675781 73.058594 57.011719 72.921875 60.472656 L 82.644531 60.472656 L 82.644531 50.671875 "/><path style=" stroke:none;fill-rule:nonzero;fill:#000000;fill-opacity:1;" d="M 82.644531 40.039062 C 80.015625 40.820312 77.5625 43.441406 75.769531 47.40625 L 82.644531 47.40625 L 82.644531 40.039062 "/><path style=" stroke:none;fill-rule:nonzero;fill:#000000;fill-opacity:1;" d="M 79.921875 11.472656 L 79.921875 11.5 C 77.027344 13.234375 73.96875 15.957031 72.351562 17.460938 C 72.046875 17.742188 71.875 18.132812 71.875 18.550781 C 71.875 18.855469 71.960938 19.164062 72.132812 19.417969 C 72.183594 19.511719 72.269531 19.597656 72.335938 19.664062 L 72.394531 19.726562 C 72.964844 20.292969 73.875 20.363281 74.527344 19.878906 L 79.921875 15.828125 L 79.921875 32.339844 C 79.921875 33.25 80.644531 33.972656 81.554688 33.972656 C 82.449219 33.972656 83.1875 33.25 83.1875 32.339844 L 83.1875 25.085938 L 85.363281 25.085938 L 85.363281 32.339844 C 85.363281 33.25 86.085938 33.972656 86.992188 33.972656 C 87.886719 33.972656 88.625 33.25 88.625 32.339844 L 88.625 15.828125 L 94.089844 19.945312 C 94.691406 20.378906 95.542969 20.335938 96.085938 19.792969 L 96.214844 19.664062 C 96.28125 19.597656 96.367188 19.511719 96.417969 19.417969 C 96.5 19.289062 96.5625 19.164062 96.605469 19.011719 C 96.65625 18.855469 96.671875 18.703125 96.671875 18.550781 C 96.65625 18.132812 96.476562 17.742188 96.171875 17.460938 C 94.566406 15.957031 91.496094 13.234375 88.625 11.5 L 88.625 11.472656 L 88.582031 11.472656 C 86.992188 10.511719 85.472656 9.839844 84.273438 9.839844 C 83.078125 9.839844 81.582031 10.496094 80.007812 11.449219 L 79.921875 11.472656 "/><path style=" stroke:none;fill-rule:nonzero;fill:#000000;fill-opacity:1;" d="M 88.597656 112.738281 L 88.625 112.738281 L 88.625 112.714844 C 91.496094 110.980469 94.566406 108.257812 96.171875 106.75 C 96.476562 106.46875 96.65625 106.078125 96.65625 105.664062 C 96.671875 105.339844 96.5625 105.050781 96.390625 104.769531 C 96.347656 104.699219 96.28125 104.617188 96.214844 104.546875 L 96.058594 104.421875 C 95.542969 103.875 94.691406 103.832031 94.089844 104.265625 L 88.625 108.382812 L 88.625 91.769531 C 88.625 90.917969 87.929688 90.238281 87.105469 90.238281 L 86.882812 90.238281 C 86.773438 90.238281 86.671875 90.238281 86.578125 90.265625 C 85.878906 90.417969 85.363281 91.03125 85.363281 91.769531 L 85.363281 99.128906 L 83.1875 99.128906 L 83.1875 91.769531 C 83.1875 90.917969 82.488281 90.238281 81.664062 90.238281 L 81.445312 90.238281 C 80.59375 90.238281 79.921875 90.917969 79.921875 91.769531 L 79.921875 108.382812 L 74.460938 104.265625 C 73.855469 103.832031 73.007812 103.875 72.464844 104.421875 L 72.335938 104.546875 C 72.269531 104.617188 72.183594 104.699219 72.132812 104.792969 C 71.960938 105.050781 71.875 105.355469 71.875 105.664062 C 71.894531 106.078125 72.070312 106.46875 72.351562 106.75 C 73.96875 108.257812 77.027344 110.980469 79.921875 112.714844 L 79.921875 112.738281 L 80.007812 112.765625 C 81.582031 113.703125 83.078125 114.375 84.273438 114.375 C 85.472656 114.375 86.992188 113.703125 88.582031 112.738281 L 88.597656 112.738281 "/><path style=" stroke:none;fill-rule:nonzero;fill:#000000;fill-opacity:1;" d="M 82.644531 84.171875 L 82.644531 76.808594 L 75.769531 76.808594 C 77.5625 80.753906 80.007812 83.375 82.644531 84.171875 "/><path style=" stroke:none;fill-rule:nonzero;fill:#000000;fill-opacity:1;" d="M 82.644531 63.738281 L 72.921875 63.738281 C 73.050781 67.21875 73.609375 70.554688 74.5625 73.539062 L 82.644531 73.539062 L 82.644531 63.738281 "/><path style=" stroke:none;fill-rule:nonzero;fill:#000000;fill-opacity:1;" d="M 61.382812 63.738281 L 58.816406 63.738281 C 58.800781 63.738281 58.789062 63.730469 58.773438 63.730469 C 58.996094 67.234375 59.921875 70.554688 61.417969 73.539062 L 71.15625 73.539062 C 70.289062 70.503906 69.777344 67.183594 69.660156 63.738281 L 61.382812 63.738281 "/><path style=" stroke:none;fill-rule:nonzero;fill:#000000;fill-opacity:1;" d="M 64.375 50.671875 L 61.417969 50.671875 C 59.921875 53.660156 58.996094 56.976562 58.773438 60.480469 C 58.789062 60.480469 58.800781 60.472656 58.816406 60.472656 L 69.660156 60.472656 C 69.777344 57.046875 70.289062 53.726562 71.15625 50.671875 L 64.375 50.671875 "/><path style=" stroke:none;fill-rule:nonzero;fill:#000000;fill-opacity:1;" d="M 47.839844 11.890625 C 46.386719 12.953125 46.335938 15.394531 47.753906 17.335938 C 49.164062 19.289062 51.492188 20.003906 52.953125 18.941406 C 54.40625 17.878906 54.449219 15.4375 53.039062 13.496094 C 51.621094 11.558594 49.292969 10.84375 47.839844 11.890625 "/><path style=" stroke:none;fill-rule:nonzero;fill:#000000;fill-opacity:1;" d="M 47.839844 112.324219 C 49.292969 113.371094 51.621094 112.671875 53.039062 110.714844 C 54.449219 108.777344 54.40625 106.335938 52.953125 105.269531 C 51.492188 104.207031 49.164062 104.9375 47.753906 106.878906 C 46.335938 108.820312 46.386719 111.261719 47.839844 112.324219 "/><path style=" stroke:none;fill-rule:nonzero;fill:#000000;fill-opacity:1;" d="M 66.066406 94.621094 L 70.3125 88.742188 C 70.566406 88.394531 70.679688 87.960938 70.609375 87.515625 C 70.550781 87.109375 70.3125 86.71875 69.957031 86.453125 C 69.226562 85.933594 68.199219 86.105469 67.679688 86.828125 L 63.414062 92.707031 L 61.65625 91.421875 L 65.910156 85.542969 C 66.457031 84.820312 66.285156 83.800781 65.5625 83.273438 C 65.214844 83.015625 64.765625 82.90625 64.347656 82.972656 C 63.914062 83.035156 63.539062 83.273438 63.285156 83.621094 L 59.019531 89.507812 L 57.738281 91.269531 L 53.582031 96.992188 L 51.578125 90.445312 C 51.339844 89.71875 50.625 89.261719 49.886719 89.398438 L 49.691406 89.414062 C 49.382812 89.457031 49.105469 89.609375 48.859375 89.832031 C 48.796875 89.898438 48.730469 89.957031 48.664062 90.050781 C 48.425781 90.390625 48.339844 90.808594 48.425781 91.226562 C 48.839844 93.378906 49.734375 97.386719 51.03125 100.5 L 51.03125 100.523438 L 51.058594 100.542969 C 51.773438 102.242188 52.621094 103.679688 53.582031 104.394531 C 54.542969 105.09375 56.175781 105.441406 57.976562 105.621094 L 58.058594 105.636719 L 58.085938 105.621094 C 61.433594 105.902344 65.519531 105.507812 67.695312 105.246094 C 68.113281 105.1875 68.476562 104.964844 68.722656 104.640625 C 68.828125 104.503906 68.917969 104.351562 68.960938 104.207031 C 69.046875 103.988281 69.074219 103.722656 69.023438 103.484375 L 69.003906 103.375 C 68.867188 102.574219 68.179688 101.980469 67.375 102.003906 L 60.625 102.113281 L 63.5 98.152344 L 66.066406 94.621094 "/><path style=" stroke:none;fill-rule:nonzero;fill:#000000;fill-opacity:1;" d="M 69.003906 20.925781 L 69.023438 20.730469 C 69.074219 20.492188 69.046875 20.226562 68.960938 20.003906 C 68.917969 19.859375 68.828125 19.707031 68.742188 19.570312 C 68.476562 19.25 68.113281 19.027344 67.695312 18.984375 C 65.519531 18.703125 61.460938 18.3125 58.085938 18.59375 L 58.042969 18.59375 C 56.191406 18.746094 54.558594 19.121094 53.597656 19.820312 C 52.621094 20.507812 51.796875 21.945312 51.074219 23.628906 L 51.03125 23.6875 L 51.03125 23.714844 C 49.734375 26.828125 48.839844 30.835938 48.425781 32.988281 C 48.339844 33.402344 48.425781 33.820312 48.664062 34.160156 C 48.730469 34.253906 48.796875 34.3125 48.859375 34.382812 C 49.105469 34.605469 49.382812 34.757812 49.691406 34.800781 L 49.777344 34.800781 C 50.582031 34.925781 51.363281 34.449219 51.601562 33.683594 L 53.582031 27.238281 L 56.453125 31.183594 L 59.019531 34.707031 L 63.285156 40.59375 C 63.539062 40.941406 63.914062 41.179688 64.347656 41.238281 C 64.765625 41.308594 65.214844 41.222656 65.5625 40.957031 C 66.285156 40.4375 66.457031 39.417969 65.910156 38.667969 L 61.65625 32.792969 L 63.414062 31.53125 L 67.679688 37.386719 C 68.222656 38.125 69.226562 38.277344 69.957031 37.757812 C 70.703125 37.242188 70.855469 36.210938 70.332031 35.472656 L 66.066406 29.59375 L 64.78125 27.832031 L 60.625 22.097656 L 67.457031 22.207031 C 68.222656 22.234375 68.867188 21.691406 69.003906 20.925781 "/><path style=" stroke:none;fill-rule:nonzero;fill:#000000;fill-opacity:1;" d="M 37.460938 81.835938 L 37.53125 81.902344 L 37.53125 81.886719 C 40.097656 84.105469 43.613281 86.171875 45.535156 87.234375 C 45.773438 87.371094 46.011719 87.433594 46.273438 87.433594 C 46.425781 87.433594 46.570312 87.414062 46.726562 87.371094 C 47.117188 87.234375 47.445312 86.972656 47.644531 86.605469 L 47.683594 86.523438 C 48.058594 85.78125 47.839844 84.90625 47.167969 84.429688 L 41.660156 80.550781 L 46.316406 79.027344 L 50.445312 77.699219 L 57.347656 75.453125 C 57.753906 75.300781 58.101562 75.019531 58.296875 74.628906 C 58.492188 74.261719 58.519531 73.804688 58.390625 73.386719 C 58.101562 72.535156 57.195312 72.058594 56.34375 72.339844 L 49.445312 74.585938 L 48.773438 72.519531 L 55.671875 70.273438 C 56.515625 69.992188 57 69.074219 56.71875 68.207031 C 56.582031 67.789062 56.277344 67.464844 55.910156 67.269531 C 55.519531 67.074219 55.0625 67.03125 54.644531 67.160156 L 47.753906 69.40625 L 45.6875 70.078125 L 38.957031 72.273438 L 41.183594 65.789062 C 41.421875 65.066406 41.089844 64.285156 40.417969 63.9375 L 40.25 63.851562 C 40.027344 63.738281 39.792969 63.671875 39.570312 63.671875 C 39.398438 63.671875 39.222656 63.714844 39.070312 63.765625 C 38.679688 63.894531 38.355469 64.199219 38.175781 64.566406 C 37.242188 66.546875 35.609375 70.316406 34.855469 73.609375 L 34.828125 73.609375 L 34.828125 73.652344 C 34.421875 75.453125 34.242188 77.113281 34.609375 78.261719 C 34.980469 79.402344 36.09375 80.617188 37.460938 81.835938 "/><path style=" stroke:none;fill-rule:nonzero;fill:#000000;fill-opacity:1;" d="M 46.292969 36.78125 L 46.273438 36.78125 C 46.027344 36.78125 45.773438 36.839844 45.535156 36.976562 C 43.613281 38.039062 40.070312 40.132812 37.53125 42.328125 L 37.503906 42.328125 L 37.503906 42.351562 L 37.480469 42.378906 C 36.09375 43.570312 34.980469 44.8125 34.609375 45.96875 C 34.464844 46.402344 34.394531 46.929688 34.394531 47.515625 C 34.394531 48.410156 34.546875 49.429688 34.8125 50.519531 L 34.828125 50.605469 L 34.828125 50.628906 C 35.609375 53.898438 37.242188 57.664062 38.175781 59.664062 C 38.355469 60.039062 38.660156 60.320312 39.050781 60.449219 C 39.222656 60.515625 39.375 60.542969 39.554688 60.542969 C 39.792969 60.542969 40.027344 60.5 40.25 60.386719 L 40.335938 60.320312 C 41.046875 59.953125 41.398438 59.121094 41.132812 58.339844 L 38.957031 51.957031 L 43.613281 53.480469 L 47.753906 54.808594 L 54.644531 57.054688 C 55.0625 57.207031 55.519531 57.164062 55.886719 56.96875 C 56.277344 56.773438 56.582031 56.425781 56.71875 56.007812 C 56.761719 55.855469 56.777344 55.683594 56.777344 55.53125 C 56.777344 54.832031 56.34375 54.203125 55.648438 53.964844 L 48.746094 51.71875 L 49.425781 49.652344 L 56.316406 51.890625 C 57.195312 52.152344 58.101562 51.695312 58.390625 50.828125 C 58.519531 50.410156 58.476562 49.976562 58.28125 49.585938 C 58.085938 49.21875 57.753906 48.914062 57.347656 48.777344 L 50.445312 46.539062 L 48.382812 45.859375 L 41.636719 43.679688 L 47.226562 39.742188 C 47.863281 39.308594 48.058594 38.472656 47.726562 37.800781 L 47.617188 37.605469 C 47.445312 37.257812 47.117188 36.976562 46.707031 36.839844 C 46.570312 36.796875 46.445312 36.78125 46.292969 36.78125 "/><path style=" stroke:none;fill-rule:nonzero;fill:#000000;fill-opacity:1;" d="M 30.460938 83.058594 C 32.738281 82.292969 34.15625 80.3125 33.589844 78.59375 C 33.027344 76.875 30.714844 76.082031 28.4375 76.832031 C 26.152344 77.574219 24.757812 79.570312 25.304688 81.289062 C 25.863281 82.992188 28.175781 83.800781 30.460938 83.058594 "/><path style=" stroke:none;fill-rule:nonzero;fill:#000000;fill-opacity:1;" d="M 28.4375 47.382812 C 30.714844 48.128906 33.027344 47.339844 33.589844 45.621094 C 34.15625 43.902344 32.738281 41.917969 30.460938 41.179688 C 28.175781 40.414062 25.863281 41.222656 25.304688 42.921875 C 24.757812 44.640625 26.152344 46.640625 28.4375 47.382812 "/><path style=" stroke:none;fill-rule:nonzero;fill:#000000;fill-opacity:1;" d="M 108.144531 63.738281 L 98.890625 63.738281 C 98.769531 67.175781 98.269531 70.496094 97.394531 73.539062 L 107.132812 73.539062 C 108.628906 70.554688 109.554688 67.234375 109.773438 63.730469 C 109.757812 63.730469 109.75 63.738281 109.730469 63.738281 L 108.144531 63.738281 "/><path style=" stroke:none;fill-rule:nonzero;fill:#000000;fill-opacity:1;" d="M 107.132812 50.671875 L 97.394531 50.671875 C 98.261719 53.71875 98.769531 57.046875 98.890625 60.472656 L 109.730469 60.472656 C 109.75 60.472656 109.757812 60.480469 109.773438 60.480469 C 109.554688 56.976562 108.628906 53.660156 107.132812 50.671875 "/><path style=" stroke:none;fill-rule:nonzero;fill:#000000;fill-opacity:1;" d="M 63.363281 47.40625 L 72.257812 47.40625 C 73.347656 44.648438 74.742188 42.328125 76.335938 40.550781 C 76.839844 39.996094 77.359375 39.496094 77.894531 39.050781 C 79.601562 37.625 81.480469 36.738281 83.433594 36.550781 C 75.140625 36.824219 67.839844 41.035156 63.363281 47.40625 "/><path style=" stroke:none;fill-rule:nonzero;fill:#000000;fill-opacity:1;" d="M 83.441406 36.542969 C 83.441406 36.542969 83.441406 36.550781 83.433594 36.550781 C 83.441406 36.550781 83.441406 36.550781 83.449219 36.542969 C 83.441406 36.550781 83.441406 36.542969 83.441406 36.542969 "/><path style=" stroke:none;fill-rule:nonzero;fill:#000000;fill-opacity:1;" d="M 105.1875 76.808594 L 96.296875 76.808594 C 95.203125 79.5625 93.808594 81.886719 92.210938 83.664062 C 91.71875 84.207031 91.207031 84.699219 90.671875 85.152344 C 88.957031 86.582031 87.078125 87.472656 85.117188 87.660156 C 93.410156 87.390625 100.707031 83.179688 105.1875 76.808594 "/><path style=" stroke:none;fill-rule:nonzero;fill:#000000;fill-opacity:1;" d="M 85.105469 87.671875 C 85.105469 87.671875 85.105469 87.660156 85.117188 87.660156 C 85.097656 87.660156 85.089844 87.671875 85.082031 87.671875 C 85.089844 87.671875 85.097656 87.671875 85.105469 87.671875 "/><path style=" stroke:none;fill-rule:nonzero;fill:#000000;fill-opacity:1;" d="M 83.441406 87.671875 C 83.449219 87.671875 83.457031 87.671875 83.46875 87.671875 C 83.457031 87.671875 83.449219 87.660156 83.433594 87.660156 C 83.433594 87.660156 83.441406 87.671875 83.441406 87.671875 "/><path style=" stroke:none;fill-rule:nonzero;fill:#000000;fill-opacity:1;" d="M 92.226562 40.558594 C 93.824219 42.335938 95.210938 44.648438 96.296875 47.40625 L 105.1875 47.40625 C 100.726562 41.058594 93.460938 36.859375 85.21875 36.550781 C 87.15625 36.765625 89.007812 37.65625 90.699219 39.078125 C 91.226562 39.519531 91.734375 40.015625 92.226562 40.558594 "/><path style=" stroke:none;fill-rule:nonzero;fill:#000000;fill-opacity:1;" d="M 76.355469 83.664062 C 74.742188 81.886719 73.347656 79.5625 72.25 76.808594 L 63.363281 76.808594 C 67.839844 83.179688 75.140625 87.390625 83.433594 87.660156 C 81.488281 87.449219 79.636719 86.574219 77.953125 85.195312 C 77.390625 84.742188 76.863281 84.234375 76.355469 83.664062 "/><g style="fill:#000000;fill-opacity:1;"><g transform="translate(28.021314, 144.087524)"><path style="stroke:none" d="M 7 -2.21875 L 2.65625 -2.21875 L 1.84375 0 L 0.46875 0 L 4.078125 -9.921875 L 5.59375 -9.921875 L 9.1875 0 L 7.8125 0 Z M 6.640625 -3.28125 L 4.828125 -8.328125 L 3.015625 -3.28125 Z M 6.640625 -3.28125 "/></g></g><g style="fill:#000000;fill-opacity:1;"><g transform="translate(37.678362, 144.087524)"><path style="stroke:none" d="M 3.890625 0.125 C 3.285156 0.125 2.742188 0.0234375 2.265625 -0.171875 C 1.785156 -0.378906 1.40625 -0.664062 1.125 -1.03125 C 0.851562 -1.40625 0.703125 -1.832031 0.671875 -2.3125 L 2.015625 -2.3125 C 2.054688 -1.914062 2.238281 -1.59375 2.5625 -1.34375 C 2.894531 -1.09375 3.332031 -0.96875 3.875 -0.96875 C 4.363281 -0.96875 4.75 -1.078125 5.03125 -1.296875 C 5.320312 -1.523438 5.46875 -1.804688 5.46875 -2.140625 C 5.46875 -2.484375 5.316406 -2.738281 5.015625 -2.90625 C 4.710938 -3.070312 4.238281 -3.234375 3.59375 -3.390625 C 3.007812 -3.546875 2.535156 -3.703125 2.171875 -3.859375 C 1.804688 -4.015625 1.488281 -4.25 1.21875 -4.5625 C 0.957031 -4.875 0.828125 -5.28125 0.828125 -5.78125 C 0.828125 -6.1875 0.945312 -6.554688 1.1875 -6.890625 C 1.425781 -7.222656 1.765625 -7.488281 2.203125 -7.6875 C 2.640625 -7.882812 3.144531 -7.984375 3.71875 -7.984375 C 4.582031 -7.984375 5.28125 -7.757812 5.8125 -7.3125 C 6.351562 -6.875 6.640625 -6.273438 6.671875 -5.515625 L 5.375 -5.515625 C 5.34375 -5.921875 5.175781 -6.25 4.875 -6.5 C 4.570312 -6.75 4.171875 -6.875 3.671875 -6.875 C 3.203125 -6.875 2.828125 -6.773438 2.546875 -6.578125 C 2.273438 -6.378906 2.140625 -6.113281 2.140625 -5.78125 C 2.140625 -5.53125 2.222656 -5.320312 2.390625 -5.15625 C 2.554688 -4.988281 2.765625 -4.851562 3.015625 -4.75 C 3.265625 -4.644531 3.613281 -4.53125 4.0625 -4.40625 C 4.632812 -4.257812 5.09375 -4.109375 5.4375 -3.953125 C 5.789062 -3.804688 6.09375 -3.582031 6.34375 -3.28125 C 6.601562 -2.988281 6.738281 -2.609375 6.75 -2.140625 C 6.75 -1.703125 6.628906 -1.3125 6.390625 -0.96875 C 6.148438 -0.625 5.8125 -0.351562 5.375 -0.15625 C 4.945312 0.03125 4.453125 0.125 3.890625 0.125 Z M 3.890625 0.125 "/></g></g><g style="fill:#000000;fill-opacity:1;"><g transform="translate(45.157554, 144.087524)"><path style="stroke:none" d="M 3.890625 0.125 C 3.285156 0.125 2.742188 0.0234375 2.265625 -0.171875 C 1.785156 -0.378906 1.40625 -0.664062 1.125 -1.03125 C 0.851562 -1.40625 0.703125 -1.832031 0.671875 -2.3125 L 2.015625 -2.3125 C 2.054688 -1.914062 2.238281 -1.59375 2.5625 -1.34375 C 2.894531 -1.09375 3.332031 -0.96875 3.875 -0.96875 C 4.363281 -0.96875 4.75 -1.078125 5.03125 -1.296875 C 5.320312 -1.523438 5.46875 -1.804688 5.46875 -2.140625 C 5.46875 -2.484375 5.316406 -2.738281 5.015625 -2.90625 C 4.710938 -3.070312 4.238281 -3.234375 3.59375 -3.390625 C 3.007812 -3.546875 2.535156 -3.703125 2.171875 -3.859375 C 1.804688 -4.015625 1.488281 -4.25 1.21875 -4.5625 C 0.957031 -4.875 0.828125 -5.28125 0.828125 -5.78125 C 0.828125 -6.1875 0.945312 -6.554688 1.1875 -6.890625 C 1.425781 -7.222656 1.765625 -7.488281 2.203125 -7.6875 C 2.640625 -7.882812 3.144531 -7.984375 3.71875 -7.984375 C 4.582031 -7.984375 5.28125 -7.757812 5.8125 -7.3125 C 6.351562 -6.875 6.640625 -6.273438 6.671875 -5.515625 L 5.375 -5.515625 C 5.34375 -5.921875 5.175781 -6.25 4.875 -6.5 C 4.570312 -6.75 4.171875 -6.875 3.671875 -6.875 C 3.203125 -6.875 2.828125 -6.773438 2.546875 -6.578125 C 2.273438 -6.378906 2.140625 -6.113281 2.140625 -5.78125 C 2.140625 -5.53125 2.222656 -5.320312 2.390625 -5.15625 C 2.554688 -4.988281 2.765625 -4.851562 3.015625 -4.75 C 3.265625 -4.644531 3.613281 -4.53125 4.0625 -4.40625 C 4.632812 -4.257812 5.09375 -4.109375 5.4375 -3.953125 C 5.789062 -3.804688 6.09375 -3.582031 6.34375 -3.28125 C 6.601562 -2.988281 6.738281 -2.609375 6.75 -2.140625 C 6.75 -1.703125 6.628906 -1.3125 6.390625 -0.96875 C 6.148438 -0.625 5.8125 -0.351562 5.375 -0.15625 C 4.945312 0.03125 4.453125 0.125 3.890625 0.125 Z M 3.890625 0.125 "/></g></g><g style="fill:#000000;fill-opacity:1;"><g transform="translate(52.636746, 144.087524)"><path style="stroke:none" d="M 4.53125 0.125 C 3.789062 0.125 3.125 -0.0390625 2.53125 -0.375 C 1.9375 -0.707031 1.46875 -1.179688 1.125 -1.796875 C 0.78125 -2.410156 0.609375 -3.125 0.609375 -3.9375 C 0.609375 -4.738281 0.78125 -5.445312 1.125 -6.0625 C 1.476562 -6.675781 1.957031 -7.148438 2.5625 -7.484375 C 3.164062 -7.816406 3.835938 -7.984375 4.578125 -7.984375 C 5.328125 -7.984375 6.003906 -7.816406 6.609375 -7.484375 C 7.210938 -7.148438 7.6875 -6.675781 8.03125 -6.0625 C 8.375 -5.457031 8.546875 -4.75 8.546875 -3.9375 C 8.546875 -3.125 8.367188 -2.410156 8.015625 -1.796875 C 7.660156 -1.179688 7.175781 -0.707031 6.5625 -0.375 C 5.945312 -0.0390625 5.269531 0.125 4.53125 0.125 Z M 4.53125 -1.015625 C 5 -1.015625 5.4375 -1.125 5.84375 -1.34375 C 6.257812 -1.5625 6.59375 -1.890625 6.84375 -2.328125 C 7.09375 -2.773438 7.21875 -3.3125 7.21875 -3.9375 C 7.21875 -4.570312 7.09375 -5.109375 6.84375 -5.546875 C 6.59375 -5.984375 6.265625 -6.304688 5.859375 -6.515625 C 5.460938 -6.734375 5.035156 -6.84375 4.578125 -6.84375 C 4.097656 -6.84375 3.660156 -6.734375 3.265625 -6.515625 C 2.867188 -6.304688 2.550781 -5.984375 2.3125 -5.546875 C 2.070312 -5.109375 1.953125 -4.570312 1.953125 -3.9375 C 1.953125 -3.300781 2.066406 -2.757812 2.296875 -2.3125 C 2.535156 -1.875 2.847656 -1.546875 3.234375 -1.328125 C 3.628906 -1.117188 4.0625 -1.015625 4.53125 -1.015625 Z M 4.53125 -1.015625 "/></g></g><g style="fill:#000000;fill-opacity:1;"><g transform="translate(61.80664, 144.087524)"><path style="stroke:none" d="M 0.609375 -3.9375 C 0.609375 -4.75 0.769531 -5.457031 1.09375 -6.0625 C 1.425781 -6.675781 1.878906 -7.148438 2.453125 -7.484375 C 3.035156 -7.816406 3.695312 -7.984375 4.4375 -7.984375 C 5.40625 -7.984375 6.203125 -7.75 6.828125 -7.28125 C 7.453125 -6.8125 7.863281 -6.160156 8.0625 -5.328125 L 6.65625 -5.328125 C 6.53125 -5.804688 6.269531 -6.179688 5.875 -6.453125 C 5.488281 -6.734375 5.007812 -6.875 4.4375 -6.875 C 3.695312 -6.875 3.097656 -6.617188 2.640625 -6.109375 C 2.179688 -5.597656 1.953125 -4.875 1.953125 -3.9375 C 1.953125 -2.988281 2.179688 -2.253906 2.640625 -1.734375 C 3.097656 -1.222656 3.695312 -0.96875 4.4375 -0.96875 C 5.007812 -0.96875 5.488281 -1.101562 5.875 -1.375 C 6.257812 -1.644531 6.519531 -2.023438 6.65625 -2.515625 L 8.0625 -2.515625 C 7.851562 -1.710938 7.429688 -1.070312 6.796875 -0.59375 C 6.171875 -0.113281 5.382812 0.125 4.4375 0.125 C 3.695312 0.125 3.035156 -0.0390625 2.453125 -0.375 C 1.878906 -0.707031 1.425781 -1.175781 1.09375 -1.78125 C 0.769531 -2.394531 0.609375 -3.113281 0.609375 -3.9375 Z M 0.609375 -3.9375 "/></g></g><g style="fill:#000000;fill-opacity:1;"><g transform="translate(70.503709, 144.087524)"><path style="stroke:none" d="M 1.78125 -9.125 C 1.53125 -9.125 1.316406 -9.207031 1.140625 -9.375 C 0.972656 -9.550781 0.890625 -9.765625 0.890625 -10.015625 C 0.890625 -10.265625 0.972656 -10.472656 1.140625 -10.640625 C 1.316406 -10.816406 1.53125 -10.90625 1.78125 -10.90625 C 2.019531 -10.90625 2.222656 -10.816406 2.390625 -10.640625 C 2.554688 -10.472656 2.640625 -10.265625 2.640625 -10.015625 C 2.640625 -9.765625 2.554688 -9.550781 2.390625 -9.375 C 2.222656 -9.207031 2.019531 -9.125 1.78125 -9.125 Z M 2.40625 -7.859375 L 2.40625 0 L 1.109375 0 L 1.109375 -7.859375 Z M 2.40625 -7.859375 "/></g></g><g style="fill:#000000;fill-opacity:1;"><g transform="translate(74.028391, 144.087524)"><path style="stroke:none" d="M 0.609375 -3.953125 C 0.609375 -4.753906 0.769531 -5.457031 1.09375 -6.0625 C 1.425781 -6.675781 1.875 -7.148438 2.4375 -7.484375 C 3.007812 -7.816406 3.644531 -7.984375 4.34375 -7.984375 C 5.03125 -7.984375 5.625 -7.832031 6.125 -7.53125 C 6.632812 -7.238281 7.015625 -6.867188 7.265625 -6.421875 L 7.265625 -7.859375 L 8.578125 -7.859375 L 8.578125 0 L 7.265625 0 L 7.265625 -1.46875 C 7.003906 -1.007812 6.617188 -0.628906 6.109375 -0.328125 C 5.597656 -0.0234375 5.003906 0.125 4.328125 0.125 C 3.628906 0.125 3 -0.046875 2.4375 -0.390625 C 1.875 -0.734375 1.425781 -1.210938 1.09375 -1.828125 C 0.769531 -2.453125 0.609375 -3.160156 0.609375 -3.953125 Z M 7.265625 -3.9375 C 7.265625 -4.53125 7.144531 -5.046875 6.90625 -5.484375 C 6.664062 -5.921875 6.34375 -6.253906 5.9375 -6.484375 C 5.53125 -6.722656 5.082031 -6.84375 4.59375 -6.84375 C 4.113281 -6.84375 3.671875 -6.726562 3.265625 -6.5 C 2.867188 -6.269531 2.550781 -5.9375 2.3125 -5.5 C 2.070312 -5.0625 1.953125 -4.546875 1.953125 -3.953125 C 1.953125 -3.347656 2.070312 -2.820312 2.3125 -2.375 C 2.550781 -1.9375 2.867188 -1.597656 3.265625 -1.359375 C 3.671875 -1.128906 4.113281 -1.015625 4.59375 -1.015625 C 5.082031 -1.015625 5.53125 -1.128906 5.9375 -1.359375 C 6.34375 -1.597656 6.664062 -1.9375 6.90625 -2.375 C 7.144531 -2.820312 7.265625 -3.34375 7.265625 -3.9375 Z M 7.265625 -3.9375 "/></g></g><g style="fill:#000000;fill-opacity:1;"><g transform="translate(83.714094, 144.087524)"><path style="stroke:none" d="M 2.6875 -6.78125 L 2.6875 -2.15625 C 2.6875 -1.769531 2.769531 -1.5 2.9375 -1.34375 C 3.101562 -1.1875 3.382812 -1.109375 3.78125 -1.109375 L 4.75 -1.109375 L 4.75 0 L 3.5625 0 C 2.84375 0 2.300781 -0.164062 1.9375 -0.5 C 1.570312 -0.832031 1.390625 -1.382812 1.390625 -2.15625 L 1.390625 -6.78125 L 0.375 -6.78125 L 0.375 -7.859375 L 1.390625 -7.859375 L 1.390625 -9.828125 L 2.6875 -9.828125 L 2.6875 -7.859375 L 4.75 -7.859375 L 4.75 -6.78125 Z M 2.6875 -6.78125 "/></g></g><g style="fill:#000000;fill-opacity:1;"><g transform="translate(88.929471, 144.087524)"><path style="stroke:none" d="M 1.78125 -9.125 C 1.53125 -9.125 1.316406 -9.207031 1.140625 -9.375 C 0.972656 -9.550781 0.890625 -9.765625 0.890625 -10.015625 C 0.890625 -10.265625 0.972656 -10.472656 1.140625 -10.640625 C 1.316406 -10.816406 1.53125 -10.90625 1.78125 -10.90625 C 2.019531 -10.90625 2.222656 -10.816406 2.390625 -10.640625 C 2.554688 -10.472656 2.640625 -10.265625 2.640625 -10.015625 C 2.640625 -9.765625 2.554688 -9.550781 2.390625 -9.375 C 2.222656 -9.207031 2.019531 -9.125 1.78125 -9.125 Z M 2.40625 -7.859375 L 2.40625 0 L 1.109375 0 L 1.109375 -7.859375 Z M 2.40625 -7.859375 "/></g></g><g style="fill:#000000;fill-opacity:1;"><g transform="translate(92.454153, 144.087524)"><path style="stroke:none" d="M 4.53125 0.125 C 3.789062 0.125 3.125 -0.0390625 2.53125 -0.375 C 1.9375 -0.707031 1.46875 -1.179688 1.125 -1.796875 C 0.78125 -2.410156 0.609375 -3.125 0.609375 -3.9375 C 0.609375 -4.738281 0.78125 -5.445312 1.125 -6.0625 C 1.476562 -6.675781 1.957031 -7.148438 2.5625 -7.484375 C 3.164062 -7.816406 3.835938 -7.984375 4.578125 -7.984375 C 5.328125 -7.984375 6.003906 -7.816406 6.609375 -7.484375 C 7.210938 -7.148438 7.6875 -6.675781 8.03125 -6.0625 C 8.375 -5.457031 8.546875 -4.75 8.546875 -3.9375 C 8.546875 -3.125 8.367188 -2.410156 8.015625 -1.796875 C 7.660156 -1.179688 7.175781 -0.707031 6.5625 -0.375 C 5.945312 -0.0390625 5.269531 0.125 4.53125 0.125 Z M 4.53125 -1.015625 C 5 -1.015625 5.4375 -1.125 5.84375 -1.34375 C 6.257812 -1.5625 6.59375 -1.890625 6.84375 -2.328125 C 7.09375 -2.773438 7.21875 -3.3125 7.21875 -3.9375 C 7.21875 -4.570312 7.09375 -5.109375 6.84375 -5.546875 C 6.59375 -5.984375 6.265625 -6.304688 5.859375 -6.515625 C 5.460938 -6.734375 5.035156 -6.84375 4.578125 -6.84375 C 4.097656 -6.84375 3.660156 -6.734375 3.265625 -6.515625 C 2.867188 -6.304688 2.550781 -5.984375 2.3125 -5.546875 C 2.070312 -5.109375 1.953125 -4.570312 1.953125 -3.9375 C 1.953125 -3.300781 2.066406 -2.757812 2.296875 -2.3125 C 2.535156 -1.875 2.847656 -1.546875 3.234375 -1.328125 C 3.628906 -1.117188 4.0625 -1.015625 4.53125 -1.015625 Z M 4.53125 -1.015625 "/></g></g><g style="fill:#000000;fill-opacity:1;"><g transform="translate(101.624047, 144.087524)"><path style="stroke:none" d="M 4.921875 -8 C 5.878906 -8 6.65625 -7.707031 7.25 -7.125 C 7.84375 -6.550781 8.140625 -5.71875 8.140625 -4.625 L 8.140625 0 L 6.84375 0 L 6.84375 -4.4375 C 6.84375 -5.21875 6.644531 -5.816406 6.25 -6.234375 C 5.863281 -6.648438 5.332031 -6.859375 4.65625 -6.859375 C 3.96875 -6.859375 3.421875 -6.644531 3.015625 -6.21875 C 2.609375 -5.789062 2.40625 -5.164062 2.40625 -4.34375 L 2.40625 0 L 1.109375 0 L 1.109375 -7.859375 L 2.40625 -7.859375 L 2.40625 -6.734375 C 2.664062 -7.140625 3.015625 -7.453125 3.453125 -7.671875 C 3.898438 -7.890625 4.390625 -8 4.921875 -8 Z M 4.921875 -8 "/></g></g><g style="fill:#000000;fill-opacity:1;"><g transform="translate(110.793942, 144.087524)"><path style="stroke:none" d="M 3.890625 0.125 C 3.285156 0.125 2.742188 0.0234375 2.265625 -0.171875 C 1.785156 -0.378906 1.40625 -0.664062 1.125 -1.03125 C 0.851562 -1.40625 0.703125 -1.832031 0.671875 -2.3125 L 2.015625 -2.3125 C 2.054688 -1.914062 2.238281 -1.59375 2.5625 -1.34375 C 2.894531 -1.09375 3.332031 -0.96875 3.875 -0.96875 C 4.363281 -0.96875 4.75 -1.078125 5.03125 -1.296875 C 5.320312 -1.523438 5.46875 -1.804688 5.46875 -2.140625 C 5.46875 -2.484375 5.316406 -2.738281 5.015625 -2.90625 C 4.710938 -3.070312 4.238281 -3.234375 3.59375 -3.390625 C 3.007812 -3.546875 2.535156 -3.703125 2.171875 -3.859375 C 1.804688 -4.015625 1.488281 -4.25 1.21875 -4.5625 C 0.957031 -4.875 0.828125 -5.28125 0.828125 -5.78125 C 0.828125 -6.1875 0.945312 -6.554688 1.1875 -6.890625 C 1.425781 -7.222656 1.765625 -7.488281 2.203125 -7.6875 C 2.640625 -7.882812 3.144531 -7.984375 3.71875 -7.984375 C 4.582031 -7.984375 5.28125 -7.757812 5.8125 -7.3125 C 6.351562 -6.875 6.640625 -6.273438 6.671875 -5.515625 L 5.375 -5.515625 C 5.34375 -5.921875 5.175781 -6.25 4.875 -6.5 C 4.570312 -6.75 4.171875 -6.875 3.671875 -6.875 C 3.203125 -6.875 2.828125 -6.773438 2.546875 -6.578125 C 2.273438 -6.378906 2.140625 -6.113281 2.140625 -5.78125 C 2.140625 -5.53125 2.222656 -5.320312 2.390625 -5.15625 C 2.554688 -4.988281 2.765625 -4.851562 3.015625 -4.75 C 3.265625 -4.644531 3.613281 -4.53125 4.0625 -4.40625 C 4.632812 -4.257812 5.09375 -4.109375 5.4375 -3.953125 C 5.789062 -3.804688 6.09375 -3.582031 6.34375 -3.28125 C 6.601562 -2.988281 6.738281 -2.609375 6.75 -2.140625 C 6.75 -1.703125 6.628906 -1.3125 6.390625 -0.96875 C 6.148438 -0.625 5.8125 -0.351562 5.375 -0.15625 C 4.945312 0.03125 4.453125 0.125 3.890625 0.125 Z M 3.890625 0.125 "/></g></g><g style="fill:#000000;fill-opacity:1;"><g transform="translate(118.273134, 144.087524)"><path style="stroke:none" d=""/></g></g><g style="fill:#000000;fill-opacity:1;"><g transform="translate(122.098703, 144.087524)"><path style="stroke:none" d="M 0.609375 -3.953125 C 0.609375 -4.753906 0.769531 -5.457031 1.09375 -6.0625 C 1.425781 -6.675781 1.875 -7.148438 2.4375 -7.484375 C 3.007812 -7.816406 3.648438 -7.984375 4.359375 -7.984375 C 4.960938 -7.984375 5.523438 -7.84375 6.046875 -7.5625 C 6.578125 -7.28125 6.984375 -6.910156 7.265625 -6.453125 L 7.265625 -10.609375 L 8.578125 -10.609375 L 8.578125 0 L 7.265625 0 L 7.265625 -1.46875 C 7.003906 -1.007812 6.617188 -0.628906 6.109375 -0.328125 C 5.609375 -0.0234375 5.019531 0.125 4.34375 0.125 C 3.644531 0.125 3.007812 -0.046875 2.4375 -0.390625 C 1.875 -0.734375 1.425781 -1.210938 1.09375 -1.828125 C 0.769531 -2.453125 0.609375 -3.160156 0.609375 -3.953125 Z M 7.265625 -3.9375 C 7.265625 -4.53125 7.144531 -5.046875 6.90625 -5.484375 C 6.664062 -5.921875 6.34375 -6.253906 5.9375 -6.484375 C 5.53125 -6.722656 5.082031 -6.84375 4.59375 -6.84375 C 4.113281 -6.84375 3.671875 -6.726562 3.265625 -6.5 C 2.867188 -6.269531 2.550781 -5.9375 2.3125 -5.5 C 2.070312 -5.0625 1.953125 -4.546875 1.953125 -3.953125 C 1.953125 -3.347656 2.070312 -2.820312 2.3125 -2.375 C 2.550781 -1.9375 2.867188 -1.597656 3.265625 -1.359375 C 3.671875 -1.128906 4.113281 -1.015625 4.59375 -1.015625 C 5.082031 -1.015625 5.53125 -1.128906 5.9375 -1.359375 C 6.34375 -1.597656 6.664062 -1.9375 6.90625 -2.375 C 7.144531 -2.820312 7.265625 -3.34375 7.265625 -3.9375 Z M 7.265625 -3.9375 "/></g></g><g style="fill:#000000;fill-opacity:1;"><g transform="translate(131.784406, 144.087524)"><path style="stroke:none" d="M 8.265625 -4.234375 C 8.265625 -3.984375 8.25 -3.71875 8.21875 -3.4375 L 1.953125 -3.4375 C 1.992188 -2.664062 2.253906 -2.0625 2.734375 -1.625 C 3.222656 -1.1875 3.8125 -0.96875 4.5 -0.96875 C 5.0625 -0.96875 5.53125 -1.097656 5.90625 -1.359375 C 6.28125 -1.628906 6.546875 -1.984375 6.703125 -2.421875 L 8.109375 -2.421875 C 7.898438 -1.671875 7.476562 -1.054688 6.84375 -0.578125 C 6.21875 -0.109375 5.4375 0.125 4.5 0.125 C 3.75 0.125 3.082031 -0.0390625 2.5 -0.375 C 1.914062 -0.707031 1.453125 -1.179688 1.109375 -1.796875 C 0.773438 -2.410156 0.609375 -3.125 0.609375 -3.9375 C 0.609375 -4.75 0.769531 -5.457031 1.09375 -6.0625 C 1.425781 -6.675781 1.882812 -7.148438 2.46875 -7.484375 C 3.0625 -7.816406 3.738281 -7.984375 4.5 -7.984375 C 5.238281 -7.984375 5.894531 -7.816406 6.46875 -7.484375 C 7.050781 -7.160156 7.492188 -6.710938 7.796875 -6.140625 C 8.109375 -5.578125 8.265625 -4.941406 8.265625 -4.234375 Z M 6.921875 -4.5 C 6.921875 -5 6.8125 -5.425781 6.59375 -5.78125 C 6.375 -6.132812 6.070312 -6.40625 5.6875 -6.59375 C 5.3125 -6.78125 4.894531 -6.875 4.4375 -6.875 C 3.78125 -6.875 3.21875 -6.660156 2.75 -6.234375 C 2.289062 -5.816406 2.03125 -5.238281 1.96875 -4.5 Z M 6.921875 -4.5 "/></g></g><g style="fill:#000000;fill-opacity:1;"><g transform="translate(19.532928, 164.117673)"><path style="stroke:none" d="M 0.609375 -3.9375 C 0.609375 -4.75 0.769531 -5.457031 1.09375 -6.0625 C 1.425781 -6.675781 1.878906 -7.148438 2.453125 -7.484375 C 3.035156 -7.816406 3.695312 -7.984375 4.4375 -7.984375 C 5.40625 -7.984375 6.203125 -7.75 6.828125 -7.28125 C 7.453125 -6.8125 7.863281 -6.160156 8.0625 -5.328125 L 6.65625 -5.328125 C 6.53125 -5.804688 6.269531 -6.179688 5.875 -6.453125 C 5.488281 -6.734375 5.007812 -6.875 4.4375 -6.875 C 3.695312 -6.875 3.097656 -6.617188 2.640625 -6.109375 C 2.179688 -5.597656 1.953125 -4.875 1.953125 -3.9375 C 1.953125 -2.988281 2.179688 -2.253906 2.640625 -1.734375 C 3.097656 -1.222656 3.695312 -0.96875 4.4375 -0.96875 C 5.007812 -0.96875 5.488281 -1.101562 5.875 -1.375 C 6.257812 -1.644531 6.519531 -2.023438 6.65625 -2.515625 L 8.0625 -2.515625 C 7.851562 -1.710938 7.429688 -1.070312 6.796875 -0.59375 C 6.171875 -0.113281 5.382812 0.125 4.4375 0.125 C 3.695312 0.125 3.035156 -0.0390625 2.453125 -0.375 C 1.878906 -0.707031 1.425781 -1.175781 1.09375 -1.78125 C 0.769531 -2.394531 0.609375 -3.113281 0.609375 -3.9375 Z M 0.609375 -3.9375 "/></g></g><g style="fill:#000000;fill-opacity:1;"><g transform="translate(28.229996, 164.117673)"><path style="stroke:none" d="M 4.53125 0.125 C 3.789062 0.125 3.125 -0.0390625 2.53125 -0.375 C 1.9375 -0.707031 1.46875 -1.179688 1.125 -1.796875 C 0.78125 -2.410156 0.609375 -3.125 0.609375 -3.9375 C 0.609375 -4.738281 0.78125 -5.445312 1.125 -6.0625 C 1.476562 -6.675781 1.957031 -7.148438 2.5625 -7.484375 C 3.164062 -7.816406 3.835938 -7.984375 4.578125 -7.984375 C 5.328125 -7.984375 6.003906 -7.816406 6.609375 -7.484375 C 7.210938 -7.148438 7.6875 -6.675781 8.03125 -6.0625 C 8.375 -5.457031 8.546875 -4.75 8.546875 -3.9375 C 8.546875 -3.125 8.367188 -2.410156 8.015625 -1.796875 C 7.660156 -1.179688 7.175781 -0.707031 6.5625 -0.375 C 5.945312 -0.0390625 5.269531 0.125 4.53125 0.125 Z M 4.53125 -1.015625 C 5 -1.015625 5.4375 -1.125 5.84375 -1.34375 C 6.257812 -1.5625 6.59375 -1.890625 6.84375 -2.328125 C 7.09375 -2.773438 7.21875 -3.3125 7.21875 -3.9375 C 7.21875 -4.570312 7.09375 -5.109375 6.84375 -5.546875 C 6.59375 -5.984375 6.265625 -6.304688 5.859375 -6.515625 C 5.460938 -6.734375 5.035156 -6.84375 4.578125 -6.84375 C 4.097656 -6.84375 3.660156 -6.734375 3.265625 -6.515625 C 2.867188 -6.304688 2.550781 -5.984375 2.3125 -5.546875 C 2.070312 -5.109375 1.953125 -4.570312 1.953125 -3.9375 C 1.953125 -3.300781 2.066406 -2.757812 2.296875 -2.3125 C 2.535156 -1.875 2.847656 -1.546875 3.234375 -1.328125 C 3.628906 -1.117188 4.0625 -1.015625 4.53125 -1.015625 Z M 4.53125 -1.015625 "/></g></g><g style="fill:#000000;fill-opacity:1;"><g transform="translate(37.399891, 164.117673)"><path style="stroke:none" d="M 4.921875 -8 C 5.878906 -8 6.65625 -7.707031 7.25 -7.125 C 7.84375 -6.550781 8.140625 -5.71875 8.140625 -4.625 L 8.140625 0 L 6.84375 0 L 6.84375 -4.4375 C 6.84375 -5.21875 6.644531 -5.816406 6.25 -6.234375 C 5.863281 -6.648438 5.332031 -6.859375 4.65625 -6.859375 C 3.96875 -6.859375 3.421875 -6.644531 3.015625 -6.21875 C 2.609375 -5.789062 2.40625 -5.164062 2.40625 -4.34375 L 2.40625 0 L 1.109375 0 L 1.109375 -7.859375 L 2.40625 -7.859375 L 2.40625 -6.734375 C 2.664062 -7.140625 3.015625 -7.453125 3.453125 -7.671875 C 3.898438 -7.890625 4.390625 -8 4.921875 -8 Z M 4.921875 -8 "/></g></g><g style="fill:#000000;fill-opacity:1;"><g transform="translate(46.569785, 164.117673)"><path style="stroke:none" d="M 3.890625 0.125 C 3.285156 0.125 2.742188 0.0234375 2.265625 -0.171875 C 1.785156 -0.378906 1.40625 -0.664062 1.125 -1.03125 C 0.851562 -1.40625 0.703125 -1.832031 0.671875 -2.3125 L 2.015625 -2.3125 C 2.054688 -1.914062 2.238281 -1.59375 2.5625 -1.34375 C 2.894531 -1.09375 3.332031 -0.96875 3.875 -0.96875 C 4.363281 -0.96875 4.75 -1.078125 5.03125 -1.296875 C 5.320312 -1.523438 5.46875 -1.804688 5.46875 -2.140625 C 5.46875 -2.484375 5.316406 -2.738281 5.015625 -2.90625 C 4.710938 -3.070312 4.238281 -3.234375 3.59375 -3.390625 C 3.007812 -3.546875 2.535156 -3.703125 2.171875 -3.859375 C 1.804688 -4.015625 1.488281 -4.25 1.21875 -4.5625 C 0.957031 -4.875 0.828125 -5.28125 0.828125 -5.78125 C 0.828125 -6.1875 0.945312 -6.554688 1.1875 -6.890625 C 1.425781 -7.222656 1.765625 -7.488281 2.203125 -7.6875 C 2.640625 -7.882812 3.144531 -7.984375 3.71875 -7.984375 C 4.582031 -7.984375 5.28125 -7.757812 5.8125 -7.3125 C 6.351562 -6.875 6.640625 -6.273438 6.671875 -5.515625 L 5.375 -5.515625 C 5.34375 -5.921875 5.175781 -6.25 4.875 -6.5 C 4.570312 -6.75 4.171875 -6.875 3.671875 -6.875 C 3.203125 -6.875 2.828125 -6.773438 2.546875 -6.578125 C 2.273438 -6.378906 2.140625 -6.113281 2.140625 -5.78125 C 2.140625 -5.53125 2.222656 -5.320312 2.390625 -5.15625 C 2.554688 -4.988281 2.765625 -4.851562 3.015625 -4.75 C 3.265625 -4.644531 3.613281 -4.53125 4.0625 -4.40625 C 4.632812 -4.257812 5.09375 -4.109375 5.4375 -3.953125 C 5.789062 -3.804688 6.09375 -3.582031 6.34375 -3.28125 C 6.601562 -2.988281 6.738281 -2.609375 6.75 -2.140625 C 6.75 -1.703125 6.628906 -1.3125 6.390625 -0.96875 C 6.148438 -0.625 5.8125 -0.351562 5.375 -0.15625 C 4.945312 0.03125 4.453125 0.125 3.890625 0.125 Z M 3.890625 0.125 "/></g></g><g style="fill:#000000;fill-opacity:1;"><g transform="translate(54.048977, 164.117673)"><path style="stroke:none" d="M 4.53125 0.125 C 3.789062 0.125 3.125 -0.0390625 2.53125 -0.375 C 1.9375 -0.707031 1.46875 -1.179688 1.125 -1.796875 C 0.78125 -2.410156 0.609375 -3.125 0.609375 -3.9375 C 0.609375 -4.738281 0.78125 -5.445312 1.125 -6.0625 C 1.476562 -6.675781 1.957031 -7.148438 2.5625 -7.484375 C 3.164062 -7.816406 3.835938 -7.984375 4.578125 -7.984375 C 5.328125 -7.984375 6.003906 -7.816406 6.609375 -7.484375 C 7.210938 -7.148438 7.6875 -6.675781 8.03125 -6.0625 C 8.375 -5.457031 8.546875 -4.75 8.546875 -3.9375 C 8.546875 -3.125 8.367188 -2.410156 8.015625 -1.796875 C 7.660156 -1.179688 7.175781 -0.707031 6.5625 -0.375 C 5.945312 -0.0390625 5.269531 0.125 4.53125 0.125 Z M 4.53125 -1.015625 C 5 -1.015625 5.4375 -1.125 5.84375 -1.34375 C 6.257812 -1.5625 6.59375 -1.890625 6.84375 -2.328125 C 7.09375 -2.773438 7.21875 -3.3125 7.21875 -3.9375 C 7.21875 -4.570312 7.09375 -5.109375 6.84375 -5.546875 C 6.59375 -5.984375 6.265625 -6.304688 5.859375 -6.515625 C 5.460938 -6.734375 5.035156 -6.84375 4.578125 -6.84375 C 4.097656 -6.84375 3.660156 -6.734375 3.265625 -6.515625 C 2.867188 -6.304688 2.550781 -5.984375 2.3125 -5.546875 C 2.070312 -5.109375 1.953125 -4.570312 1.953125 -3.9375 C 1.953125 -3.300781 2.066406 -2.757812 2.296875 -2.3125 C 2.535156 -1.875 2.847656 -1.546875 3.234375 -1.328125 C 3.628906 -1.117188 4.0625 -1.015625 4.53125 -1.015625 Z M 4.53125 -1.015625 "/></g></g><g style="fill:#000000;fill-opacity:1;"><g transform="translate(63.218872, 164.117673)"><path style="stroke:none" d="M 10.546875 -8 C 11.160156 -8 11.703125 -7.867188 12.171875 -7.609375 C 12.648438 -7.359375 13.023438 -6.976562 13.296875 -6.46875 C 13.578125 -5.96875 13.71875 -5.351562 13.71875 -4.625 L 13.71875 0 L 12.4375 0 L 12.4375 -4.4375 C 12.4375 -5.21875 12.242188 -5.816406 11.859375 -6.234375 C 11.472656 -6.648438 10.945312 -6.859375 10.28125 -6.859375 C 9.601562 -6.859375 9.0625 -6.640625 8.65625 -6.203125 C 8.257812 -5.773438 8.0625 -5.148438 8.0625 -4.328125 L 8.0625 0 L 6.78125 0 L 6.78125 -4.4375 C 6.78125 -5.21875 6.582031 -5.816406 6.1875 -6.234375 C 5.800781 -6.648438 5.28125 -6.859375 4.625 -6.859375 C 3.945312 -6.859375 3.40625 -6.640625 3 -6.203125 C 2.601562 -5.773438 2.40625 -5.148438 2.40625 -4.328125 L 2.40625 0 L 1.109375 0 L 1.109375 -7.859375 L 2.40625 -7.859375 L 2.40625 -6.71875 C 2.664062 -7.132812 3.007812 -7.453125 3.4375 -7.671875 C 3.875 -7.890625 4.359375 -8 4.890625 -8 C 5.546875 -8 6.125 -7.847656 6.625 -7.546875 C 7.132812 -7.253906 7.515625 -6.820312 7.765625 -6.25 C 7.984375 -6.800781 8.34375 -7.226562 8.84375 -7.53125 C 9.351562 -7.84375 9.921875 -8 10.546875 -8 Z M 10.546875 -8 "/></g></g><g style="fill:#000000;fill-opacity:1;"><g transform="translate(77.976669, 164.117673)"><path style="stroke:none" d="M 10.546875 -8 C 11.160156 -8 11.703125 -7.867188 12.171875 -7.609375 C 12.648438 -7.359375 13.023438 -6.976562 13.296875 -6.46875 C 13.578125 -5.96875 13.71875 -5.351562 13.71875 -4.625 L 13.71875 0 L 12.4375 0 L 12.4375 -4.4375 C 12.4375 -5.21875 12.242188 -5.816406 11.859375 -6.234375 C 11.472656 -6.648438 10.945312 -6.859375 10.28125 -6.859375 C 9.601562 -6.859375 9.0625 -6.640625 8.65625 -6.203125 C 8.257812 -5.773438 8.0625 -5.148438 8.0625 -4.328125 L 8.0625 0 L 6.78125 0 L 6.78125 -4.4375 C 6.78125 -5.21875 6.582031 -5.816406 6.1875 -6.234375 C 5.800781 -6.648438 5.28125 -6.859375 4.625 -6.859375 C 3.945312 -6.859375 3.40625 -6.640625 3 -6.203125 C 2.601562 -5.773438 2.40625 -5.148438 2.40625 -4.328125 L 2.40625 0 L 1.109375 0 L 1.109375 -7.859375 L 2.40625 -7.859375 L 2.40625 -6.71875 C 2.664062 -7.132812 3.007812 -7.453125 3.4375 -7.671875 C 3.875 -7.890625 4.359375 -8 4.890625 -8 C 5.546875 -8 6.125 -7.847656 6.625 -7.546875 C 7.132812 -7.253906 7.515625 -6.820312 7.765625 -6.25 C 7.984375 -6.800781 8.34375 -7.226562 8.84375 -7.53125 C 9.351562 -7.84375 9.921875 -8 10.546875 -8 Z M 10.546875 -8 "/></g></g><g style="fill:#000000;fill-opacity:1;"><g transform="translate(92.734466, 164.117673)"><path style="stroke:none" d="M 0.609375 -3.953125 C 0.609375 -4.753906 0.769531 -5.457031 1.09375 -6.0625 C 1.425781 -6.675781 1.875 -7.148438 2.4375 -7.484375 C 3.007812 -7.816406 3.644531 -7.984375 4.34375 -7.984375 C 5.03125 -7.984375 5.625 -7.832031 6.125 -7.53125 C 6.632812 -7.238281 7.015625 -6.867188 7.265625 -6.421875 L 7.265625 -7.859375 L 8.578125 -7.859375 L 8.578125 0 L 7.265625 0 L 7.265625 -1.46875 C 7.003906 -1.007812 6.617188 -0.628906 6.109375 -0.328125 C 5.597656 -0.0234375 5.003906 0.125 4.328125 0.125 C 3.628906 0.125 3 -0.046875 2.4375 -0.390625 C 1.875 -0.734375 1.425781 -1.210938 1.09375 -1.828125 C 0.769531 -2.453125 0.609375 -3.160156 0.609375 -3.953125 Z M 7.265625 -3.9375 C 7.265625 -4.53125 7.144531 -5.046875 6.90625 -5.484375 C 6.664062 -5.921875 6.34375 -6.253906 5.9375 -6.484375 C 5.53125 -6.722656 5.082031 -6.84375 4.59375 -6.84375 C 4.113281 -6.84375 3.671875 -6.726562 3.265625 -6.5 C 2.867188 -6.269531 2.550781 -5.9375 2.3125 -5.5 C 2.070312 -5.0625 1.953125 -4.546875 1.953125 -3.953125 C 1.953125 -3.347656 2.070312 -2.820312 2.3125 -2.375 C 2.550781 -1.9375 2.867188 -1.597656 3.265625 -1.359375 C 3.671875 -1.128906 4.113281 -1.015625 4.59375 -1.015625 C 5.082031 -1.015625 5.53125 -1.128906 5.9375 -1.359375 C 6.34375 -1.597656 6.664062 -1.9375 6.90625 -2.375 C 7.144531 -2.820312 7.265625 -3.34375 7.265625 -3.9375 Z M 7.265625 -3.9375 "/></g></g><g style="fill:#000000;fill-opacity:1;"><g transform="translate(102.420169, 164.117673)"><path style="stroke:none" d="M 2.6875 -6.78125 L 2.6875 -2.15625 C 2.6875 -1.769531 2.769531 -1.5 2.9375 -1.34375 C 3.101562 -1.1875 3.382812 -1.109375 3.78125 -1.109375 L 4.75 -1.109375 L 4.75 0 L 3.5625 0 C 2.84375 0 2.300781 -0.164062 1.9375 -0.5 C 1.570312 -0.832031 1.390625 -1.382812 1.390625 -2.15625 L 1.390625 -6.78125 L 0.375 -6.78125 L 0.375 -7.859375 L 1.390625 -7.859375 L 1.390625 -9.828125 L 2.6875 -9.828125 L 2.6875 -7.859375 L 4.75 -7.859375 L 4.75 -6.78125 Z M 2.6875 -6.78125 "/></g></g><g style="fill:#000000;fill-opacity:1;"><g transform="translate(107.635546, 164.117673)"><path style="stroke:none" d="M 8.265625 -4.234375 C 8.265625 -3.984375 8.25 -3.71875 8.21875 -3.4375 L 1.953125 -3.4375 C 1.992188 -2.664062 2.253906 -2.0625 2.734375 -1.625 C 3.222656 -1.1875 3.8125 -0.96875 4.5 -0.96875 C 5.0625 -0.96875 5.53125 -1.097656 5.90625 -1.359375 C 6.28125 -1.628906 6.546875 -1.984375 6.703125 -2.421875 L 8.109375 -2.421875 C 7.898438 -1.671875 7.476562 -1.054688 6.84375 -0.578125 C 6.21875 -0.109375 5.4375 0.125 4.5 0.125 C 3.75 0.125 3.082031 -0.0390625 2.5 -0.375 C 1.914062 -0.707031 1.453125 -1.179688 1.109375 -1.796875 C 0.773438 -2.410156 0.609375 -3.125 0.609375 -3.9375 C 0.609375 -4.75 0.769531 -5.457031 1.09375 -6.0625 C 1.425781 -6.675781 1.882812 -7.148438 2.46875 -7.484375 C 3.0625 -7.816406 3.738281 -7.984375 4.5 -7.984375 C 5.238281 -7.984375 5.894531 -7.816406 6.46875 -7.484375 C 7.050781 -7.160156 7.492188 -6.710938 7.796875 -6.140625 C 8.109375 -5.578125 8.265625 -4.941406 8.265625 -4.234375 Z M 6.921875 -4.5 C 6.921875 -5 6.8125 -5.425781 6.59375 -5.78125 C 6.375 -6.132812 6.070312 -6.40625 5.6875 -6.59375 C 5.3125 -6.78125 4.894531 -6.875 4.4375 -6.875 C 3.78125 -6.875 3.21875 -6.660156 2.75 -6.234375 C 2.289062 -5.816406 2.03125 -5.238281 1.96875 -4.5 Z M 6.921875 -4.5 "/></g></g><g style="fill:#000000;fill-opacity:1;"><g transform="translate(116.518881, 164.117673)"><path style="stroke:none" d="M 8.0625 -7.859375 L 8.0625 0 L 6.765625 0 L 6.765625 -1.15625 C 6.515625 -0.757812 6.164062 -0.445312 5.71875 -0.21875 C 5.28125 0 4.789062 0.109375 4.25 0.109375 C 3.644531 0.109375 3.097656 -0.015625 2.609375 -0.265625 C 2.117188 -0.515625 1.734375 -0.890625 1.453125 -1.390625 C 1.171875 -1.898438 1.03125 -2.519531 1.03125 -3.25 L 1.03125 -7.859375 L 2.328125 -7.859375 L 2.328125 -3.421875 C 2.328125 -2.648438 2.519531 -2.054688 2.90625 -1.640625 C 3.300781 -1.222656 3.835938 -1.015625 4.515625 -1.015625 C 5.210938 -1.015625 5.757812 -1.226562 6.15625 -1.65625 C 6.5625 -2.09375 6.765625 -2.722656 6.765625 -3.546875 L 6.765625 -7.859375 Z M 8.0625 -7.859375 "/></g></g><g style="fill:#000000;fill-opacity:1;"><g transform="translate(125.688776, 164.117673)"><path style="stroke:none" d="M 2.40625 -6.578125 C 2.632812 -7.023438 2.960938 -7.375 3.390625 -7.625 C 3.816406 -7.875 4.332031 -8 4.9375 -8 L 4.9375 -6.640625 L 4.59375 -6.640625 C 3.132812 -6.640625 2.40625 -5.847656 2.40625 -4.265625 L 2.40625 0 L 1.109375 0 L 1.109375 -7.859375 L 2.40625 -7.859375 Z M 2.40625 -6.578125 "/></g></g><g style="fill:#000000;fill-opacity:1;"><g transform="translate(131.033101, 164.117673)"><path style="stroke:none" d="M 3.890625 0.125 C 3.285156 0.125 2.742188 0.0234375 2.265625 -0.171875 C 1.785156 -0.378906 1.40625 -0.664062 1.125 -1.03125 C 0.851562 -1.40625 0.703125 -1.832031 0.671875 -2.3125 L 2.015625 -2.3125 C 2.054688 -1.914062 2.238281 -1.59375 2.5625 -1.34375 C 2.894531 -1.09375 3.332031 -0.96875 3.875 -0.96875 C 4.363281 -0.96875 4.75 -1.078125 5.03125 -1.296875 C 5.320312 -1.523438 5.46875 -1.804688 5.46875 -2.140625 C 5.46875 -2.484375 5.316406 -2.738281 5.015625 -2.90625 C 4.710938 -3.070312 4.238281 -3.234375 3.59375 -3.390625 C 3.007812 -3.546875 2.535156 -3.703125 2.171875 -3.859375 C 1.804688 -4.015625 1.488281 -4.25 1.21875 -4.5625 C 0.957031 -4.875 0.828125 -5.28125 0.828125 -5.78125 C 0.828125 -6.1875 0.945312 -6.554688 1.1875 -6.890625 C 1.425781 -7.222656 1.765625 -7.488281 2.203125 -7.6875 C 2.640625 -7.882812 3.144531 -7.984375 3.71875 -7.984375 C 4.582031 -7.984375 5.28125 -7.757812 5.8125 -7.3125 C 6.351562 -6.875 6.640625 -6.273438 6.671875 -5.515625 L 5.375 -5.515625 C 5.34375 -5.921875 5.175781 -6.25 4.875 -6.5 C 4.570312 -6.75 4.171875 -6.875 3.671875 -6.875 C 3.203125 -6.875 2.828125 -6.773438 2.546875 -6.578125 C 2.273438 -6.378906 2.140625 -6.113281 2.140625 -5.78125 C 2.140625 -5.53125 2.222656 -5.320312 2.390625 -5.15625 C 2.554688 -4.988281 2.765625 -4.851562 3.015625 -4.75 C 3.265625 -4.644531 3.613281 -4.53125 4.0625 -4.40625 C 4.632812 -4.257812 5.09375 -4.109375 5.4375 -3.953125 C 5.789062 -3.804688 6.09375 -3.582031 6.34375 -3.28125 C 6.601562 -2.988281 6.738281 -2.609375 6.75 -2.140625 C 6.75 -1.703125 6.628906 -1.3125 6.390625 -0.96875 C 6.148438 -0.625 5.8125 -0.351562 5.375 -0.15625 C 4.945312 0.03125 4.453125 0.125 3.890625 0.125 Z M 3.890625 0.125 "/></g></g><g style="fill:#000000;fill-opacity:1;"><g transform="translate(138.512293, 164.117673)"><path style="stroke:none" d=""/></g></g><g style="fill:#000000;fill-opacity:1;"><g transform="translate(142.337862, 164.117673)"><path style="stroke:none" d="M 5.96875 -13.5 L 2.046875 2.4375 L 0.765625 2.4375 L 4.671875 -13.5 Z M 5.96875 -13.5 "/></g></g><g style="fill:#000000;fill-opacity:1;"><g transform="translate(14.868895, 184.147822)"><path style="stroke:none" d="M 0.609375 -3.953125 C 0.609375 -4.753906 0.769531 -5.457031 1.09375 -6.0625 C 1.425781 -6.675781 1.875 -7.148438 2.4375 -7.484375 C 3.007812 -7.816406 3.648438 -7.984375 4.359375 -7.984375 C 4.960938 -7.984375 5.523438 -7.84375 6.046875 -7.5625 C 6.578125 -7.28125 6.984375 -6.910156 7.265625 -6.453125 L 7.265625 -10.609375 L 8.578125 -10.609375 L 8.578125 0 L 7.265625 0 L 7.265625 -1.46875 C 7.003906 -1.007812 6.617188 -0.628906 6.109375 -0.328125 C 5.609375 -0.0234375 5.019531 0.125 4.34375 0.125 C 3.644531 0.125 3.007812 -0.046875 2.4375 -0.390625 C 1.875 -0.734375 1.425781 -1.210938 1.09375 -1.828125 C 0.769531 -2.453125 0.609375 -3.160156 0.609375 -3.953125 Z M 7.265625 -3.9375 C 7.265625 -4.53125 7.144531 -5.046875 6.90625 -5.484375 C 6.664062 -5.921875 6.34375 -6.253906 5.9375 -6.484375 C 5.53125 -6.722656 5.082031 -6.84375 4.59375 -6.84375 C 4.113281 -6.84375 3.671875 -6.726562 3.265625 -6.5 C 2.867188 -6.269531 2.550781 -5.9375 2.3125 -5.5 C 2.070312 -5.0625 1.953125 -4.546875 1.953125 -3.953125 C 1.953125 -3.347656 2.070312 -2.820312 2.3125 -2.375 C 2.550781 -1.9375 2.867188 -1.597656 3.265625 -1.359375 C 3.671875 -1.128906 4.113281 -1.015625 4.59375 -1.015625 C 5.082031 -1.015625 5.53125 -1.128906 5.9375 -1.359375 C 6.34375 -1.597656 6.664062 -1.9375 6.90625 -2.375 C 7.144531 -2.820312 7.265625 -3.34375 7.265625 -3.9375 Z M 7.265625 -3.9375 "/></g></g><g style="fill:#000000;fill-opacity:1;"><g transform="translate(24.554599, 184.147822)"><path style="stroke:none" d="M 8.265625 -4.234375 C 8.265625 -3.984375 8.25 -3.71875 8.21875 -3.4375 L 1.953125 -3.4375 C 1.992188 -2.664062 2.253906 -2.0625 2.734375 -1.625 C 3.222656 -1.1875 3.8125 -0.96875 4.5 -0.96875 C 5.0625 -0.96875 5.53125 -1.097656 5.90625 -1.359375 C 6.28125 -1.628906 6.546875 -1.984375 6.703125 -2.421875 L 8.109375 -2.421875 C 7.898438 -1.671875 7.476562 -1.054688 6.84375 -0.578125 C 6.21875 -0.109375 5.4375 0.125 4.5 0.125 C 3.75 0.125 3.082031 -0.0390625 2.5 -0.375 C 1.914062 -0.707031 1.453125 -1.179688 1.109375 -1.796875 C 0.773438 -2.410156 0.609375 -3.125 0.609375 -3.9375 C 0.609375 -4.75 0.769531 -5.457031 1.09375 -6.0625 C 1.425781 -6.675781 1.882812 -7.148438 2.46875 -7.484375 C 3.0625 -7.816406 3.738281 -7.984375 4.5 -7.984375 C 5.238281 -7.984375 5.894531 -7.816406 6.46875 -7.484375 C 7.050781 -7.160156 7.492188 -6.710938 7.796875 -6.140625 C 8.109375 -5.578125 8.265625 -4.941406 8.265625 -4.234375 Z M 6.921875 -4.5 C 6.921875 -5 6.8125 -5.425781 6.59375 -5.78125 C 6.375 -6.132812 6.070312 -6.40625 5.6875 -6.59375 C 5.3125 -6.78125 4.894531 -6.875 4.4375 -6.875 C 3.78125 -6.875 3.21875 -6.660156 2.75 -6.234375 C 2.289062 -5.816406 2.03125 -5.238281 1.96875 -4.5 Z M 6.921875 -4.5 "/></g></g><g style="fill:#000000;fill-opacity:1;"><g transform="translate(33.437934, 184.147822)"><path style="stroke:none" d=""/></g></g><g style="fill:#000000;fill-opacity:1;"><g transform="translate(37.263503, 184.147822)"><path style="stroke:none" d="M 3.890625 0.125 C 3.285156 0.125 2.742188 0.0234375 2.265625 -0.171875 C 1.785156 -0.378906 1.40625 -0.664062 1.125 -1.03125 C 0.851562 -1.40625 0.703125 -1.832031 0.671875 -2.3125 L 2.015625 -2.3125 C 2.054688 -1.914062 2.238281 -1.59375 2.5625 -1.34375 C 2.894531 -1.09375 3.332031 -0.96875 3.875 -0.96875 C 4.363281 -0.96875 4.75 -1.078125 5.03125 -1.296875 C 5.320312 -1.523438 5.46875 -1.804688 5.46875 -2.140625 C 5.46875 -2.484375 5.316406 -2.738281 5.015625 -2.90625 C 4.710938 -3.070312 4.238281 -3.234375 3.59375 -3.390625 C 3.007812 -3.546875 2.535156 -3.703125 2.171875 -3.859375 C 1.804688 -4.015625 1.488281 -4.25 1.21875 -4.5625 C 0.957031 -4.875 0.828125 -5.28125 0.828125 -5.78125 C 0.828125 -6.1875 0.945312 -6.554688 1.1875 -6.890625 C 1.425781 -7.222656 1.765625 -7.488281 2.203125 -7.6875 C 2.640625 -7.882812 3.144531 -7.984375 3.71875 -7.984375 C 4.582031 -7.984375 5.28125 -7.757812 5.8125 -7.3125 C 6.351562 -6.875 6.640625 -6.273438 6.671875 -5.515625 L 5.375 -5.515625 C 5.34375 -5.921875 5.175781 -6.25 4.875 -6.5 C 4.570312 -6.75 4.171875 -6.875 3.671875 -6.875 C 3.203125 -6.875 2.828125 -6.773438 2.546875 -6.578125 C 2.273438 -6.378906 2.140625 -6.113281 2.140625 -5.78125 C 2.140625 -5.53125 2.222656 -5.320312 2.390625 -5.15625 C 2.554688 -4.988281 2.765625 -4.851562 3.015625 -4.75 C 3.265625 -4.644531 3.613281 -4.53125 4.0625 -4.40625 C 4.632812 -4.257812 5.09375 -4.109375 5.4375 -3.953125 C 5.789062 -3.804688 6.09375 -3.582031 6.34375 -3.28125 C 6.601562 -2.988281 6.738281 -2.609375 6.75 -2.140625 C 6.75 -1.703125 6.628906 -1.3125 6.390625 -0.96875 C 6.148438 -0.625 5.8125 -0.351562 5.375 -0.15625 C 4.945312 0.03125 4.453125 0.125 3.890625 0.125 Z M 3.890625 0.125 "/></g></g><g style="fill:#000000;fill-opacity:1;"><g transform="translate(44.742695, 184.147822)"><path style="stroke:none" d="M 8.265625 -4.234375 C 8.265625 -3.984375 8.25 -3.71875 8.21875 -3.4375 L 1.953125 -3.4375 C 1.992188 -2.664062 2.253906 -2.0625 2.734375 -1.625 C 3.222656 -1.1875 3.8125 -0.96875 4.5 -0.96875 C 5.0625 -0.96875 5.53125 -1.097656 5.90625 -1.359375 C 6.28125 -1.628906 6.546875 -1.984375 6.703125 -2.421875 L 8.109375 -2.421875 C 7.898438 -1.671875 7.476562 -1.054688 6.84375 -0.578125 C 6.21875 -0.109375 5.4375 0.125 4.5 0.125 C 3.75 0.125 3.082031 -0.0390625 2.5 -0.375 C 1.914062 -0.707031 1.453125 -1.179688 1.109375 -1.796875 C 0.773438 -2.410156 0.609375 -3.125 0.609375 -3.9375 C 0.609375 -4.75 0.769531 -5.457031 1.09375 -6.0625 C 1.425781 -6.675781 1.882812 -7.148438 2.46875 -7.484375 C 3.0625 -7.816406 3.738281 -7.984375 4.5 -7.984375 C 5.238281 -7.984375 5.894531 -7.816406 6.46875 -7.484375 C 7.050781 -7.160156 7.492188 -6.710938 7.796875 -6.140625 C 8.109375 -5.578125 8.265625 -4.941406 8.265625 -4.234375 Z M 6.921875 -4.5 C 6.921875 -5 6.8125 -5.425781 6.59375 -5.78125 C 6.375 -6.132812 6.070312 -6.40625 5.6875 -6.59375 C 5.3125 -6.78125 4.894531 -6.875 4.4375 -6.875 C 3.78125 -6.875 3.21875 -6.660156 2.75 -6.234375 C 2.289062 -5.816406 2.03125 -5.238281 1.96875 -4.5 Z M 5.84375 -10.078125 L 2.796875 -8.4375 L 2.796875 -9.40625 L 5.84375 -11.203125 Z M 5.84375 -10.078125 "/></g></g><g style="fill:#000000;fill-opacity:1;"><g transform="translate(53.626029, 184.147822)"><path style="stroke:none" d="M 0.609375 -3.9375 C 0.609375 -4.75 0.769531 -5.457031 1.09375 -6.0625 C 1.425781 -6.675781 1.878906 -7.148438 2.453125 -7.484375 C 3.035156 -7.816406 3.695312 -7.984375 4.4375 -7.984375 C 5.40625 -7.984375 6.203125 -7.75 6.828125 -7.28125 C 7.453125 -6.8125 7.863281 -6.160156 8.0625 -5.328125 L 6.65625 -5.328125 C 6.53125 -5.804688 6.269531 -6.179688 5.875 -6.453125 C 5.488281 -6.734375 5.007812 -6.875 4.4375 -6.875 C 3.695312 -6.875 3.097656 -6.617188 2.640625 -6.109375 C 2.179688 -5.597656 1.953125 -4.875 1.953125 -3.9375 C 1.953125 -2.988281 2.179688 -2.253906 2.640625 -1.734375 C 3.097656 -1.222656 3.695312 -0.96875 4.4375 -0.96875 C 5.007812 -0.96875 5.488281 -1.101562 5.875 -1.375 C 6.257812 -1.644531 6.519531 -2.023438 6.65625 -2.515625 L 8.0625 -2.515625 C 7.851562 -1.710938 7.429688 -1.070312 6.796875 -0.59375 C 6.171875 -0.113281 5.382812 0.125 4.4375 0.125 C 3.695312 0.125 3.035156 -0.0390625 2.453125 -0.375 C 1.878906 -0.707031 1.425781 -1.175781 1.09375 -1.78125 C 0.769531 -2.394531 0.609375 -3.113281 0.609375 -3.9375 Z M 0.609375 -3.9375 "/></g></g><g style="fill:#000000;fill-opacity:1;"><g transform="translate(62.323098, 184.147822)"><path style="stroke:none" d="M 8.0625 -7.859375 L 8.0625 0 L 6.765625 0 L 6.765625 -1.15625 C 6.515625 -0.757812 6.164062 -0.445312 5.71875 -0.21875 C 5.28125 0 4.789062 0.109375 4.25 0.109375 C 3.644531 0.109375 3.097656 -0.015625 2.609375 -0.265625 C 2.117188 -0.515625 1.734375 -0.890625 1.453125 -1.390625 C 1.171875 -1.898438 1.03125 -2.519531 1.03125 -3.25 L 1.03125 -7.859375 L 2.328125 -7.859375 L 2.328125 -3.421875 C 2.328125 -2.648438 2.519531 -2.054688 2.90625 -1.640625 C 3.300781 -1.222656 3.835938 -1.015625 4.515625 -1.015625 C 5.210938 -1.015625 5.757812 -1.226562 6.15625 -1.65625 C 6.5625 -2.09375 6.765625 -2.722656 6.765625 -3.546875 L 6.765625 -7.859375 Z M 8.0625 -7.859375 "/></g></g><g style="fill:#000000;fill-opacity:1;"><g transform="translate(71.492993, 184.147822)"><path style="stroke:none" d="M 2.40625 -6.578125 C 2.632812 -7.023438 2.960938 -7.375 3.390625 -7.625 C 3.816406 -7.875 4.332031 -8 4.9375 -8 L 4.9375 -6.640625 L 4.59375 -6.640625 C 3.132812 -6.640625 2.40625 -5.847656 2.40625 -4.265625 L 2.40625 0 L 1.109375 0 L 1.109375 -7.859375 L 2.40625 -7.859375 Z M 2.40625 -6.578125 "/></g></g><g style="fill:#000000;fill-opacity:1;"><g transform="translate(76.837318, 184.147822)"><path style="stroke:none" d="M 1.78125 -9.125 C 1.53125 -9.125 1.316406 -9.207031 1.140625 -9.375 C 0.972656 -9.550781 0.890625 -9.765625 0.890625 -10.015625 C 0.890625 -10.265625 0.972656 -10.472656 1.140625 -10.640625 C 1.316406 -10.816406 1.53125 -10.90625 1.78125 -10.90625 C 2.019531 -10.90625 2.222656 -10.816406 2.390625 -10.640625 C 2.554688 -10.472656 2.640625 -10.265625 2.640625 -10.015625 C 2.640625 -9.765625 2.554688 -9.550781 2.390625 -9.375 C 2.222656 -9.207031 2.019531 -9.125 1.78125 -9.125 Z M 2.40625 -7.859375 L 2.40625 0 L 1.109375 0 L 1.109375 -7.859375 Z M 2.40625 -7.859375 "/></g></g><g style="fill:#000000;fill-opacity:1;"><g transform="translate(80.362, 184.147822)"><path style="stroke:none" d="M 2.6875 -6.78125 L 2.6875 -2.15625 C 2.6875 -1.769531 2.769531 -1.5 2.9375 -1.34375 C 3.101562 -1.1875 3.382812 -1.109375 3.78125 -1.109375 L 4.75 -1.109375 L 4.75 0 L 3.5625 0 C 2.84375 0 2.300781 -0.164062 1.9375 -0.5 C 1.570312 -0.832031 1.390625 -1.382812 1.390625 -2.15625 L 1.390625 -6.78125 L 0.375 -6.78125 L 0.375 -7.859375 L 1.390625 -7.859375 L 1.390625 -9.828125 L 2.6875 -9.828125 L 2.6875 -7.859375 L 4.75 -7.859375 L 4.75 -6.78125 Z M 2.6875 -6.78125 "/></g></g><g style="fill:#000000;fill-opacity:1;"><g transform="translate(85.577377, 184.147822)"><path style="stroke:none" d="M 8.265625 -4.234375 C 8.265625 -3.984375 8.25 -3.71875 8.21875 -3.4375 L 1.953125 -3.4375 C 1.992188 -2.664062 2.253906 -2.0625 2.734375 -1.625 C 3.222656 -1.1875 3.8125 -0.96875 4.5 -0.96875 C 5.0625 -0.96875 5.53125 -1.097656 5.90625 -1.359375 C 6.28125 -1.628906 6.546875 -1.984375 6.703125 -2.421875 L 8.109375 -2.421875 C 7.898438 -1.671875 7.476562 -1.054688 6.84375 -0.578125 C 6.21875 -0.109375 5.4375 0.125 4.5 0.125 C 3.75 0.125 3.082031 -0.0390625 2.5 -0.375 C 1.914062 -0.707031 1.453125 -1.179688 1.109375 -1.796875 C 0.773438 -2.410156 0.609375 -3.125 0.609375 -3.9375 C 0.609375 -4.75 0.769531 -5.457031 1.09375 -6.0625 C 1.425781 -6.675781 1.882812 -7.148438 2.46875 -7.484375 C 3.0625 -7.816406 3.738281 -7.984375 4.5 -7.984375 C 5.238281 -7.984375 5.894531 -7.816406 6.46875 -7.484375 C 7.050781 -7.160156 7.492188 -6.710938 7.796875 -6.140625 C 8.109375 -5.578125 8.265625 -4.941406 8.265625 -4.234375 Z M 6.921875 -4.5 C 6.921875 -5 6.8125 -5.425781 6.59375 -5.78125 C 6.375 -6.132812 6.070312 -6.40625 5.6875 -6.59375 C 5.3125 -6.78125 4.894531 -6.875 4.4375 -6.875 C 3.78125 -6.875 3.21875 -6.660156 2.75 -6.234375 C 2.289062 -5.816406 2.03125 -5.238281 1.96875 -4.5 Z M 5.84375 -10.078125 L 2.796875 -8.4375 L 2.796875 -9.40625 L 5.84375 -11.203125 Z M 5.84375 -10.078125 "/></g></g><g style="fill:#000000;fill-opacity:1;"><g transform="translate(94.460712, 184.147822)"><path style="stroke:none" d=""/></g></g><g style="fill:#000000;fill-opacity:1;"><g transform="translate(98.286281, 184.147822)"><path style="stroke:none" d="M 2.40625 -6.578125 C 2.632812 -7.023438 2.960938 -7.375 3.390625 -7.625 C 3.816406 -7.875 4.332031 -8 4.9375 -8 L 4.9375 -6.640625 L 4.59375 -6.640625 C 3.132812 -6.640625 2.40625 -5.847656 2.40625 -4.265625 L 2.40625 0 L 1.109375 0 L 1.109375 -7.859375 L 2.40625 -7.859375 Z M 2.40625 -6.578125 "/></g></g><g style="fill:#000000;fill-opacity:1;"><g transform="translate(103.630606, 184.147822)"><path style="stroke:none" d="M 4.53125 0.125 C 3.789062 0.125 3.125 -0.0390625 2.53125 -0.375 C 1.9375 -0.707031 1.46875 -1.179688 1.125 -1.796875 C 0.78125 -2.410156 0.609375 -3.125 0.609375 -3.9375 C 0.609375 -4.738281 0.78125 -5.445312 1.125 -6.0625 C 1.476562 -6.675781 1.957031 -7.148438 2.5625 -7.484375 C 3.164062 -7.816406 3.835938 -7.984375 4.578125 -7.984375 C 5.328125 -7.984375 6.003906 -7.816406 6.609375 -7.484375 C 7.210938 -7.148438 7.6875 -6.675781 8.03125 -6.0625 C 8.375 -5.457031 8.546875 -4.75 8.546875 -3.9375 C 8.546875 -3.125 8.367188 -2.410156 8.015625 -1.796875 C 7.660156 -1.179688 7.175781 -0.707031 6.5625 -0.375 C 5.945312 -0.0390625 5.269531 0.125 4.53125 0.125 Z M 4.53125 -1.015625 C 5 -1.015625 5.4375 -1.125 5.84375 -1.34375 C 6.257812 -1.5625 6.59375 -1.890625 6.84375 -2.328125 C 7.09375 -2.773438 7.21875 -3.3125 7.21875 -3.9375 C 7.21875 -4.570312 7.09375 -5.109375 6.84375 -5.546875 C 6.59375 -5.984375 6.265625 -6.304688 5.859375 -6.515625 C 5.460938 -6.734375 5.035156 -6.84375 4.578125 -6.84375 C 4.097656 -6.84375 3.660156 -6.734375 3.265625 -6.515625 C 2.867188 -6.304688 2.550781 -5.984375 2.3125 -5.546875 C 2.070312 -5.109375 1.953125 -4.570312 1.953125 -3.9375 C 1.953125 -3.300781 2.066406 -2.757812 2.296875 -2.3125 C 2.535156 -1.875 2.847656 -1.546875 3.234375 -1.328125 C 3.628906 -1.117188 4.0625 -1.015625 4.53125 -1.015625 Z M 4.53125 -1.015625 "/></g></g><g style="fill:#000000;fill-opacity:1;"><g transform="translate(112.800501, 184.147822)"><path style="stroke:none" d="M 8.0625 -7.859375 L 8.0625 0 L 6.765625 0 L 6.765625 -1.15625 C 6.515625 -0.757812 6.164062 -0.445312 5.71875 -0.21875 C 5.28125 0 4.789062 0.109375 4.25 0.109375 C 3.644531 0.109375 3.097656 -0.015625 2.609375 -0.265625 C 2.117188 -0.515625 1.734375 -0.890625 1.453125 -1.390625 C 1.171875 -1.898438 1.03125 -2.519531 1.03125 -3.25 L 1.03125 -7.859375 L 2.328125 -7.859375 L 2.328125 -3.421875 C 2.328125 -2.648438 2.519531 -2.054688 2.90625 -1.640625 C 3.300781 -1.222656 3.835938 -1.015625 4.515625 -1.015625 C 5.210938 -1.015625 5.757812 -1.226562 6.15625 -1.65625 C 6.5625 -2.09375 6.765625 -2.722656 6.765625 -3.546875 L 6.765625 -7.859375 Z M 8.0625 -7.859375 "/></g></g><g style="fill:#000000;fill-opacity:1;"><g transform="translate(121.970395, 184.147822)"><path style="stroke:none" d="M 2.6875 -6.78125 L 2.6875 -2.15625 C 2.6875 -1.769531 2.769531 -1.5 2.9375 -1.34375 C 3.101562 -1.1875 3.382812 -1.109375 3.78125 -1.109375 L 4.75 -1.109375 L 4.75 0 L 3.5625 0 C 2.84375 0 2.300781 -0.164062 1.9375 -0.5 C 1.570312 -0.832031 1.390625 -1.382812 1.390625 -2.15625 L 1.390625 -6.78125 L 0.375 -6.78125 L 0.375 -7.859375 L 1.390625 -7.859375 L 1.390625 -9.828125 L 2.6875 -9.828125 L 2.6875 -7.859375 L 4.75 -7.859375 L 4.75 -6.78125 Z M 2.6875 -6.78125 "/></g></g><g style="fill:#000000;fill-opacity:1;"><g transform="translate(127.185772, 184.147822)"><path style="stroke:none" d="M 1.78125 -9.125 C 1.53125 -9.125 1.316406 -9.207031 1.140625 -9.375 C 0.972656 -9.550781 0.890625 -9.765625 0.890625 -10.015625 C 0.890625 -10.265625 0.972656 -10.472656 1.140625 -10.640625 C 1.316406 -10.816406 1.53125 -10.90625 1.78125 -10.90625 C 2.019531 -10.90625 2.222656 -10.816406 2.390625 -10.640625 C 2.554688 -10.472656 2.640625 -10.265625 2.640625 -10.015625 C 2.640625 -9.765625 2.554688 -9.550781 2.390625 -9.375 C 2.222656 -9.207031 2.019531 -9.125 1.78125 -9.125 Z M 2.40625 -7.859375 L 2.40625 0 L 1.109375 0 L 1.109375 -7.859375 Z M 2.40625 -7.859375 "/></g></g><g style="fill:#000000;fill-opacity:1;"><g transform="translate(130.710454, 184.147822)"><path style="stroke:none" d="M 8.265625 -4.234375 C 8.265625 -3.984375 8.25 -3.71875 8.21875 -3.4375 L 1.953125 -3.4375 C 1.992188 -2.664062 2.253906 -2.0625 2.734375 -1.625 C 3.222656 -1.1875 3.8125 -0.96875 4.5 -0.96875 C 5.0625 -0.96875 5.53125 -1.097656 5.90625 -1.359375 C 6.28125 -1.628906 6.546875 -1.984375 6.703125 -2.421875 L 8.109375 -2.421875 C 7.898438 -1.671875 7.476562 -1.054688 6.84375 -0.578125 C 6.21875 -0.109375 5.4375 0.125 4.5 0.125 C 3.75 0.125 3.082031 -0.0390625 2.5 -0.375 C 1.914062 -0.707031 1.453125 -1.179688 1.109375 -1.796875 C 0.773438 -2.410156 0.609375 -3.125 0.609375 -3.9375 C 0.609375 -4.75 0.769531 -5.457031 1.09375 -6.0625 C 1.425781 -6.675781 1.882812 -7.148438 2.46875 -7.484375 C 3.0625 -7.816406 3.738281 -7.984375 4.5 -7.984375 C 5.238281 -7.984375 5.894531 -7.816406 6.46875 -7.484375 C 7.050781 -7.160156 7.492188 -6.710938 7.796875 -6.140625 C 8.109375 -5.578125 8.265625 -4.941406 8.265625 -4.234375 Z M 6.921875 -4.5 C 6.921875 -5 6.8125 -5.425781 6.59375 -5.78125 C 6.375 -6.132812 6.070312 -6.40625 5.6875 -6.59375 C 5.3125 -6.78125 4.894531 -6.875 4.4375 -6.875 C 3.78125 -6.875 3.21875 -6.660156 2.75 -6.234375 C 2.289062 -5.816406 2.03125 -5.238281 1.96875 -4.5 Z M 5.84375 -9.40625 L 5.84375 -8.4375 L 2.796875 -10.078125 L 2.796875 -11.203125 Z M 5.84375 -9.40625 "/></g></g><g style="fill:#000000;fill-opacity:1;"><g transform="translate(139.593789, 184.147822)"><path style="stroke:none" d="M 2.40625 -6.578125 C 2.632812 -7.023438 2.960938 -7.375 3.390625 -7.625 C 3.816406 -7.875 4.332031 -8 4.9375 -8 L 4.9375 -6.640625 L 4.59375 -6.640625 C 3.132812 -6.640625 2.40625 -5.847656 2.40625 -4.265625 L 2.40625 0 L 1.109375 0 L 1.109375 -7.859375 L 2.40625 -7.859375 Z M 2.40625 -6.578125 "/></g></g><g style="fill:#000000;fill-opacity:1;"><g transform="translate(144.938107, 184.147822)"><path style="stroke:none" d="M 8.265625 -4.234375 C 8.265625 -3.984375 8.25 -3.71875 8.21875 -3.4375 L 1.953125 -3.4375 C 1.992188 -2.664062 2.253906 -2.0625 2.734375 -1.625 C 3.222656 -1.1875 3.8125 -0.96875 4.5 -0.96875 C 5.0625 -0.96875 5.53125 -1.097656 5.90625 -1.359375 C 6.28125 -1.628906 6.546875 -1.984375 6.703125 -2.421875 L 8.109375 -2.421875 C 7.898438 -1.671875 7.476562 -1.054688 6.84375 -0.578125 C 6.21875 -0.109375 5.4375 0.125 4.5 0.125 C 3.75 0.125 3.082031 -0.0390625 2.5 -0.375 C 1.914062 -0.707031 1.453125 -1.179688 1.109375 -1.796875 C 0.773438 -2.410156 0.609375 -3.125 0.609375 -3.9375 C 0.609375 -4.75 0.769531 -5.457031 1.09375 -6.0625 C 1.425781 -6.675781 1.882812 -7.148438 2.46875 -7.484375 C 3.0625 -7.816406 3.738281 -7.984375 4.5 -7.984375 C 5.238281 -7.984375 5.894531 -7.816406 6.46875 -7.484375 C 7.050781 -7.160156 7.492188 -6.710938 7.796875 -6.140625 C 8.109375 -5.578125 8.265625 -4.941406 8.265625 -4.234375 Z M 6.921875 -4.5 C 6.921875 -5 6.8125 -5.425781 6.59375 -5.78125 C 6.375 -6.132812 6.070312 -6.40625 5.6875 -6.59375 C 5.3125 -6.78125 4.894531 -6.875 4.4375 -6.875 C 3.78125 -6.875 3.21875 -6.660156 2.75 -6.234375 C 2.289062 -5.816406 2.03125 -5.238281 1.96875 -4.5 Z M 6.921875 -4.5 "/></g></g></g></svg>