<svg xmlns="http://www.w3.org/2000/svg" xmlns:xlink="http://www.w3.org/1999/xlink" width="198" zoomAndPan="magnify" viewBox="0 0 148.5 197.999996" height="264" preserveAspectRatio="xMidYMid meet" version="1.2"><defs><clipPath id="5fd781e4a8"><path d="M 84.769531 93.535156 L 119.902344 93.535156 L 119.902344 126.425781 L 84.769531 126.425781 Z M 84.769531 93.535156 "/></clipPath><clipPath id="0d08cbeee8"><path d="M 14 0.332031 L 133 0.332031 L 133 33 L 14 33 Z M 14 0.332031 "/></clipPath><clipPath id="1396430838"><path d="M 29 44 L 43 44 L 43 93.769531 L 29 93.769531 Z M 29 44 "/></clipPath><clipPath id="1fffd1ee18"><path d="M 54 44 L 69 44 L 69 93.769531 L 54 93.769531 Z M 54 44 "/></clipPath><clipPath id="c7048baa56"><path d="M 79 44 L 94 44 L 94 93.769531 L 79 93.769531 Z M 79 44 "/></clipPath><clipPath id="0ef9c5d1d5"><path d="M 104 44 L 119 44 L 119 93.769531 L 104 93.769531 Z M 104 44 "/></clipPath><clipPath id="686614600d"><path d="M 29 91.816406 L 43 91.816406 L 43 102 L 29 102 Z M 29 91.816406 "/></clipPath><clipPath id="4db88a39dc"><path d="M 54 91.816406 L 69 91.816406 L 69 102 L 54 102 Z M 54 91.816406 "/></clipPath><clipPath id="d9941be541"><path d="M 79 91.816406 L 84.648438 91.816406 L 84.648438 102 L 79 102 Z M 79 91.816406 "/></clipPath><clipPath id="891761565f"><path d="M 7.65625 103 L 84.648438 103 L 84.648438 126 L 7.65625 126 Z M 7.65625 103 "/></clipPath></defs><g id="6300788170"><g clip-rule="nonzero" clip-path="url(#5fd781e4a8)"><path style=" stroke:none;fill-rule:nonzero;fill:#000000;fill-opacity:1;" d="M 102.296875 93.636719 C 102.289062 93.695312 102.253906 94.058594 102.226562 94.441406 C 101.996094 97.289062 101.914062 97.894531 101.695312 98.339844 C 101.570312 98.589844 101.519531 98.589844 101.242188 98.332031 C 100.640625 97.769531 100.101562 97.496094 99.25 97.332031 C 98.894531 97.261719 98.808594 97.257812 98.167969 97.253906 C 97.4375 97.253906 97.246094 97.269531 96.574219 97.390625 C 95.902344 97.519531 95.273438 97.6875 93.859375 98.128906 C 92.695312 98.492188 92.085938 98.65625 91.433594 98.785156 C 90.738281 98.921875 90.109375 98.984375 89.914062 98.933594 C 89.816406 98.910156 89.789062 98.910156 89.746094 98.953125 C 89.71875 98.976562 89.6875 99.03125 89.675781 99.078125 C 89.664062 99.140625 89.78125 100.441406 89.816406 100.605469 C 89.828125 100.667969 89.832031 100.667969 90.292969 100.667969 C 90.550781 100.667969 90.761719 100.679688 90.773438 100.691406 C 90.789062 100.71875 85.402344 115.347656 85.339844 115.445312 C 85.304688 115.503906 85.28125 115.507812 85.042969 115.507812 L 84.785156 115.507812 L 84.933594 115.722656 C 85.511719 116.542969 86.488281 117.292969 87.835938 117.953125 C 89.484375 118.757812 91.480469 118.90625 93.433594 118.371094 C 94.6875 118.027344 95.644531 117.410156 97.164062 115.960938 L 97.625 115.519531 L 97.328125 115.507812 C 97.109375 115.496094 97.027344 115.484375 97.007812 115.453125 C 96.941406 115.339844 91.582031 100.734375 91.59375 100.707031 C 91.609375 100.671875 92.417969 100.667969 96.726562 100.667969 C 101.195312 100.667969 101.84375 100.671875 101.859375 100.707031 C 101.867188 100.730469 101.855469 101.324219 101.832031 102.03125 C 101.804688 102.734375 101.761719 104.023438 101.730469 104.890625 C 101.703125 105.757812 101.667969 106.824219 101.648438 107.265625 C 101.636719 107.699219 101.609375 108.425781 101.59375 108.871094 C 101.578125 109.3125 101.554688 110.035156 101.539062 110.472656 C 101.511719 111.253906 101.457031 112.867188 101.347656 116.082031 C 101.316406 116.980469 101.28125 118.046875 101.265625 118.457031 C 101.191406 120.503906 101.1875 120.351562 101.351562 121.226562 C 101.398438 121.46875 101.441406 121.800781 101.449219 121.96875 C 101.476562 122.53125 101.378906 122.769531 100.9375 123.21875 C 100.617188 123.539062 100.265625 123.8125 99.816406 124.085938 C 98.460938 124.902344 96.300781 125.671875 93.894531 126.191406 C 93.582031 126.261719 93.296875 126.324219 93.265625 126.328125 C 93.230469 126.335938 93.203125 126.363281 93.203125 126.382812 C 93.203125 126.417969 94.289062 126.425781 102.335938 126.425781 C 110.382812 126.425781 111.46875 126.417969 111.46875 126.382812 C 111.46875 126.363281 111.441406 126.335938 111.410156 126.328125 C 111.371094 126.324219 111.085938 126.261719 110.769531 126.191406 C 108.785156 125.761719 106.953125 125.15625 105.597656 124.476562 C 104.796875 124.078125 104.222656 123.683594 103.769531 123.226562 C 103.550781 123.003906 103.472656 122.898438 103.386719 122.734375 L 103.28125 122.519531 L 103.28125 122.105469 C 103.285156 121.746094 103.296875 121.636719 103.371094 121.277344 C 103.535156 120.507812 103.546875 120.359375 103.515625 119.5 C 103.5 119.078125 103.460938 117.996094 103.433594 117.097656 C 103.402344 116.203125 103.367188 115.121094 103.351562 114.699219 C 103.332031 114.277344 103.296875 113.195312 103.269531 112.296875 C 103.238281 111.402344 103.203125 110.320312 103.1875 109.898438 C 103.167969 109.476562 103.132812 108.390625 103.101562 107.484375 C 103.074219 106.578125 103.039062 105.523438 103.019531 105.140625 C 102.9375 102.882812 102.875 100.753906 102.890625 100.714844 C 102.910156 100.671875 103.195312 100.667969 107.972656 100.667969 C 112.949219 100.667969 113.03125 100.667969 113.03125 100.71875 C 113.03125 100.78125 107.636719 115.421875 107.597656 115.472656 C 107.578125 115.496094 107.484375 115.507812 107.324219 115.507812 C 107.191406 115.507812 107.082031 115.519531 107.082031 115.53125 C 107.082031 115.574219 107.386719 115.980469 107.585938 116.203125 C 108.105469 116.785156 109.3125 117.613281 110.257812 118.035156 C 111.851562 118.746094 113.703125 118.878906 115.527344 118.414062 C 116.714844 118.117188 117.6875 117.550781 118.875 116.476562 C 119.0625 116.304688 119.371094 116.019531 119.558594 115.839844 L 119.902344 115.511719 L 119.613281 115.507812 C 119.410156 115.507812 119.308594 115.496094 119.292969 115.472656 C 119.25 115.421875 113.855469 100.78125 113.855469 100.71875 C 113.855469 100.671875 113.882812 100.667969 114.347656 100.667969 C 114.835938 100.667969 114.84375 100.667969 114.851562 100.605469 C 114.890625 100.441406 115.007812 99.128906 114.992188 99.066406 C 114.960938 98.945312 114.890625 98.902344 114.753906 98.929688 C 114.457031 98.992188 113.25 98.722656 111.113281 98.117188 C 108.605469 97.410156 107.660156 97.246094 106.308594 97.273438 C 105.621094 97.289062 105.261719 97.332031 104.863281 97.445312 C 104.308594 97.605469 103.960938 97.816406 103.507812 98.25 C 103.257812 98.488281 103.203125 98.53125 103.140625 98.523438 C 103.078125 98.515625 103.046875 98.484375 102.988281 98.378906 C 102.78125 97.992188 102.660156 97.191406 102.5 95.140625 C 102.382812 93.628906 102.375 93.535156 102.335938 93.535156 C 102.320312 93.535156 102.304688 93.582031 102.296875 93.636719 Z M 93.800781 108.421875 C 95.222656 112.277344 96.378906 115.449219 96.371094 115.472656 C 96.359375 115.503906 95.503906 115.507812 91.179688 115.503906 C 86.332031 115.492188 86.003906 115.492188 85.992188 115.445312 C 85.988281 115.410156 88.839844 107.644531 91.121094 101.46875 C 91.132812 101.4375 91.160156 101.40625 91.175781 101.40625 C 91.203125 101.40625 92.183594 104.039062 93.800781 108.421875 Z M 116.058594 108.402344 C 117.472656 112.238281 118.632812 115.402344 118.636719 115.4375 L 118.640625 115.492188 L 113.472656 115.5 C 110.625 115.503906 108.285156 115.496094 108.265625 115.484375 C 108.234375 115.464844 108.804688 113.898438 110.8125 108.457031 C 112.230469 104.601562 113.398438 101.4375 113.40625 101.425781 C 113.417969 101.417969 113.433594 101.410156 113.453125 101.417969 C 113.472656 101.421875 114.640625 104.566406 116.058594 108.402344 Z M 116.058594 108.402344 "/></g><g clip-rule="nonzero" clip-path="url(#0d08cbeee8)"><path style=" stroke:none;fill-rule:nonzero;fill:#000000;fill-opacity:1;" d="M 44.453125 14.277344 C 28.339844 21.863281 15.066406 28.128906 14.972656 28.191406 C 14.808594 28.285156 14.789062 28.511719 14.789062 30.460938 L 14.789062 32.625 L 132.828125 32.625 L 132.828125 30.46875 C 132.828125 28.871094 132.796875 28.292969 132.703125 28.222656 C 132.582031 28.128906 74.191406 0.621094 73.902344 0.515625 C 73.820312 0.496094 60.566406 6.679688 44.453125 14.277344 Z M 44.453125 14.277344 "/></g><path style=" stroke:none;fill-rule:nonzero;fill:#000000;fill-opacity:1;" d="M 26.210938 35.027344 C 26.179688 35.085938 26.167969 36.726562 26.179688 38.652344 L 26.210938 42.160156 L 121.40625 42.160156 L 121.40625 34.941406 L 73.828125 34.914062 C 35.6875 34.890625 26.242188 34.914062 26.210938 35.027344 Z M 26.210938 35.027344 "/><g clip-rule="nonzero" clip-path="url(#1396430838)"><path style=" stroke:none;fill-rule:nonzero;fill:#000000;fill-opacity:1;" d="M 30.5625 44.601562 C 30.53125 44.671875 30.46875 47.074219 30.40625 49.941406 C 30.335938 52.804688 30.242188 56.855469 30.191406 58.960938 C 30.136719 61.050781 30.042969 64.667969 29.984375 67 C 29.921875 69.316406 29.828125 73.058594 29.777344 75.296875 C 29.722656 77.535156 29.632812 81.265625 29.570312 83.59375 C 29.507812 85.914062 29.414062 89.53125 29.363281 91.632812 C 29.3125 93.726562 29.226562 96.941406 29.199219 98.765625 L 29.125 102.097656 L 42.832031 102.097656 L 42.757812 100.3125 C 42.726562 99.34375 42.644531 96.871094 42.59375 94.828125 C 42.53125 92.789062 42.4375 89.542969 42.386719 87.613281 C 42.324219 85.6875 42.054688 75.964844 41.765625 66.019531 C 41.488281 56.074219 41.230469 47.15625 41.1875 46.199219 L 41.125 44.476562 L 35.863281 44.476562 C 31.738281 44.476562 30.59375 44.507812 30.5625 44.601562 Z M 30.5625 44.601562 "/></g><g clip-rule="nonzero" clip-path="url(#1fffd1ee18)"><path style=" stroke:none;fill-rule:nonzero;fill:#000000;fill-opacity:1;" d="M 55.78125 45.21875 C 55.75 45.632812 55.679688 48.105469 55.617188 50.714844 C 55.511719 55.167969 54.8125 83.65625 54.582031 92.253906 C 54.53125 94.40625 54.449219 97.5 54.417969 99.136719 L 54.34375 102.097656 L 68.019531 102.097656 L 68.019531 101.601562 C 68.019531 101.332031 67.949219 98.796875 67.867188 95.960938 C 67.78125 93.128906 67.667969 89.140625 67.605469 87.097656 C 67.503906 83.550781 67.410156 80.410156 67.195312 72.667969 C 67.140625 70.742188 67.046875 67.492188 66.988281 65.453125 C 66.925781 63.410156 66.832031 60.1875 66.78125 58.289062 C 66.726562 56.394531 66.636719 53.074219 66.574219 50.917969 C 66.523438 48.765625 66.4375 46.4375 66.40625 45.734375 L 66.347656 44.476562 L 55.84375 44.476562 Z M 55.78125 45.21875 "/></g><g clip-rule="nonzero" clip-path="url(#c7048baa56)"><path style=" stroke:none;fill-rule:nonzero;fill:#000000;fill-opacity:1;" d="M 81.003906 45.839844 C 80.972656 46.589844 80.890625 49.230469 80.835938 51.691406 C 80.773438 54.15625 80.683594 57.980469 80.628906 60.195312 C 80.578125 62.402344 80.484375 66.082031 80.425781 68.359375 C 80.371094 70.648438 80.277344 74.359375 80.21875 76.605469 C 80.164062 78.863281 80.074219 82.605469 80.011719 84.933594 C 79.949219 87.253906 79.855469 90.941406 79.804688 93.128906 C 79.753906 95.3125 79.667969 98.21875 79.636719 99.589844 L 79.566406 102.097656 L 93.242188 102.097656 L 93.242188 101.703125 C 93.25 100.753906 91.679688 45.695312 91.628906 45.117188 L 91.566406 44.476562 L 81.066406 44.476562 Z M 81.003906 45.839844 "/></g><g clip-rule="nonzero" clip-path="url(#0ef9c5d1d5)"><path style=" stroke:none;fill-rule:nonzero;fill:#000000;fill-opacity:1;" d="M 106.222656 46.457031 C 106.183594 47.550781 106.109375 50.3125 106.058594 52.589844 C 105.996094 54.878906 105.914062 58.597656 105.851562 60.867188 C 105.800781 63.132812 105.707031 66.84375 105.644531 69.113281 C 105.59375 71.378906 105.5 75.089844 105.4375 77.359375 C 105.386719 79.625 105.292969 83.335938 105.230469 85.605469 C 105.179688 87.871094 105.085938 91.59375 105.023438 93.871094 C 104.972656 96.160156 104.898438 98.941406 104.859375 100.066406 L 104.785156 102.097656 L 118.460938 102.097656 L 118.460938 101.496094 C 118.472656 100.488281 116.890625 44.746094 116.847656 44.601562 C 116.816406 44.507812 115.671875 44.476562 111.558594 44.476562 L 106.285156 44.476562 Z M 106.222656 46.457031 "/></g><g clip-rule="nonzero" clip-path="url(#686614600d)"><path style=" stroke:none;fill-rule:nonzero;fill:#000000;fill-opacity:1;" d="M 30.5625 43.972656 C 30.53125 44.046875 30.46875 46.449219 30.40625 49.3125 C 30.335938 52.179688 30.242188 56.230469 30.191406 58.332031 C 30.136719 60.425781 30.042969 64.042969 29.984375 66.371094 C 29.921875 68.691406 29.828125 72.433594 29.777344 74.667969 C 29.722656 76.90625 29.632812 80.636719 29.570312 82.96875 C 29.507812 85.285156 29.414062 88.902344 29.363281 91.007812 C 29.3125 93.097656 29.226562 96.316406 29.199219 98.140625 L 29.125 101.46875 L 42.832031 101.46875 L 42.757812 99.6875 C 42.726562 98.71875 42.644531 96.242188 42.59375 94.203125 C 42.53125 92.160156 42.4375 88.914062 42.386719 86.988281 C 42.324219 85.058594 42.054688 75.339844 41.765625 65.394531 C 41.488281 55.445312 41.230469 46.53125 41.1875 45.570312 L 41.125 43.851562 L 35.863281 43.851562 C 31.738281 43.851562 30.59375 43.882812 30.5625 43.972656 Z M 30.5625 43.972656 "/></g><g clip-rule="nonzero" clip-path="url(#4db88a39dc)"><path style=" stroke:none;fill-rule:nonzero;fill:#000000;fill-opacity:1;" d="M 55.78125 44.59375 C 55.75 45.003906 55.679688 47.480469 55.617188 50.085938 C 55.511719 54.539062 54.8125 83.027344 54.582031 91.625 C 54.53125 93.78125 54.449219 96.871094 54.417969 98.511719 L 54.34375 101.46875 L 68.019531 101.46875 L 68.019531 100.972656 C 68.019531 100.707031 67.949219 98.171875 67.867188 95.335938 C 67.78125 92.5 67.667969 88.511719 67.605469 86.472656 C 67.503906 82.925781 67.410156 79.78125 67.195312 72.042969 C 67.140625 70.113281 67.046875 66.867188 66.988281 64.828125 C 66.925781 62.785156 66.832031 59.558594 66.78125 57.664062 C 66.726562 55.765625 66.636719 52.445312 66.574219 50.292969 C 66.523438 48.136719 66.4375 45.808594 66.40625 45.109375 L 66.347656 43.851562 L 55.84375 43.851562 Z M 55.78125 44.59375 "/></g><g clip-rule="nonzero" clip-path="url(#d9941be541)"><path style=" stroke:none;fill-rule:nonzero;fill:#000000;fill-opacity:1;" d="M 81.003906 45.210938 C 80.972656 45.964844 80.890625 48.601562 80.835938 51.066406 C 80.773438 53.527344 80.683594 57.351562 80.628906 59.570312 C 80.578125 61.773438 80.484375 65.453125 80.425781 67.734375 C 80.371094 70.019531 80.277344 73.730469 80.21875 75.980469 C 80.164062 78.234375 80.074219 81.976562 80.011719 84.308594 C 79.949219 86.625 79.855469 90.316406 79.804688 92.5 C 79.753906 94.6875 79.667969 97.59375 79.636719 98.964844 L 79.566406 101.46875 L 93.242188 101.46875 L 93.242188 101.078125 C 93.25 100.128906 91.679688 45.066406 91.628906 44.488281 L 91.566406 43.851562 L 81.066406 43.851562 Z M 81.003906 45.210938 "/></g><g clip-rule="nonzero" clip-path="url(#891761565f)"><path style=" stroke:none;fill-rule:nonzero;fill:#000000;fill-opacity:1;" d="M 20.421875 103.859375 C 20.390625 103.933594 20.359375 105.59375 20.347656 107.550781 L 20.320312 111.105469 L 17.164062 111.15625 L 14.011719 111.210938 L 13.980469 114.859375 C 13.960938 117.632812 13.929688 118.539062 13.828125 118.601562 C 13.765625 118.640625 12.339844 118.683594 10.683594 118.683594 L 7.65625 118.683594 L 7.65625 126 L 139.960938 126 L 139.960938 118.683594 L 136.972656 118.683594 C 135.332031 118.683594 133.914062 118.652344 133.820312 118.621094 C 133.675781 118.570312 133.65625 118.144531 133.65625 114.921875 C 133.65625 111.695312 133.636719 111.269531 133.492188 111.21875 C 133.398438 111.1875 131.960938 111.15625 130.285156 111.15625 L 127.246094 111.15625 L 127.226562 107.46875 L 127.195312 103.789062 L 73.828125 103.757812 C 31.191406 103.738281 20.453125 103.757812 20.421875 103.859375 Z M 20.421875 103.859375 "/></g><g style="fill:#000000;fill-opacity:1;"><g transform="translate(15.697972, 145.020059)"><path style="stroke:none" d="M 8.71875 -7.140625 C 8.445312 -7.722656 8.046875 -8.175781 7.515625 -8.5 C 6.984375 -8.820312 6.367188 -8.984375 5.671875 -8.984375 C 4.960938 -8.984375 4.328125 -8.820312 3.765625 -8.5 C 3.203125 -8.175781 2.757812 -7.710938 2.4375 -7.109375 C 2.125 -6.515625 1.96875 -5.820312 1.96875 -5.03125 C 1.96875 -4.238281 2.125 -3.546875 2.4375 -2.953125 C 2.757812 -2.359375 3.203125 -1.898438 3.765625 -1.578125 C 4.328125 -1.253906 4.960938 -1.09375 5.671875 -1.09375 C 6.648438 -1.09375 7.457031 -1.382812 8.09375 -1.96875 C 8.726562 -2.5625 9.097656 -3.359375 9.203125 -4.359375 L 5.1875 -4.359375 L 5.1875 -5.421875 L 10.59375 -5.421875 L 10.59375 -4.40625 C 10.519531 -3.582031 10.257812 -2.828125 9.8125 -2.140625 C 9.375 -1.453125 8.796875 -0.90625 8.078125 -0.5 C 7.359375 -0.101562 6.554688 0.09375 5.671875 0.09375 C 4.734375 0.09375 3.878906 -0.125 3.109375 -0.5625 C 2.347656 -1 1.742188 -1.609375 1.296875 -2.390625 C 0.847656 -3.171875 0.625 -4.050781 0.625 -5.03125 C 0.625 -6.007812 0.847656 -6.890625 1.296875 -7.671875 C 1.742188 -8.460938 2.347656 -9.078125 3.109375 -9.515625 C 3.878906 -9.953125 4.734375 -10.171875 5.671875 -10.171875 C 6.734375 -10.171875 7.675781 -9.90625 8.5 -9.375 C 9.320312 -8.84375 9.921875 -8.097656 10.296875 -7.140625 Z M 8.71875 -7.140625 "/></g></g><g style="fill:#000000;fill-opacity:1;"><g transform="translate(26.913902, 145.020059)"><path style="stroke:none" d="M 4.5625 0.125 C 3.820312 0.125 3.148438 -0.0390625 2.546875 -0.375 C 1.941406 -0.707031 1.46875 -1.179688 1.125 -1.796875 C 0.789062 -2.421875 0.625 -3.144531 0.625 -3.96875 C 0.625 -4.769531 0.796875 -5.476562 1.140625 -6.09375 C 1.492188 -6.71875 1.972656 -7.195312 2.578125 -7.53125 C 3.179688 -7.863281 3.859375 -8.03125 4.609375 -8.03125 C 5.359375 -8.03125 6.035156 -7.863281 6.640625 -7.53125 C 7.253906 -7.195312 7.734375 -6.722656 8.078125 -6.109375 C 8.429688 -5.492188 8.609375 -4.78125 8.609375 -3.96875 C 8.609375 -3.144531 8.425781 -2.421875 8.0625 -1.796875 C 7.707031 -1.179688 7.222656 -0.707031 6.609375 -0.375 C 5.992188 -0.0390625 5.3125 0.125 4.5625 0.125 Z M 4.5625 -1.03125 C 5.03125 -1.03125 5.46875 -1.140625 5.875 -1.359375 C 6.289062 -1.578125 6.625 -1.90625 6.875 -2.34375 C 7.132812 -2.789062 7.265625 -3.332031 7.265625 -3.96875 C 7.265625 -4.601562 7.140625 -5.140625 6.890625 -5.578125 C 6.640625 -6.023438 6.3125 -6.351562 5.90625 -6.5625 C 5.507812 -6.78125 5.070312 -6.890625 4.59375 -6.890625 C 4.113281 -6.890625 3.675781 -6.78125 3.28125 -6.5625 C 2.882812 -6.351562 2.566406 -6.023438 2.328125 -5.578125 C 2.085938 -5.140625 1.96875 -4.601562 1.96875 -3.96875 C 1.96875 -3.320312 2.082031 -2.773438 2.3125 -2.328125 C 2.550781 -1.890625 2.863281 -1.5625 3.25 -1.34375 C 3.644531 -1.132812 4.082031 -1.03125 4.5625 -1.03125 Z M 4.5625 -1.03125 "/></g></g><g style="fill:#000000;fill-opacity:1;"><g transform="translate(36.140377, 145.020059)"><path style="stroke:none" d="M 8.125 -7.90625 L 8.125 0 L 6.8125 0 L 6.8125 -1.171875 C 6.5625 -0.765625 6.210938 -0.445312 5.765625 -0.21875 C 5.316406 0 4.820312 0.109375 4.28125 0.109375 C 3.664062 0.109375 3.113281 -0.015625 2.625 -0.265625 C 2.132812 -0.523438 1.742188 -0.90625 1.453125 -1.40625 C 1.171875 -1.914062 1.03125 -2.539062 1.03125 -3.28125 L 1.03125 -7.90625 L 2.34375 -7.90625 L 2.34375 -3.453125 C 2.34375 -2.671875 2.535156 -2.070312 2.921875 -1.65625 C 3.316406 -1.238281 3.859375 -1.03125 4.546875 -1.03125 C 5.242188 -1.03125 5.796875 -1.242188 6.203125 -1.671875 C 6.609375 -2.109375 6.8125 -2.738281 6.8125 -3.5625 L 6.8125 -7.90625 Z M 8.125 -7.90625 "/></g></g><g style="fill:#000000;fill-opacity:1;"><g transform="translate(45.366851, 145.020059)"><path style="stroke:none" d="M 4.046875 -1.21875 L 6.5 -7.90625 L 7.90625 -7.90625 L 4.796875 0 L 3.28125 0 L 0.171875 -7.90625 L 1.59375 -7.90625 Z M 4.046875 -1.21875 "/></g></g><g style="fill:#000000;fill-opacity:1;"><g transform="translate(53.454431, 145.020059)"><path style="stroke:none" d="M 8.328125 -4.25 C 8.328125 -4 8.3125 -3.738281 8.28125 -3.46875 L 1.96875 -3.46875 C 2.007812 -2.6875 2.269531 -2.078125 2.75 -1.640625 C 3.238281 -1.203125 3.832031 -0.984375 4.53125 -0.984375 C 5.09375 -0.984375 5.5625 -1.113281 5.9375 -1.375 C 6.320312 -1.644531 6.59375 -2 6.75 -2.4375 L 8.15625 -2.4375 C 7.945312 -1.675781 7.523438 -1.054688 6.890625 -0.578125 C 6.253906 -0.109375 5.46875 0.125 4.53125 0.125 C 3.78125 0.125 3.109375 -0.0390625 2.515625 -0.375 C 1.921875 -0.707031 1.457031 -1.179688 1.125 -1.796875 C 0.789062 -2.421875 0.625 -3.144531 0.625 -3.96875 C 0.625 -4.78125 0.785156 -5.492188 1.109375 -6.109375 C 1.429688 -6.722656 1.890625 -7.195312 2.484375 -7.53125 C 3.078125 -7.863281 3.757812 -8.03125 4.53125 -8.03125 C 5.28125 -8.03125 5.941406 -7.863281 6.515625 -7.53125 C 7.097656 -7.207031 7.546875 -6.757812 7.859375 -6.1875 C 8.171875 -5.625 8.328125 -4.976562 8.328125 -4.25 Z M 6.96875 -4.53125 C 6.96875 -5.03125 6.851562 -5.457031 6.625 -5.8125 C 6.40625 -6.175781 6.101562 -6.453125 5.71875 -6.640625 C 5.34375 -6.828125 4.925781 -6.921875 4.46875 -6.921875 C 3.800781 -6.921875 3.234375 -6.707031 2.765625 -6.28125 C 2.304688 -5.863281 2.039062 -5.28125 1.96875 -4.53125 Z M 6.96875 -4.53125 "/></g></g><g style="fill:#000000;fill-opacity:1;"><g transform="translate(62.392578, 145.020059)"><path style="stroke:none" d="M 2.421875 -6.625 C 2.648438 -7.070312 2.976562 -7.421875 3.40625 -7.671875 C 3.832031 -7.921875 4.351562 -8.046875 4.96875 -8.046875 L 4.96875 -6.6875 L 4.625 -6.6875 C 3.15625 -6.6875 2.421875 -5.890625 2.421875 -4.296875 L 2.421875 0 L 1.109375 0 L 1.109375 -7.90625 L 2.421875 -7.90625 Z M 2.421875 -6.625 "/></g></g><g style="fill:#000000;fill-opacity:1;"><g transform="translate(67.769879, 145.020059)"><path style="stroke:none" d="M 4.96875 -8.046875 C 5.925781 -8.046875 6.703125 -7.753906 7.296875 -7.171875 C 7.890625 -6.585938 8.1875 -5.75 8.1875 -4.65625 L 8.1875 0 L 6.890625 0 L 6.890625 -4.46875 C 6.890625 -5.257812 6.691406 -5.863281 6.296875 -6.28125 C 5.910156 -6.695312 5.375 -6.90625 4.6875 -6.90625 C 4 -6.90625 3.445312 -6.6875 3.03125 -6.25 C 2.625 -5.820312 2.421875 -5.195312 2.421875 -4.375 L 2.421875 0 L 1.109375 0 L 1.109375 -7.90625 L 2.421875 -7.90625 L 2.421875 -6.78125 C 2.679688 -7.1875 3.035156 -7.5 3.484375 -7.71875 C 3.929688 -7.9375 4.425781 -8.046875 4.96875 -8.046875 Z M 4.96875 -8.046875 "/></g></g><g style="fill:#000000;fill-opacity:1;"><g transform="translate(76.996353, 145.020059)"><path style="stroke:none" d="M 8.328125 -4.25 C 8.328125 -4 8.3125 -3.738281 8.28125 -3.46875 L 1.96875 -3.46875 C 2.007812 -2.6875 2.269531 -2.078125 2.75 -1.640625 C 3.238281 -1.203125 3.832031 -0.984375 4.53125 -0.984375 C 5.09375 -0.984375 5.5625 -1.113281 5.9375 -1.375 C 6.320312 -1.644531 6.59375 -2 6.75 -2.4375 L 8.15625 -2.4375 C 7.945312 -1.675781 7.523438 -1.054688 6.890625 -0.578125 C 6.253906 -0.109375 5.46875 0.125 4.53125 0.125 C 3.78125 0.125 3.109375 -0.0390625 2.515625 -0.375 C 1.921875 -0.707031 1.457031 -1.179688 1.125 -1.796875 C 0.789062 -2.421875 0.625 -3.144531 0.625 -3.96875 C 0.625 -4.78125 0.785156 -5.492188 1.109375 -6.109375 C 1.429688 -6.722656 1.890625 -7.195312 2.484375 -7.53125 C 3.078125 -7.863281 3.757812 -8.03125 4.53125 -8.03125 C 5.28125 -8.03125 5.941406 -7.863281 6.515625 -7.53125 C 7.097656 -7.207031 7.546875 -6.757812 7.859375 -6.1875 C 8.171875 -5.625 8.328125 -4.976562 8.328125 -4.25 Z M 6.96875 -4.53125 C 6.96875 -5.03125 6.851562 -5.457031 6.625 -5.8125 C 6.40625 -6.175781 6.101562 -6.453125 5.71875 -6.640625 C 5.34375 -6.828125 4.925781 -6.921875 4.46875 -6.921875 C 3.800781 -6.921875 3.234375 -6.707031 2.765625 -6.28125 C 2.304688 -5.863281 2.039062 -5.28125 1.96875 -4.53125 Z M 6.96875 -4.53125 "/></g></g><g style="fill:#000000;fill-opacity:1;"><g transform="translate(85.9345, 145.020059)"><path style="stroke:none" d="M 10.609375 -8.046875 C 11.222656 -8.046875 11.769531 -7.914062 12.25 -7.65625 C 12.738281 -7.40625 13.117188 -7.023438 13.390625 -6.515625 C 13.671875 -6.003906 13.8125 -5.382812 13.8125 -4.65625 L 13.8125 0 L 12.515625 0 L 12.515625 -4.46875 C 12.515625 -5.257812 12.316406 -5.863281 11.921875 -6.28125 C 11.535156 -6.695312 11.015625 -6.90625 10.359375 -6.90625 C 9.671875 -6.90625 9.125 -6.6875 8.71875 -6.25 C 8.320312 -5.8125 8.125 -5.179688 8.125 -4.359375 L 8.125 0 L 6.828125 0 L 6.828125 -4.46875 C 6.828125 -5.257812 6.628906 -5.863281 6.234375 -6.28125 C 5.847656 -6.695312 5.320312 -6.90625 4.65625 -6.90625 C 3.976562 -6.90625 3.4375 -6.6875 3.03125 -6.25 C 2.625 -5.8125 2.421875 -5.179688 2.421875 -4.359375 L 2.421875 0 L 1.109375 0 L 1.109375 -7.90625 L 2.421875 -7.90625 L 2.421875 -6.765625 C 2.679688 -7.179688 3.03125 -7.5 3.46875 -7.71875 C 3.90625 -7.9375 4.390625 -8.046875 4.921875 -8.046875 C 5.578125 -8.046875 6.160156 -7.894531 6.671875 -7.59375 C 7.179688 -7.300781 7.5625 -6.863281 7.8125 -6.28125 C 8.03125 -6.84375 8.394531 -7.273438 8.90625 -7.578125 C 9.414062 -7.890625 9.984375 -8.046875 10.609375 -8.046875 Z M 10.609375 -8.046875 "/></g></g><g style="fill:#000000;fill-opacity:1;"><g transform="translate(100.783356, 145.020059)"><path style="stroke:none" d="M 8.328125 -4.25 C 8.328125 -4 8.3125 -3.738281 8.28125 -3.46875 L 1.96875 -3.46875 C 2.007812 -2.6875 2.269531 -2.078125 2.75 -1.640625 C 3.238281 -1.203125 3.832031 -0.984375 4.53125 -0.984375 C 5.09375 -0.984375 5.5625 -1.113281 5.9375 -1.375 C 6.320312 -1.644531 6.59375 -2 6.75 -2.4375 L 8.15625 -2.4375 C 7.945312 -1.675781 7.523438 -1.054688 6.890625 -0.578125 C 6.253906 -0.109375 5.46875 0.125 4.53125 0.125 C 3.78125 0.125 3.109375 -0.0390625 2.515625 -0.375 C 1.921875 -0.707031 1.457031 -1.179688 1.125 -1.796875 C 0.789062 -2.421875 0.625 -3.144531 0.625 -3.96875 C 0.625 -4.78125 0.785156 -5.492188 1.109375 -6.109375 C 1.429688 -6.722656 1.890625 -7.195312 2.484375 -7.53125 C 3.078125 -7.863281 3.757812 -8.03125 4.53125 -8.03125 C 5.28125 -8.03125 5.941406 -7.863281 6.515625 -7.53125 C 7.097656 -7.207031 7.546875 -6.757812 7.859375 -6.1875 C 8.171875 -5.625 8.328125 -4.976562 8.328125 -4.25 Z M 6.96875 -4.53125 C 6.96875 -5.03125 6.851562 -5.457031 6.625 -5.8125 C 6.40625 -6.175781 6.101562 -6.453125 5.71875 -6.640625 C 5.34375 -6.828125 4.925781 -6.921875 4.46875 -6.921875 C 3.800781 -6.921875 3.234375 -6.707031 2.765625 -6.28125 C 2.304688 -5.863281 2.039062 -5.28125 1.96875 -4.53125 Z M 6.96875 -4.53125 "/></g></g><g style="fill:#000000;fill-opacity:1;"><g transform="translate(109.721503, 145.020059)"><path style="stroke:none" d="M 4.96875 -8.046875 C 5.925781 -8.046875 6.703125 -7.753906 7.296875 -7.171875 C 7.890625 -6.585938 8.1875 -5.75 8.1875 -4.65625 L 8.1875 0 L 6.890625 0 L 6.890625 -4.46875 C 6.890625 -5.257812 6.691406 -5.863281 6.296875 -6.28125 C 5.910156 -6.695312 5.375 -6.90625 4.6875 -6.90625 C 4 -6.90625 3.445312 -6.6875 3.03125 -6.25 C 2.625 -5.820312 2.421875 -5.195312 2.421875 -4.375 L 2.421875 0 L 1.109375 0 L 1.109375 -7.90625 L 2.421875 -7.90625 L 2.421875 -6.78125 C 2.679688 -7.1875 3.035156 -7.5 3.484375 -7.71875 C 3.929688 -7.9375 4.425781 -8.046875 4.96875 -8.046875 Z M 4.96875 -8.046875 "/></g></g><g style="fill:#000000;fill-opacity:1;"><g transform="translate(118.947977, 145.020059)"><path style="stroke:none" d="M 2.71875 -6.828125 L 2.71875 -2.15625 C 2.71875 -1.78125 2.796875 -1.507812 2.953125 -1.34375 C 3.117188 -1.1875 3.40625 -1.109375 3.8125 -1.109375 L 4.78125 -1.109375 L 4.78125 0 L 3.59375 0 C 2.863281 0 2.316406 -0.164062 1.953125 -0.5 C 1.585938 -0.84375 1.40625 -1.394531 1.40625 -2.15625 L 1.40625 -6.828125 L 0.375 -6.828125 L 0.375 -7.90625 L 1.40625 -7.90625 L 1.40625 -9.890625 L 2.71875 -9.890625 L 2.71875 -7.90625 L 4.78125 -7.90625 L 4.78125 -6.828125 Z M 2.71875 -6.828125 "/></g></g><g style="fill:#000000;fill-opacity:1;"><g transform="translate(124.195534, 145.020059)"><path style="stroke:none" d="M 3.90625 0.125 C 3.300781 0.125 2.757812 0.0234375 2.28125 -0.171875 C 1.800781 -0.378906 1.421875 -0.664062 1.140625 -1.03125 C 0.859375 -1.40625 0.703125 -1.835938 0.671875 -2.328125 L 2.03125 -2.328125 C 2.070312 -1.929688 2.257812 -1.609375 2.59375 -1.359375 C 2.925781 -1.109375 3.359375 -0.984375 3.890625 -0.984375 C 4.390625 -0.984375 4.785156 -1.09375 5.078125 -1.3125 C 5.367188 -1.53125 5.515625 -1.8125 5.515625 -2.15625 C 5.515625 -2.5 5.359375 -2.753906 5.046875 -2.921875 C 4.742188 -3.085938 4.269531 -3.253906 3.625 -3.421875 C 3.03125 -3.578125 2.546875 -3.734375 2.171875 -3.890625 C 1.804688 -4.046875 1.492188 -4.28125 1.234375 -4.59375 C 0.972656 -4.90625 0.84375 -5.316406 0.84375 -5.828125 C 0.84375 -6.234375 0.960938 -6.601562 1.203125 -6.9375 C 1.441406 -7.269531 1.78125 -7.535156 2.21875 -7.734375 C 2.664062 -7.929688 3.171875 -8.03125 3.734375 -8.03125 C 4.609375 -8.03125 5.3125 -7.804688 5.84375 -7.359375 C 6.382812 -6.921875 6.675781 -6.316406 6.71875 -5.546875 L 5.40625 -5.546875 C 5.375 -5.960938 5.207031 -6.296875 4.90625 -6.546875 C 4.601562 -6.796875 4.195312 -6.921875 3.6875 -6.921875 C 3.21875 -6.921875 2.84375 -6.816406 2.5625 -6.609375 C 2.289062 -6.410156 2.15625 -6.148438 2.15625 -5.828125 C 2.15625 -5.566406 2.238281 -5.351562 2.40625 -5.1875 C 2.570312 -5.019531 2.78125 -4.882812 3.03125 -4.78125 C 3.289062 -4.675781 3.644531 -4.5625 4.09375 -4.4375 C 4.664062 -4.289062 5.128906 -4.140625 5.484375 -3.984375 C 5.835938 -3.835938 6.140625 -3.613281 6.390625 -3.3125 C 6.648438 -3.019531 6.785156 -2.632812 6.796875 -2.15625 C 6.796875 -1.71875 6.675781 -1.328125 6.4375 -0.984375 C 6.195312 -0.640625 5.859375 -0.367188 5.421875 -0.171875 C 4.984375 0.0234375 4.476562 0.125 3.90625 0.125 Z M 3.90625 0.125 "/></g></g><g style="fill:#000000;fill-opacity:1;"><g transform="translate(11.980591, 165.173798)"><path style="stroke:none" d="M 8.328125 -4.25 C 8.328125 -4 8.3125 -3.738281 8.28125 -3.46875 L 1.96875 -3.46875 C 2.007812 -2.6875 2.269531 -2.078125 2.75 -1.640625 C 3.238281 -1.203125 3.832031 -0.984375 4.53125 -0.984375 C 5.09375 -0.984375 5.5625 -1.113281 5.9375 -1.375 C 6.320312 -1.644531 6.59375 -2 6.75 -2.4375 L 8.15625 -2.4375 C 7.945312 -1.675781 7.523438 -1.054688 6.890625 -0.578125 C 6.253906 -0.109375 5.46875 0.125 4.53125 0.125 C 3.78125 0.125 3.109375 -0.0390625 2.515625 -0.375 C 1.921875 -0.707031 1.457031 -1.179688 1.125 -1.796875 C 0.789062 -2.421875 0.625 -3.144531 0.625 -3.96875 C 0.625 -4.78125 0.785156 -5.492188 1.109375 -6.109375 C 1.429688 -6.722656 1.890625 -7.195312 2.484375 -7.53125 C 3.078125 -7.863281 3.757812 -8.03125 4.53125 -8.03125 C 5.28125 -8.03125 5.941406 -7.863281 6.515625 -7.53125 C 7.097656 -7.207031 7.546875 -6.757812 7.859375 -6.1875 C 8.171875 -5.625 8.328125 -4.976562 8.328125 -4.25 Z M 6.96875 -4.53125 C 6.96875 -5.03125 6.851562 -5.457031 6.625 -5.8125 C 6.40625 -6.175781 6.101562 -6.453125 5.71875 -6.640625 C 5.34375 -6.828125 4.925781 -6.921875 4.46875 -6.921875 C 3.800781 -6.921875 3.234375 -6.707031 2.765625 -6.28125 C 2.304688 -5.863281 2.039062 -5.28125 1.96875 -4.53125 Z M 6.96875 -4.53125 "/></g></g><g style="fill:#000000;fill-opacity:1;"><g transform="translate(20.918737, 165.173798)"><path style="stroke:none" d="M 2.71875 -6.828125 L 2.71875 -2.15625 C 2.71875 -1.78125 2.796875 -1.507812 2.953125 -1.34375 C 3.117188 -1.1875 3.40625 -1.109375 3.8125 -1.109375 L 4.78125 -1.109375 L 4.78125 0 L 3.59375 0 C 2.863281 0 2.316406 -0.164062 1.953125 -0.5 C 1.585938 -0.84375 1.40625 -1.394531 1.40625 -2.15625 L 1.40625 -6.828125 L 0.375 -6.828125 L 0.375 -7.90625 L 1.40625 -7.90625 L 1.40625 -9.890625 L 2.71875 -9.890625 L 2.71875 -7.90625 L 4.78125 -7.90625 L 4.78125 -6.828125 Z M 2.71875 -6.828125 "/></g></g><g style="fill:#000000;fill-opacity:1;"><g transform="translate(26.166294, 165.173798)"><path style="stroke:none" d=""/></g></g><g style="fill:#000000;fill-opacity:1;"><g transform="translate(30.015468, 165.173798)"><path style="stroke:none" d="M 2.421875 -6.625 C 2.648438 -7.070312 2.976562 -7.421875 3.40625 -7.671875 C 3.832031 -7.921875 4.351562 -8.046875 4.96875 -8.046875 L 4.96875 -6.6875 L 4.625 -6.6875 C 3.15625 -6.6875 2.421875 -5.890625 2.421875 -4.296875 L 2.421875 0 L 1.109375 0 L 1.109375 -7.90625 L 2.421875 -7.90625 Z M 2.421875 -6.625 "/></g></g><g style="fill:#000000;fill-opacity:1;"><g transform="translate(35.392769, 165.173798)"><path style="stroke:none" d="M 8.328125 -4.25 C 8.328125 -4 8.3125 -3.738281 8.28125 -3.46875 L 1.96875 -3.46875 C 2.007812 -2.6875 2.269531 -2.078125 2.75 -1.640625 C 3.238281 -1.203125 3.832031 -0.984375 4.53125 -0.984375 C 5.09375 -0.984375 5.5625 -1.113281 5.9375 -1.375 C 6.320312 -1.644531 6.59375 -2 6.75 -2.4375 L 8.15625 -2.4375 C 7.945312 -1.675781 7.523438 -1.054688 6.890625 -0.578125 C 6.253906 -0.109375 5.46875 0.125 4.53125 0.125 C 3.78125 0.125 3.109375 -0.0390625 2.515625 -0.375 C 1.921875 -0.707031 1.457031 -1.179688 1.125 -1.796875 C 0.789062 -2.421875 0.625 -3.144531 0.625 -3.96875 C 0.625 -4.78125 0.785156 -5.492188 1.109375 -6.109375 C 1.429688 -6.722656 1.890625 -7.195312 2.484375 -7.53125 C 3.078125 -7.863281 3.757812 -8.03125 4.53125 -8.03125 C 5.28125 -8.03125 5.941406 -7.863281 6.515625 -7.53125 C 7.097656 -7.207031 7.546875 -6.757812 7.859375 -6.1875 C 8.171875 -5.625 8.328125 -4.976562 8.328125 -4.25 Z M 6.96875 -4.53125 C 6.96875 -5.03125 6.851562 -5.457031 6.625 -5.8125 C 6.40625 -6.175781 6.101562 -6.453125 5.71875 -6.640625 C 5.34375 -6.828125 4.925781 -6.921875 4.46875 -6.921875 C 3.800781 -6.921875 3.234375 -6.707031 2.765625 -6.28125 C 2.304688 -5.863281 2.039062 -5.28125 1.96875 -4.53125 Z M 5.875 -10.140625 L 2.8125 -8.5 L 2.8125 -9.46875 L 5.875 -11.28125 Z M 5.875 -10.140625 "/></g></g><g style="fill:#000000;fill-opacity:1;"><g transform="translate(44.330916, 165.173798)"><path style="stroke:none" d="M 4.375 -8.03125 C 5.050781 -8.03125 5.644531 -7.878906 6.15625 -7.578125 C 6.675781 -7.285156 7.0625 -6.914062 7.3125 -6.46875 L 7.3125 -7.90625 L 8.640625 -7.90625 L 8.640625 0.171875 C 8.640625 0.890625 8.484375 1.53125 8.171875 2.09375 C 7.867188 2.65625 7.429688 3.09375 6.859375 3.40625 C 6.285156 3.726562 5.617188 3.890625 4.859375 3.890625 C 3.816406 3.890625 2.945312 3.644531 2.25 3.15625 C 1.5625 2.664062 1.15625 2 1.03125 1.15625 L 2.34375 1.15625 C 2.476562 1.632812 2.769531 2.019531 3.21875 2.3125 C 3.675781 2.601562 4.222656 2.75 4.859375 2.75 C 5.578125 2.75 6.164062 2.523438 6.625 2.078125 C 7.082031 1.628906 7.3125 0.992188 7.3125 0.171875 L 7.3125 -1.484375 C 7.050781 -1.023438 6.664062 -0.640625 6.15625 -0.328125 C 5.644531 -0.0234375 5.050781 0.125 4.375 0.125 C 3.664062 0.125 3.023438 -0.046875 2.453125 -0.390625 C 1.878906 -0.734375 1.429688 -1.21875 1.109375 -1.84375 C 0.785156 -2.46875 0.625 -3.179688 0.625 -3.984375 C 0.625 -4.785156 0.785156 -5.492188 1.109375 -6.109375 C 1.429688 -6.722656 1.878906 -7.195312 2.453125 -7.53125 C 3.023438 -7.863281 3.664062 -8.03125 4.375 -8.03125 Z M 7.3125 -3.96875 C 7.3125 -4.5625 7.191406 -5.078125 6.953125 -5.515625 C 6.710938 -5.960938 6.382812 -6.300781 5.96875 -6.53125 C 5.5625 -6.769531 5.113281 -6.890625 4.625 -6.890625 C 4.132812 -6.890625 3.6875 -6.773438 3.28125 -6.546875 C 2.882812 -6.316406 2.566406 -5.976562 2.328125 -5.53125 C 2.085938 -5.09375 1.96875 -4.578125 1.96875 -3.984375 C 1.96875 -3.378906 2.085938 -2.851562 2.328125 -2.40625 C 2.566406 -1.957031 2.882812 -1.613281 3.28125 -1.375 C 3.6875 -1.144531 4.132812 -1.03125 4.625 -1.03125 C 5.113281 -1.03125 5.5625 -1.144531 5.96875 -1.375 C 6.382812 -1.613281 6.710938 -1.957031 6.953125 -2.40625 C 7.191406 -2.851562 7.3125 -3.375 7.3125 -3.96875 Z M 7.3125 -3.96875 "/></g></g><g style="fill:#000000;fill-opacity:1;"><g transform="translate(54.076382, 165.173798)"><path style="stroke:none" d="M 8.125 -7.90625 L 8.125 0 L 6.8125 0 L 6.8125 -1.171875 C 6.5625 -0.765625 6.210938 -0.445312 5.765625 -0.21875 C 5.316406 0 4.820312 0.109375 4.28125 0.109375 C 3.664062 0.109375 3.113281 -0.015625 2.625 -0.265625 C 2.132812 -0.523438 1.742188 -0.90625 1.453125 -1.40625 C 1.171875 -1.914062 1.03125 -2.539062 1.03125 -3.28125 L 1.03125 -7.90625 L 2.34375 -7.90625 L 2.34375 -3.453125 C 2.34375 -2.671875 2.535156 -2.070312 2.921875 -1.65625 C 3.316406 -1.238281 3.859375 -1.03125 4.546875 -1.03125 C 5.242188 -1.03125 5.796875 -1.242188 6.203125 -1.671875 C 6.609375 -2.109375 6.8125 -2.738281 6.8125 -3.5625 L 6.8125 -7.90625 Z M 8.125 -7.90625 "/></g></g><g style="fill:#000000;fill-opacity:1;"><g transform="translate(63.302857, 165.173798)"><path style="stroke:none" d="M 2.421875 -10.671875 L 2.421875 0 L 1.109375 0 L 1.109375 -10.671875 Z M 2.421875 -10.671875 "/></g></g><g style="fill:#000000;fill-opacity:1;"><g transform="translate(66.849287, 165.173798)"><path style="stroke:none" d="M 0.625 -3.984375 C 0.625 -4.785156 0.785156 -5.492188 1.109375 -6.109375 C 1.429688 -6.722656 1.878906 -7.195312 2.453125 -7.53125 C 3.023438 -7.863281 3.664062 -8.03125 4.375 -8.03125 C 5.0625 -8.03125 5.660156 -7.878906 6.171875 -7.578125 C 6.679688 -7.285156 7.0625 -6.914062 7.3125 -6.46875 L 7.3125 -7.90625 L 8.640625 -7.90625 L 8.640625 0 L 7.3125 0 L 7.3125 -1.46875 C 7.050781 -1.007812 6.660156 -0.628906 6.140625 -0.328125 C 5.628906 -0.0234375 5.035156 0.125 4.359375 0.125 C 3.648438 0.125 3.007812 -0.046875 2.4375 -0.390625 C 1.875 -0.734375 1.429688 -1.21875 1.109375 -1.84375 C 0.785156 -2.46875 0.625 -3.179688 0.625 -3.984375 Z M 7.3125 -3.96875 C 7.3125 -4.5625 7.191406 -5.078125 6.953125 -5.515625 C 6.710938 -5.960938 6.382812 -6.300781 5.96875 -6.53125 C 5.5625 -6.769531 5.113281 -6.890625 4.625 -6.890625 C 4.132812 -6.890625 3.6875 -6.773438 3.28125 -6.546875 C 2.882812 -6.316406 2.566406 -5.976562 2.328125 -5.53125 C 2.085938 -5.09375 1.96875 -4.578125 1.96875 -3.984375 C 1.96875 -3.378906 2.085938 -2.851562 2.328125 -2.40625 C 2.566406 -1.957031 2.882812 -1.613281 3.28125 -1.375 C 3.6875 -1.144531 4.132812 -1.03125 4.625 -1.03125 C 5.113281 -1.03125 5.5625 -1.144531 5.96875 -1.375 C 6.382812 -1.613281 6.710938 -1.957031 6.953125 -2.40625 C 7.191406 -2.851562 7.3125 -3.375 7.3125 -3.96875 Z M 7.3125 -3.96875 "/></g></g><g style="fill:#000000;fill-opacity:1;"><g transform="translate(76.594753, 165.173798)"><path style="stroke:none" d="M 2.71875 -6.828125 L 2.71875 -2.15625 C 2.71875 -1.78125 2.796875 -1.507812 2.953125 -1.34375 C 3.117188 -1.1875 3.40625 -1.109375 3.8125 -1.109375 L 4.78125 -1.109375 L 4.78125 0 L 3.59375 0 C 2.863281 0 2.316406 -0.164062 1.953125 -0.5 C 1.585938 -0.84375 1.40625 -1.394531 1.40625 -2.15625 L 1.40625 -6.828125 L 0.375 -6.828125 L 0.375 -7.90625 L 1.40625 -7.90625 L 1.40625 -9.890625 L 2.71875 -9.890625 L 2.71875 -7.90625 L 4.78125 -7.90625 L 4.78125 -6.828125 Z M 2.71875 -6.828125 "/></g></g><g style="fill:#000000;fill-opacity:1;"><g transform="translate(81.84231, 165.173798)"><path style="stroke:none" d="M 8.328125 -4.25 C 8.328125 -4 8.3125 -3.738281 8.28125 -3.46875 L 1.96875 -3.46875 C 2.007812 -2.6875 2.269531 -2.078125 2.75 -1.640625 C 3.238281 -1.203125 3.832031 -0.984375 4.53125 -0.984375 C 5.09375 -0.984375 5.5625 -1.113281 5.9375 -1.375 C 6.320312 -1.644531 6.59375 -2 6.75 -2.4375 L 8.15625 -2.4375 C 7.945312 -1.675781 7.523438 -1.054688 6.890625 -0.578125 C 6.253906 -0.109375 5.46875 0.125 4.53125 0.125 C 3.78125 0.125 3.109375 -0.0390625 2.515625 -0.375 C 1.921875 -0.707031 1.457031 -1.179688 1.125 -1.796875 C 0.789062 -2.421875 0.625 -3.144531 0.625 -3.96875 C 0.625 -4.78125 0.785156 -5.492188 1.109375 -6.109375 C 1.429688 -6.722656 1.890625 -7.195312 2.484375 -7.53125 C 3.078125 -7.863281 3.757812 -8.03125 4.53125 -8.03125 C 5.28125 -8.03125 5.941406 -7.863281 6.515625 -7.53125 C 7.097656 -7.207031 7.546875 -6.757812 7.859375 -6.1875 C 8.171875 -5.625 8.328125 -4.976562 8.328125 -4.25 Z M 6.96875 -4.53125 C 6.96875 -5.03125 6.851562 -5.457031 6.625 -5.8125 C 6.40625 -6.175781 6.101562 -6.453125 5.71875 -6.640625 C 5.34375 -6.828125 4.925781 -6.921875 4.46875 -6.921875 C 3.800781 -6.921875 3.234375 -6.707031 2.765625 -6.28125 C 2.304688 -5.863281 2.039062 -5.28125 1.96875 -4.53125 Z M 6.96875 -4.53125 "/></g></g><g style="fill:#000000;fill-opacity:1;"><g transform="translate(90.780457, 165.173798)"><path style="stroke:none" d="M 8.125 -7.90625 L 8.125 0 L 6.8125 0 L 6.8125 -1.171875 C 6.5625 -0.765625 6.210938 -0.445312 5.765625 -0.21875 C 5.316406 0 4.820312 0.109375 4.28125 0.109375 C 3.664062 0.109375 3.113281 -0.015625 2.625 -0.265625 C 2.132812 -0.523438 1.742188 -0.90625 1.453125 -1.40625 C 1.171875 -1.914062 1.03125 -2.539062 1.03125 -3.28125 L 1.03125 -7.90625 L 2.34375 -7.90625 L 2.34375 -3.453125 C 2.34375 -2.671875 2.535156 -2.070312 2.921875 -1.65625 C 3.316406 -1.238281 3.859375 -1.03125 4.546875 -1.03125 C 5.242188 -1.03125 5.796875 -1.242188 6.203125 -1.671875 C 6.609375 -2.109375 6.8125 -2.738281 6.8125 -3.5625 L 6.8125 -7.90625 Z M 8.125 -7.90625 "/></g></g><g style="fill:#000000;fill-opacity:1;"><g transform="translate(100.006931, 165.173798)"><path style="stroke:none" d="M 2.421875 -6.625 C 2.648438 -7.070312 2.976562 -7.421875 3.40625 -7.671875 C 3.832031 -7.921875 4.351562 -8.046875 4.96875 -8.046875 L 4.96875 -6.6875 L 4.625 -6.6875 C 3.15625 -6.6875 2.421875 -5.890625 2.421875 -4.296875 L 2.421875 0 L 1.109375 0 L 1.109375 -7.90625 L 2.421875 -7.90625 Z M 2.421875 -6.625 "/></g></g><g style="fill:#000000;fill-opacity:1;"><g transform="translate(105.384232, 165.173798)"><path style="stroke:none" d="M 3.90625 0.125 C 3.300781 0.125 2.757812 0.0234375 2.28125 -0.171875 C 1.800781 -0.378906 1.421875 -0.664062 1.140625 -1.03125 C 0.859375 -1.40625 0.703125 -1.835938 0.671875 -2.328125 L 2.03125 -2.328125 C 2.070312 -1.929688 2.257812 -1.609375 2.59375 -1.359375 C 2.925781 -1.109375 3.359375 -0.984375 3.890625 -0.984375 C 4.390625 -0.984375 4.785156 -1.09375 5.078125 -1.3125 C 5.367188 -1.53125 5.515625 -1.8125 5.515625 -2.15625 C 5.515625 -2.5 5.359375 -2.753906 5.046875 -2.921875 C 4.742188 -3.085938 4.269531 -3.253906 3.625 -3.421875 C 3.03125 -3.578125 2.546875 -3.734375 2.171875 -3.890625 C 1.804688 -4.046875 1.492188 -4.28125 1.234375 -4.59375 C 0.972656 -4.90625 0.84375 -5.316406 0.84375 -5.828125 C 0.84375 -6.234375 0.960938 -6.601562 1.203125 -6.9375 C 1.441406 -7.269531 1.78125 -7.535156 2.21875 -7.734375 C 2.664062 -7.929688 3.171875 -8.03125 3.734375 -8.03125 C 4.609375 -8.03125 5.3125 -7.804688 5.84375 -7.359375 C 6.382812 -6.921875 6.675781 -6.316406 6.71875 -5.546875 L 5.40625 -5.546875 C 5.375 -5.960938 5.207031 -6.296875 4.90625 -6.546875 C 4.601562 -6.796875 4.195312 -6.921875 3.6875 -6.921875 C 3.21875 -6.921875 2.84375 -6.816406 2.5625 -6.609375 C 2.289062 -6.410156 2.15625 -6.148438 2.15625 -5.828125 C 2.15625 -5.566406 2.238281 -5.351562 2.40625 -5.1875 C 2.570312 -5.019531 2.78125 -4.882812 3.03125 -4.78125 C 3.289062 -4.675781 3.644531 -4.5625 4.09375 -4.4375 C 4.664062 -4.289062 5.128906 -4.140625 5.484375 -3.984375 C 5.835938 -3.835938 6.140625 -3.613281 6.390625 -3.3125 C 6.648438 -3.019531 6.785156 -2.632812 6.796875 -2.15625 C 6.796875 -1.71875 6.675781 -1.328125 6.4375 -0.984375 C 6.195312 -0.640625 5.859375 -0.367188 5.421875 -0.171875 C 4.984375 0.0234375 4.476562 0.125 3.90625 0.125 Z M 3.90625 0.125 "/></g></g><g style="fill:#000000;fill-opacity:1;"><g transform="translate(112.909572, 165.173798)"><path style="stroke:none" d=""/></g></g><g style="fill:#000000;fill-opacity:1;"><g transform="translate(116.758746, 165.173798)"><path style="stroke:none" d="M 0.625 -3.984375 C 0.625 -4.785156 0.785156 -5.492188 1.109375 -6.109375 C 1.429688 -6.722656 1.878906 -7.195312 2.453125 -7.53125 C 3.023438 -7.863281 3.671875 -8.03125 4.390625 -8.03125 C 5.003906 -8.03125 5.570312 -7.890625 6.09375 -7.609375 C 6.625 -7.328125 7.03125 -6.953125 7.3125 -6.484375 L 7.3125 -10.671875 L 8.640625 -10.671875 L 8.640625 0 L 7.3125 0 L 7.3125 -1.484375 C 7.050781 -1.015625 6.664062 -0.628906 6.15625 -0.328125 C 5.644531 -0.0234375 5.050781 0.125 4.375 0.125 C 3.664062 0.125 3.023438 -0.046875 2.453125 -0.390625 C 1.878906 -0.734375 1.429688 -1.21875 1.109375 -1.84375 C 0.785156 -2.46875 0.625 -3.179688 0.625 -3.984375 Z M 7.3125 -3.96875 C 7.3125 -4.5625 7.191406 -5.078125 6.953125 -5.515625 C 6.710938 -5.960938 6.382812 -6.300781 5.96875 -6.53125 C 5.5625 -6.769531 5.113281 -6.890625 4.625 -6.890625 C 4.132812 -6.890625 3.6875 -6.773438 3.28125 -6.546875 C 2.882812 -6.316406 2.566406 -5.976562 2.328125 -5.53125 C 2.085938 -5.09375 1.96875 -4.578125 1.96875 -3.984375 C 1.96875 -3.378906 2.085938 -2.851562 2.328125 -2.40625 C 2.566406 -1.957031 2.882812 -1.613281 3.28125 -1.375 C 3.6875 -1.144531 4.132812 -1.03125 4.625 -1.03125 C 5.113281 -1.03125 5.5625 -1.144531 5.96875 -1.375 C 6.382812 -1.613281 6.710938 -1.957031 6.953125 -2.40625 C 7.191406 -2.851562 7.3125 -3.375 7.3125 -3.96875 Z M 7.3125 -3.96875 "/></g></g><g style="fill:#000000;fill-opacity:1;"><g transform="translate(126.504212, 165.173798)"><path style="stroke:none" d="M 8.328125 -4.25 C 8.328125 -4 8.3125 -3.738281 8.28125 -3.46875 L 1.96875 -3.46875 C 2.007812 -2.6875 2.269531 -2.078125 2.75 -1.640625 C 3.238281 -1.203125 3.832031 -0.984375 4.53125 -0.984375 C 5.09375 -0.984375 5.5625 -1.113281 5.9375 -1.375 C 6.320312 -1.644531 6.59375 -2 6.75 -2.4375 L 8.15625 -2.4375 C 7.945312 -1.675781 7.523438 -1.054688 6.890625 -0.578125 C 6.253906 -0.109375 5.46875 0.125 4.53125 0.125 C 3.78125 0.125 3.109375 -0.0390625 2.515625 -0.375 C 1.921875 -0.707031 1.457031 -1.179688 1.125 -1.796875 C 0.789062 -2.421875 0.625 -3.144531 0.625 -3.96875 C 0.625 -4.78125 0.785156 -5.492188 1.109375 -6.109375 C 1.429688 -6.722656 1.890625 -7.195312 2.484375 -7.53125 C 3.078125 -7.863281 3.757812 -8.03125 4.53125 -8.03125 C 5.28125 -8.03125 5.941406 -7.863281 6.515625 -7.53125 C 7.097656 -7.207031 7.546875 -6.757812 7.859375 -6.1875 C 8.171875 -5.625 8.328125 -4.976562 8.328125 -4.25 Z M 6.96875 -4.53125 C 6.96875 -5.03125 6.851562 -5.457031 6.625 -5.8125 C 6.40625 -6.175781 6.101562 -6.453125 5.71875 -6.640625 C 5.34375 -6.828125 4.925781 -6.921875 4.46875 -6.921875 C 3.800781 -6.921875 3.234375 -6.707031 2.765625 -6.28125 C 2.304688 -5.863281 2.039062 -5.28125 1.96875 -4.53125 Z M 6.96875 -4.53125 "/></g></g><g style="fill:#000000;fill-opacity:1;"><g transform="translate(40.352508, 185.327537)"><path style="stroke:none" d="M 2.71875 -6.828125 L 2.71875 -2.15625 C 2.71875 -1.78125 2.796875 -1.507812 2.953125 -1.34375 C 3.117188 -1.1875 3.40625 -1.109375 3.8125 -1.109375 L 4.78125 -1.109375 L 4.78125 0 L 3.59375 0 C 2.863281 0 2.316406 -0.164062 1.953125 -0.5 C 1.585938 -0.84375 1.40625 -1.394531 1.40625 -2.15625 L 1.40625 -6.828125 L 0.375 -6.828125 L 0.375 -7.90625 L 1.40625 -7.90625 L 1.40625 -9.890625 L 2.71875 -9.890625 L 2.71875 -7.90625 L 4.78125 -7.90625 L 4.78125 -6.828125 Z M 2.71875 -6.828125 "/></g></g><g style="fill:#000000;fill-opacity:1;"><g transform="translate(45.600065, 185.327537)"><path style="stroke:none" d="M 2.421875 -6.625 C 2.648438 -7.070312 2.976562 -7.421875 3.40625 -7.671875 C 3.832031 -7.921875 4.351562 -8.046875 4.96875 -8.046875 L 4.96875 -6.6875 L 4.625 -6.6875 C 3.15625 -6.6875 2.421875 -5.890625 2.421875 -4.296875 L 2.421875 0 L 1.109375 0 L 1.109375 -7.90625 L 2.421875 -7.90625 Z M 2.421875 -6.625 "/></g></g><g style="fill:#000000;fill-opacity:1;"><g transform="translate(50.977366, 185.327537)"><path style="stroke:none" d="M 0.625 -3.984375 C 0.625 -4.785156 0.785156 -5.492188 1.109375 -6.109375 C 1.429688 -6.722656 1.878906 -7.195312 2.453125 -7.53125 C 3.023438 -7.863281 3.664062 -8.03125 4.375 -8.03125 C 5.0625 -8.03125 5.660156 -7.878906 6.171875 -7.578125 C 6.679688 -7.285156 7.0625 -6.914062 7.3125 -6.46875 L 7.3125 -7.90625 L 8.640625 -7.90625 L 8.640625 0 L 7.3125 0 L 7.3125 -1.46875 C 7.050781 -1.007812 6.660156 -0.628906 6.140625 -0.328125 C 5.628906 -0.0234375 5.035156 0.125 4.359375 0.125 C 3.648438 0.125 3.007812 -0.046875 2.4375 -0.390625 C 1.875 -0.734375 1.429688 -1.21875 1.109375 -1.84375 C 0.785156 -2.46875 0.625 -3.179688 0.625 -3.984375 Z M 7.3125 -3.96875 C 7.3125 -4.5625 7.191406 -5.078125 6.953125 -5.515625 C 6.710938 -5.960938 6.382812 -6.300781 5.96875 -6.53125 C 5.5625 -6.769531 5.113281 -6.890625 4.625 -6.890625 C 4.132812 -6.890625 3.6875 -6.773438 3.28125 -6.546875 C 2.882812 -6.316406 2.566406 -5.976562 2.328125 -5.53125 C 2.085938 -5.09375 1.96875 -4.578125 1.96875 -3.984375 C 1.96875 -3.378906 2.085938 -2.851562 2.328125 -2.40625 C 2.566406 -1.957031 2.882812 -1.613281 3.28125 -1.375 C 3.6875 -1.144531 4.132812 -1.03125 4.625 -1.03125 C 5.113281 -1.03125 5.5625 -1.144531 5.96875 -1.375 C 6.382812 -1.613281 6.710938 -1.957031 6.953125 -2.40625 C 7.191406 -2.851562 7.3125 -3.375 7.3125 -3.96875 Z M 7.3125 -3.96875 "/></g></g><g style="fill:#000000;fill-opacity:1;"><g transform="translate(60.722833, 185.327537)"><path style="stroke:none" d="M 4.96875 -8.046875 C 5.925781 -8.046875 6.703125 -7.753906 7.296875 -7.171875 C 7.890625 -6.585938 8.1875 -5.75 8.1875 -4.65625 L 8.1875 0 L 6.890625 0 L 6.890625 -4.46875 C 6.890625 -5.257812 6.691406 -5.863281 6.296875 -6.28125 C 5.910156 -6.695312 5.375 -6.90625 4.6875 -6.90625 C 4 -6.90625 3.445312 -6.6875 3.03125 -6.25 C 2.625 -5.820312 2.421875 -5.195312 2.421875 -4.375 L 2.421875 0 L 1.109375 0 L 1.109375 -7.90625 L 2.421875 -7.90625 L 2.421875 -6.78125 C 2.679688 -7.1875 3.035156 -7.5 3.484375 -7.71875 C 3.929688 -7.9375 4.425781 -8.046875 4.96875 -8.046875 Z M 4.96875 -8.046875 "/></g></g><g style="fill:#000000;fill-opacity:1;"><g transform="translate(69.949307, 185.327537)"><path style="stroke:none" d="M 3.90625 0.125 C 3.300781 0.125 2.757812 0.0234375 2.28125 -0.171875 C 1.800781 -0.378906 1.421875 -0.664062 1.140625 -1.03125 C 0.859375 -1.40625 0.703125 -1.835938 0.671875 -2.328125 L 2.03125 -2.328125 C 2.070312 -1.929688 2.257812 -1.609375 2.59375 -1.359375 C 2.925781 -1.109375 3.359375 -0.984375 3.890625 -0.984375 C 4.390625 -0.984375 4.785156 -1.09375 5.078125 -1.3125 C 5.367188 -1.53125 5.515625 -1.8125 5.515625 -2.15625 C 5.515625 -2.5 5.359375 -2.753906 5.046875 -2.921875 C 4.742188 -3.085938 4.269531 -3.253906 3.625 -3.421875 C 3.03125 -3.578125 2.546875 -3.734375 2.171875 -3.890625 C 1.804688 -4.046875 1.492188 -4.28125 1.234375 -4.59375 C 0.972656 -4.90625 0.84375 -5.316406 0.84375 -5.828125 C 0.84375 -6.234375 0.960938 -6.601562 1.203125 -6.9375 C 1.441406 -7.269531 1.78125 -7.535156 2.21875 -7.734375 C 2.664062 -7.929688 3.171875 -8.03125 3.734375 -8.03125 C 4.609375 -8.03125 5.3125 -7.804688 5.84375 -7.359375 C 6.382812 -6.921875 6.675781 -6.316406 6.71875 -5.546875 L 5.40625 -5.546875 C 5.375 -5.960938 5.207031 -6.296875 4.90625 -6.546875 C 4.601562 -6.796875 4.195312 -6.921875 3.6875 -6.921875 C 3.21875 -6.921875 2.84375 -6.816406 2.5625 -6.609375 C 2.289062 -6.410156 2.15625 -6.148438 2.15625 -5.828125 C 2.15625 -5.566406 2.238281 -5.351562 2.40625 -5.1875 C 2.570312 -5.019531 2.78125 -4.882812 3.03125 -4.78125 C 3.289062 -4.675781 3.644531 -4.5625 4.09375 -4.4375 C 4.664062 -4.289062 5.128906 -4.140625 5.484375 -3.984375 C 5.835938 -3.835938 6.140625 -3.613281 6.390625 -3.3125 C 6.648438 -3.019531 6.785156 -2.632812 6.796875 -2.15625 C 6.796875 -1.71875 6.675781 -1.328125 6.4375 -0.984375 C 6.195312 -0.640625 5.859375 -0.367188 5.421875 -0.171875 C 4.984375 0.0234375 4.476562 0.125 3.90625 0.125 Z M 3.90625 0.125 "/></g></g><g style="fill:#000000;fill-opacity:1;"><g transform="translate(77.474647, 185.327537)"><path style="stroke:none" d="M 2.421875 -6.453125 C 2.679688 -6.898438 3.066406 -7.273438 3.578125 -7.578125 C 4.097656 -7.878906 4.695312 -8.03125 5.375 -8.03125 C 6.082031 -8.03125 6.71875 -7.863281 7.28125 -7.53125 C 7.851562 -7.195312 8.300781 -6.722656 8.625 -6.109375 C 8.957031 -5.492188 9.125 -4.785156 9.125 -3.984375 C 9.125 -3.179688 8.957031 -2.46875 8.625 -1.84375 C 8.300781 -1.21875 7.851562 -0.734375 7.28125 -0.390625 C 6.71875 -0.046875 6.082031 0.125 5.375 0.125 C 4.707031 0.125 4.113281 -0.0234375 3.59375 -0.328125 C 3.082031 -0.628906 2.691406 -1.003906 2.421875 -1.453125 L 2.421875 3.75 L 1.109375 3.75 L 1.109375 -7.90625 L 2.421875 -7.90625 Z M 7.78125 -3.984375 C 7.78125 -4.578125 7.660156 -5.09375 7.421875 -5.53125 C 7.179688 -5.976562 6.859375 -6.316406 6.453125 -6.546875 C 6.046875 -6.773438 5.597656 -6.890625 5.109375 -6.890625 C 4.628906 -6.890625 4.179688 -6.769531 3.765625 -6.53125 C 3.359375 -6.300781 3.03125 -5.960938 2.78125 -5.515625 C 2.539062 -5.066406 2.421875 -4.550781 2.421875 -3.96875 C 2.421875 -3.375 2.539062 -2.851562 2.78125 -2.40625 C 3.03125 -1.957031 3.359375 -1.613281 3.765625 -1.375 C 4.179688 -1.144531 4.628906 -1.03125 5.109375 -1.03125 C 5.597656 -1.03125 6.046875 -1.144531 6.453125 -1.375 C 6.859375 -1.613281 7.179688 -1.957031 7.421875 -2.40625 C 7.660156 -2.851562 7.78125 -3.378906 7.78125 -3.984375 Z M 7.78125 -3.984375 "/></g></g><g style="fill:#000000;fill-opacity:1;"><g transform="translate(87.220113, 185.327537)"><path style="stroke:none" d="M 4.5625 0.125 C 3.820312 0.125 3.148438 -0.0390625 2.546875 -0.375 C 1.941406 -0.707031 1.46875 -1.179688 1.125 -1.796875 C 0.789062 -2.421875 0.625 -3.144531 0.625 -3.96875 C 0.625 -4.769531 0.796875 -5.476562 1.140625 -6.09375 C 1.492188 -6.71875 1.972656 -7.195312 2.578125 -7.53125 C 3.179688 -7.863281 3.859375 -8.03125 4.609375 -8.03125 C 5.359375 -8.03125 6.035156 -7.863281 6.640625 -7.53125 C 7.253906 -7.195312 7.734375 -6.722656 8.078125 -6.109375 C 8.429688 -5.492188 8.609375 -4.78125 8.609375 -3.96875 C 8.609375 -3.144531 8.425781 -2.421875 8.0625 -1.796875 C 7.707031 -1.179688 7.222656 -0.707031 6.609375 -0.375 C 5.992188 -0.0390625 5.3125 0.125 4.5625 0.125 Z M 4.5625 -1.03125 C 5.03125 -1.03125 5.46875 -1.140625 5.875 -1.359375 C 6.289062 -1.578125 6.625 -1.90625 6.875 -2.34375 C 7.132812 -2.789062 7.265625 -3.332031 7.265625 -3.96875 C 7.265625 -4.601562 7.140625 -5.140625 6.890625 -5.578125 C 6.640625 -6.023438 6.3125 -6.351562 5.90625 -6.5625 C 5.507812 -6.78125 5.070312 -6.890625 4.59375 -6.890625 C 4.113281 -6.890625 3.675781 -6.78125 3.28125 -6.5625 C 2.882812 -6.351562 2.566406 -6.023438 2.328125 -5.578125 C 2.085938 -5.140625 1.96875 -4.601562 1.96875 -3.96875 C 1.96875 -3.320312 2.082031 -2.773438 2.3125 -2.328125 C 2.550781 -1.890625 2.863281 -1.5625 3.25 -1.34375 C 3.644531 -1.132812 4.082031 -1.03125 4.5625 -1.03125 Z M 4.5625 -1.03125 "/></g></g><g style="fill:#000000;fill-opacity:1;"><g transform="translate(96.446588, 185.327537)"><path style="stroke:none" d="M 2.421875 -6.625 C 2.648438 -7.070312 2.976562 -7.421875 3.40625 -7.671875 C 3.832031 -7.921875 4.351562 -8.046875 4.96875 -8.046875 L 4.96875 -6.6875 L 4.625 -6.6875 C 3.15625 -6.6875 2.421875 -5.890625 2.421875 -4.296875 L 2.421875 0 L 1.109375 0 L 1.109375 -7.90625 L 2.421875 -7.90625 Z M 2.421875 -6.625 "/></g></g><g style="fill:#000000;fill-opacity:1;"><g transform="translate(101.823889, 185.327537)"><path style="stroke:none" d="M 2.71875 -6.828125 L 2.71875 -2.15625 C 2.71875 -1.78125 2.796875 -1.507812 2.953125 -1.34375 C 3.117188 -1.1875 3.40625 -1.109375 3.8125 -1.109375 L 4.78125 -1.109375 L 4.78125 0 L 3.59375 0 C 2.863281 0 2.316406 -0.164062 1.953125 -0.5 C 1.585938 -0.84375 1.40625 -1.394531 1.40625 -2.15625 L 1.40625 -6.828125 L 0.375 -6.828125 L 0.375 -7.90625 L 1.40625 -7.90625 L 1.40625 -9.890625 L 2.71875 -9.890625 L 2.71875 -7.90625 L 4.78125 -7.90625 L 4.78125 -6.828125 Z M 2.71875 -6.828125 "/></g></g></g></svg>