<svg xmlns="http://www.w3.org/2000/svg" xmlns:xlink="http://www.w3.org/1999/xlink" width="208" zoomAndPan="magnify" viewBox="0 0 156 195.000001" height="260" preserveAspectRatio="xMidYMid meet" version="1.2"><defs><clipPath id="80ca8fe0bf"><path d="M 0.398438 0 L 155.601562 0 L 155.601562 154.457031 L 0.398438 154.457031 Z M 0.398438 0 "/></clipPath></defs><g id="46e1dccb3d"><g clip-rule="nonzero" clip-path="url(#80ca8fe0bf)"><path style=" stroke:none;fill-rule:nonzero;fill:#000000;fill-opacity:1;" d="M 136.140625 6.65625 C 131.523438 7.953125 126.945312 8.472656 122.402344 8.351562 L 127.355469 25.300781 C 132.5625 25.640625 137.511719 25.089844 142.207031 23.695312 C 146.890625 22.308594 151.34375 20.074219 155.582031 17.03125 L 150.605469 0.0117188 C 145.738281 3.144531 140.925781 5.3125 136.140625 6.65625 Z M 113 8.5625 C 112.75 7.621094 113.3125 6.648438 114.253906 6.398438 C 115.195312 6.144531 116.164062 6.710938 116.421875 7.652344 L 125.121094 40.144531 C 125.371094 41.085938 124.808594 42.050781 123.867188 42.3125 C 122.925781 42.5625 121.960938 42 121.710938 41.058594 Z M 33.558594 8.351562 C 29.015625 8.472656 24.4375 7.953125 19.824219 6.65625 C 15.035156 5.3125 10.21875 3.144531 5.351562 0.0117188 L 0.378906 17.03125 C 4.613281 20.074219 9.070312 22.308594 13.753906 23.695312 C 18.460938 25.089844 23.398438 25.640625 28.605469 25.300781 Z M 39.550781 7.652344 C 39.800781 6.710938 40.765625 6.144531 41.707031 6.398438 C 42.648438 6.648438 43.210938 7.621094 42.960938 8.5625 L 34.253906 41.058594 C 34 42 33.039062 42.5625 32.097656 42.3125 C 31.15625 42.046875 30.59375 41.085938 30.84375 40.144531 Z M 51.972656 91.125 C 49.351562 91.597656 46.65625 91.640625 43.984375 91.21875 L 43.984375 108.71875 C 43.984375 110.105469 44.457031 111.351562 45.238281 112.242188 C 45.949219 113.0625 46.933594 113.578125 47.988281 113.578125 C 49.050781 113.578125 50.023438 113.0625 50.746094 112.242188 C 51.417969 111.472656 51.867188 110.425781 51.972656 109.25 Z M 63.378906 110.164062 L 63.398438 105.007812 C 63.410156 99.390625 63.429688 93.777344 63.429688 85.960938 C 61.03125 87.847656 58.34375 89.28125 55.511719 90.226562 L 55.511719 108.71875 L 55.539062 108.71875 C 55.539062 110.105469 56.019531 111.351562 56.792969 112.242188 C 57.503906 113.0625 58.488281 113.578125 59.542969 113.578125 C 60.421875 113.578125 61.238281 113.226562 61.898438 112.644531 C 62.597656 112.03125 63.117188 111.167969 63.378906 110.164062 Z M 92.867188 116.125 C 92.875 120.800781 92.886719 124.996094 92.886719 128.066406 C 92.886719 130.335938 91.953125 132.410156 90.457031 133.90625 C 88.953125 135.402344 86.886719 136.335938 84.609375 136.335938 C 82.328125 136.335938 80.265625 135.402344 78.769531 133.90625 C 78.539062 133.675781 78.316406 133.425781 78.105469 133.164062 C 77.90625 133.425781 77.683594 133.675781 77.453125 133.90625 C 75.960938 135.402344 73.882812 136.335938 71.613281 136.335938 C 69.339844 136.335938 67.273438 135.402344 65.765625 133.90625 C 64.269531 132.414062 63.335938 130.335938 63.335938 128.066406 C 63.335938 124.953125 63.347656 120.699219 63.355469 115.957031 C 62.242188 116.699219 60.941406 117.121094 59.546875 117.121094 C 57.429688 117.121094 55.511719 116.136719 54.136719 114.5625 C 54.007812 114.421875 53.886719 114.261719 53.765625 114.109375 C 53.644531 114.261719 53.523438 114.421875 53.394531 114.5625 C 52.019531 116.136719 50.113281 117.121094 47.984375 117.121094 C 45.867188 117.121094 43.949219 116.136719 42.578125 114.5625 C 41.566406 113.398438 40.84375 111.902344 40.558594 110.234375 C 35.84375 112.523438 31.972656 115.222656 29.234375 118.214844 C 26.304688 121.40625 24.667969 124.917969 24.667969 128.578125 C 24.667969 135.492188 30.457031 141.867188 39.816406 146.5625 C 49.550781 151.449219 63.03125 154.472656 77.980469 154.472656 C 92.921875 154.472656 106.40625 151.453125 116.136719 146.5625 C 125.5 141.867188 131.285156 135.492188 131.285156 128.578125 C 131.285156 124.917969 129.660156 121.40625 126.730469 118.214844 C 123.980469 115.222656 120.121094 112.527344 115.394531 110.234375 C 115.113281 111.902344 114.398438 113.398438 113.375 114.5625 C 112.003906 116.136719 110.085938 117.121094 107.96875 117.121094 C 105.851562 117.121094 103.933594 116.136719 102.558594 114.5625 C 102.429688 114.421875 102.308594 114.261719 102.1875 114.109375 C 102.066406 114.261719 101.949219 114.421875 101.816406 114.5625 C 100.445312 116.136719 98.523438 117.121094 96.410156 117.121094 C 95.128906 117.117188 93.917969 116.757812 92.867188 116.125 Z M 100.449219 90.136719 C 97.710938 89.195312 95.125 87.777344 92.792969 85.960938 C 92.792969 93.777344 92.816406 99.390625 92.824219 105.007812 L 92.84375 110.917969 C 93.175781 111.703125 93.6875 112.363281 94.300781 112.835938 C 94.910156 113.304688 95.632812 113.578125 96.414062 113.578125 C 97.46875 113.578125 98.449219 113.0625 99.164062 112.242188 C 99.949219 111.351562 100.429688 110.105469 100.429688 108.71875 L 100.449219 108.71875 Z M 111.988281 91.257812 C 109.308594 91.652344 106.613281 91.570312 103.992188 91.078125 L 103.992188 109.25 C 104.09375 110.425781 104.546875 111.46875 105.21875 112.242188 C 105.941406 113.0625 106.925781 113.578125 107.980469 113.578125 C 109.039062 113.578125 110.015625 113.0625 110.738281 112.242188 C 111.511719 111.351562 111.992188 110.105469 111.992188 108.71875 L 111.992188 91.257812 Z M 86.144531 46.144531 C 83.996094 43.996094 81.027344 42.671875 77.753906 42.671875 C 74.476562 42.671875 71.515625 43.996094 69.367188 46.144531 C 67.21875 48.292969 65.894531 51.253906 65.894531 54.535156 C 65.894531 57.804688 67.21875 60.773438 69.367188 62.925781 C 71.515625 65.074219 74.476562 66.398438 77.753906 66.398438 C 81.027344 66.398438 83.996094 65.074219 86.144531 62.925781 C 88.292969 60.773438 89.617188 57.804688 89.617188 54.535156 C 89.613281 51.253906 88.289062 48.289062 86.144531 46.144531 Z M 62.375 53.660156 C 62.464844 52.105469 62.785156 50.597656 63.296875 49.203125 C 63.167969 46.976562 62.203125 44.96875 60.699219 43.492188 C 59.136719 41.957031 56.976562 41.015625 54.609375 41.015625 C 52.199219 41.015625 50.023438 41.988281 48.449219 43.5625 C 46.875 45.140625 45.902344 47.316406 45.902344 49.722656 C 45.902344 52.121094 46.875 54.300781 48.449219 55.875 C 50.023438 57.449219 52.199219 58.425781 54.609375 58.425781 C 56.335938 58.425781 57.949219 57.921875 59.304688 57.058594 C 60.605469 56.21875 61.671875 55.042969 62.375 53.660156 Z M 68.414062 66.777344 C 67.875 66.363281 67.351562 65.910156 66.867188 65.417969 C 65.84375 64.40625 64.972656 63.242188 64.269531 61.96875 C 63.023438 61.957031 61.804688 61.957031 60.578125 61.945312 C 59.03125 61.925781 57.488281 61.90625 55.953125 61.898438 C 55.511719 61.945312 55.0625 61.96875 54.609375 61.96875 C 54.054688 61.96875 53.515625 61.9375 52.992188 61.867188 C 51.597656 61.847656 50.214844 61.835938 48.847656 61.828125 C 48.035156 61.820312 46.699219 61.820312 44.546875 61.820312 C 44.042969 61.820312 43.605469 61.617188 43.28125 61.289062 L 30.320312 48.332031 C 29.800781 47.800781 29.09375 47.539062 28.40625 47.539062 C 27.703125 47.539062 27.011719 47.800781 26.480469 48.332031 C 25.960938 48.851562 25.6875 49.558594 25.6875 50.246094 C 25.6875 50.949219 25.960938 51.640625 26.480469 52.171875 C 26.507812 52.203125 26.539062 52.234375 26.570312 52.265625 L 43.457031 69.082031 C 43.804688 69.421875 43.976562 69.886719 43.976562 70.335938 L 43.984375 70.335938 L 43.984375 78.996094 C 51.761719 80.53125 56.308594 76.0625 60.152344 72.273438 C 62.867188 69.605469 65.292969 67.214844 68.414062 66.777344 Z M 91.242188 61.96875 C 90.539062 63.242188 89.664062 64.40625 88.644531 65.417969 C 88.183594 65.878906 87.691406 66.3125 87.175781 66.714844 C 90.589844 66.855469 92.683594 68.804688 95.214844 71.152344 C 98.464844 74.160156 102.570312 77.976562 111.992188 78.375 L 111.992188 70.335938 C 111.992188 69.882812 112.171875 69.421875 112.511719 69.082031 L 129.410156 52.265625 C 129.429688 52.238281 129.460938 52.203125 129.492188 52.171875 C 130.023438 51.640625 130.285156 50.949219 130.285156 50.246094 C 130.285156 49.554688 130.023438 48.851562 129.492188 48.332031 C 128.972656 47.800781 128.265625 47.539062 127.578125 47.539062 C 126.875 47.539062 126.183594 47.800781 125.652344 48.332031 L 112.695312 61.289062 C 112.375 61.621094 111.925781 61.820312 111.433594 61.820312 C 109.277344 61.820312 107.945312 61.820312 107.117188 61.828125 C 105.757812 61.839844 104.367188 61.851562 102.972656 61.867188 C 102.453125 61.941406 101.914062 61.96875 101.367188 61.96875 C 100.90625 61.96875 100.464844 61.945312 100.011719 61.898438 C 98.398438 61.917969 96.78125 61.925781 95.167969 61.945312 C 93.855469 61.957031 92.554688 61.96875 91.242188 61.96875 Z M 92.675781 58.355469 L 92.652344 58.433594 L 92.753906 58.433594 Z M 92.746094 50.980469 C 92.816406 51.300781 92.886719 51.621094 92.9375 51.953125 C 93.429688 53.820312 94.53125 55.445312 96.015625 56.597656 C 97.492188 57.742188 99.347656 58.425781 101.363281 58.425781 C 103.761719 58.425781 105.941406 57.449219 107.515625 55.875 C 109.089844 54.300781 110.0625 52.125 110.0625 49.722656 C 110.0625 47.316406 109.089844 45.140625 107.515625 43.5625 C 105.941406 41.988281 103.761719 41.015625 101.363281 41.015625 C 98.957031 41.015625 96.78125 41.988281 95.207031 43.5625 C 93.628906 45.140625 92.65625 47.316406 92.65625 49.722656 C 92.65625 49.964844 92.667969 50.183594 92.679688 50.394531 C 92.695312 50.585938 92.714844 50.777344 92.746094 50.980469 Z M 76.339844 128.066406 L 76.339844 103.359375 C 76.339844 102.386719 77.132812 101.59375 78.105469 101.59375 C 79.089844 101.59375 79.882812 102.386719 79.882812 103.359375 L 79.882812 128.066406 C 79.882812 129.363281 80.414062 130.542969 81.265625 131.398438 C 82.128906 132.261719 83.3125 132.792969 84.609375 132.792969 C 85.914062 132.792969 87.097656 132.261719 87.949219 131.398438 C 88.8125 130.542969 89.34375 129.363281 89.34375 128.066406 C 89.34375 121.273438 89.332031 116.078125 89.324219 111.398438 C 89.3125 111.320312 89.3125 111.242188 89.324219 111.160156 C 89.3125 109.042969 89.3125 107.023438 89.300781 105.007812 C 89.273438 96.179688 89.25 87.335938 89.25 81.957031 C 89.25 81.5 89.441406 81.023438 89.804688 80.671875 C 90.515625 80.011719 91.640625 80.039062 92.304688 80.753906 C 95.171875 83.796875 98.734375 85.984375 102.566406 87.105469 C 102.667969 87.125 102.757812 87.15625 102.847656 87.1875 C 103.328125 87.328125 103.808594 87.4375 104.300781 87.539062 C 107.210938 88.140625 110.242188 88.140625 113.199219 87.4375 C 113.289062 87.40625 113.378906 87.390625 113.472656 87.367188 C 114.785156 87.046875 116.089844 86.574219 117.375 85.960938 C 117.828125 85.742188 118.109375 85.21875 118.199219 84.617188 C 118.257812 84.222656 118.234375 83.800781 118.117188 83.414062 C 118.007812 83.050781 117.816406 82.71875 117.554688 82.460938 C 117.0625 81.992188 116.257812 81.726562 115.066406 81.910156 C 114.992188 81.917969 114.921875 81.917969 114.84375 81.929688 C 114.535156 81.929688 114.222656 81.941406 113.921875 81.941406 C 113.863281 81.953125 113.8125 81.953125 113.75 81.953125 C 113.703125 81.953125 113.652344 81.953125 113.597656 81.941406 C 101.652344 81.953125 96.683594 77.335938 92.800781 73.730469 C 90.746094 71.824219 89.050781 70.25 86.769531 70.25 L 69.445312 70.25 C 67.238281 70.25 65.070312 72.386719 62.621094 74.792969 C 57.90625 79.4375 52.285156 84.96875 41.839844 82.128906 C 41.757812 82.105469 41.6875 82.089844 41.621094 82.066406 C 41.371094 81.996094 41.128906 81.925781 40.878906 81.847656 C 40.808594 81.820312 40.726562 81.789062 40.648438 81.75 C 39.84375 81.367188 39.121094 81.578125 38.613281 82.070312 C 38.371094 82.300781 38.171875 82.59375 38.023438 82.914062 C 37.863281 83.253906 37.761719 83.609375 37.730469 83.949219 C 37.660156 84.742188 37.984375 85.542969 38.847656 85.964844 C 40.050781 86.539062 41.273438 86.988281 42.511719 87.3125 C 42.609375 87.332031 42.703125 87.351562 42.78125 87.382812 C 45.824219 88.144531 48.941406 88.164062 51.933594 87.550781 C 52.332031 87.46875 52.734375 87.371094 53.144531 87.261719 C 53.226562 87.230469 53.316406 87.210938 53.417969 87.191406 C 57.300781 86.097656 60.921875 83.910156 63.84375 80.839844 C 64.164062 80.445312 64.65625 80.199219 65.207031 80.199219 C 66.183594 80.199219 66.976562 80.992188 66.976562 81.964844 C 66.976562 87.34375 66.953125 96.1875 66.925781 105.015625 C 66.914062 106.75 66.914062 108.496094 66.902344 110.304688 C 66.914062 110.363281 66.914062 110.433594 66.902344 110.503906 C 66.894531 115.421875 66.882812 120.839844 66.882812 128.074219 C 66.882812 129.371094 67.414062 130.550781 68.277344 131.40625 C 69.128906 132.269531 70.3125 132.800781 71.617188 132.800781 C 72.914062 132.800781 74.097656 132.269531 74.949219 131.40625 C 75.808594 130.542969 76.339844 129.359375 76.339844 128.066406 Z M 76.339844 128.066406 "/></g><g style="fill:#000000;fill-opacity:1;"><g transform="translate(38.20272, 180.574998)"><path style="stroke:none" d="M 4.859375 0.109375 C 4.109375 0.109375 3.4375 -0.0195312 2.84375 -0.28125 C 2.25 -0.550781 1.78125 -0.921875 1.4375 -1.390625 C 1.101562 -1.859375 0.929688 -2.40625 0.921875 -3.03125 L 2.5 -3.03125 C 2.5625 -2.5 2.785156 -2.050781 3.171875 -1.6875 C 3.554688 -1.320312 4.117188 -1.140625 4.859375 -1.140625 C 5.554688 -1.140625 6.109375 -1.316406 6.515625 -1.671875 C 6.921875 -2.023438 7.125 -2.476562 7.125 -3.03125 C 7.125 -3.457031 7.003906 -3.804688 6.765625 -4.078125 C 6.535156 -4.359375 6.238281 -4.566406 5.875 -4.703125 C 5.519531 -4.847656 5.035156 -5 4.421875 -5.15625 C 3.679688 -5.351562 3.082031 -5.550781 2.625 -5.75 C 2.175781 -5.945312 1.789062 -6.253906 1.46875 -6.671875 C 1.15625 -7.085938 1 -7.648438 1 -8.359375 C 1 -8.972656 1.15625 -9.519531 1.46875 -10 C 1.78125 -10.476562 2.21875 -10.847656 2.78125 -11.109375 C 3.351562 -11.367188 4.007812 -11.5 4.75 -11.5 C 5.8125 -11.5 6.679688 -11.234375 7.359375 -10.703125 C 8.046875 -10.171875 8.429688 -9.460938 8.515625 -8.578125 L 6.890625 -8.578125 C 6.835938 -9.015625 6.609375 -9.394531 6.203125 -9.71875 C 5.796875 -10.050781 5.265625 -10.21875 4.609375 -10.21875 C 3.984375 -10.21875 3.472656 -10.054688 3.078125 -9.734375 C 2.691406 -9.421875 2.5 -8.976562 2.5 -8.40625 C 2.5 -7.988281 2.613281 -7.648438 2.84375 -7.390625 C 3.082031 -7.128906 3.375 -6.929688 3.71875 -6.796875 C 4.0625 -6.660156 4.539062 -6.503906 5.15625 -6.328125 C 5.90625 -6.128906 6.507812 -5.925781 6.96875 -5.71875 C 7.425781 -5.519531 7.816406 -5.210938 8.140625 -4.796875 C 8.460938 -4.378906 8.625 -3.8125 8.625 -3.09375 C 8.625 -2.539062 8.476562 -2.019531 8.1875 -1.53125 C 7.894531 -1.039062 7.460938 -0.644531 6.890625 -0.34375 C 6.316406 -0.0390625 5.640625 0.109375 4.859375 0.109375 Z M 4.859375 0.109375 "/></g></g><g style="fill:#000000;fill-opacity:1;"><g transform="translate(47.760132, 180.574998)"><path style="stroke:none" d="M 8.9375 -8.921875 L 3.5625 4.203125 L 2.03125 4.203125 L 3.796875 -0.09375 L 0.203125 -8.921875 L 1.84375 -8.921875 L 4.640625 -1.6875 L 7.40625 -8.921875 Z M 8.9375 -8.921875 "/></g></g><g style="fill:#000000;fill-opacity:1;"><g transform="translate(56.92678, 180.574998)"><path style="stroke:none" d="M 5.59375 -9.078125 C 6.6875 -9.078125 7.566406 -8.75 8.234375 -8.09375 C 8.910156 -7.4375 9.25 -6.492188 9.25 -5.265625 L 9.25 0 L 7.78125 0 L 7.78125 -5.046875 C 7.78125 -5.929688 7.554688 -6.609375 7.109375 -7.078125 C 6.671875 -7.554688 6.066406 -7.796875 5.296875 -7.796875 C 4.515625 -7.796875 3.890625 -7.550781 3.421875 -7.0625 C 2.960938 -6.570312 2.734375 -5.863281 2.734375 -4.9375 L 2.734375 0 L 1.25 0 L 1.25 -8.921875 L 2.734375 -8.921875 L 2.734375 -7.65625 C 3.023438 -8.113281 3.421875 -8.460938 3.921875 -8.703125 C 4.429688 -8.953125 4.988281 -9.078125 5.59375 -9.078125 Z M 5.59375 -9.078125 "/></g></g><g style="fill:#000000;fill-opacity:1;"><g transform="translate(67.347126, 180.574998)"><path style="stroke:none" d="M 0.703125 -4.5 C 0.703125 -5.40625 0.882812 -6.203125 1.25 -6.890625 C 1.625 -7.578125 2.132812 -8.109375 2.78125 -8.484375 C 3.425781 -8.867188 4.148438 -9.0625 4.953125 -9.0625 C 5.640625 -9.0625 6.28125 -8.898438 6.875 -8.578125 C 7.476562 -8.265625 7.9375 -7.847656 8.25 -7.328125 L 8.25 -12.046875 L 9.75 -12.046875 L 9.75 0 L 8.25 0 L 8.25 -1.671875 C 7.957031 -1.140625 7.523438 -0.703125 6.953125 -0.359375 C 6.378906 -0.0234375 5.707031 0.140625 4.9375 0.140625 C 4.144531 0.140625 3.425781 -0.0507812 2.78125 -0.4375 C 2.132812 -0.832031 1.625 -1.378906 1.25 -2.078125 C 0.882812 -2.785156 0.703125 -3.59375 0.703125 -4.5 Z M 8.25 -4.484375 C 8.25 -5.148438 8.113281 -5.734375 7.84375 -6.234375 C 7.570312 -6.734375 7.207031 -7.113281 6.75 -7.375 C 6.289062 -7.644531 5.78125 -7.78125 5.21875 -7.78125 C 4.664062 -7.78125 4.160156 -7.648438 3.703125 -7.390625 C 3.253906 -7.128906 2.894531 -6.75 2.625 -6.25 C 2.351562 -5.75 2.21875 -5.164062 2.21875 -4.5 C 2.21875 -3.8125 2.351562 -3.210938 2.625 -2.703125 C 2.894531 -2.203125 3.253906 -1.816406 3.703125 -1.546875 C 4.160156 -1.285156 4.664062 -1.15625 5.21875 -1.15625 C 5.78125 -1.15625 6.289062 -1.285156 6.75 -1.546875 C 7.207031 -1.816406 7.570312 -2.203125 7.84375 -2.703125 C 8.113281 -3.210938 8.25 -3.804688 8.25 -4.484375 Z M 8.25 -4.484375 "/></g></g><g style="fill:#000000;fill-opacity:1;"><g transform="translate(78.353616, 180.574998)"><path style="stroke:none" d="M 2.015625 -10.375 C 1.734375 -10.375 1.492188 -10.46875 1.296875 -10.65625 C 1.109375 -10.851562 1.015625 -11.09375 1.015625 -11.375 C 1.015625 -11.65625 1.109375 -11.894531 1.296875 -12.09375 C 1.492188 -12.289062 1.734375 -12.390625 2.015625 -12.390625 C 2.285156 -12.390625 2.515625 -12.289062 2.703125 -12.09375 C 2.898438 -11.894531 3 -11.65625 3 -11.375 C 3 -11.09375 2.898438 -10.851562 2.703125 -10.65625 C 2.515625 -10.46875 2.285156 -10.375 2.015625 -10.375 Z M 2.734375 -8.921875 L 2.734375 0 L 1.25 0 L 1.25 -8.921875 Z M 2.734375 -8.921875 "/></g></g><g style="fill:#000000;fill-opacity:1;"><g transform="translate(82.358939, 180.574998)"><path style="stroke:none" d="M 0.703125 -4.484375 C 0.703125 -5.398438 0.882812 -6.203125 1.25 -6.890625 C 1.625 -7.578125 2.140625 -8.109375 2.796875 -8.484375 C 3.453125 -8.867188 4.203125 -9.0625 5.046875 -9.0625 C 6.140625 -9.0625 7.039062 -8.796875 7.75 -8.265625 C 8.46875 -7.734375 8.941406 -7 9.171875 -6.0625 L 7.578125 -6.0625 C 7.421875 -6.601562 7.125 -7.03125 6.6875 -7.34375 C 6.25 -7.65625 5.703125 -7.8125 5.046875 -7.8125 C 4.203125 -7.8125 3.519531 -7.519531 3 -6.9375 C 2.476562 -6.363281 2.21875 -5.546875 2.21875 -4.484375 C 2.21875 -3.398438 2.476562 -2.566406 3 -1.984375 C 3.519531 -1.398438 4.203125 -1.109375 5.046875 -1.109375 C 5.703125 -1.109375 6.242188 -1.257812 6.671875 -1.5625 C 7.109375 -1.863281 7.410156 -2.296875 7.578125 -2.859375 L 9.171875 -2.859375 C 8.929688 -1.953125 8.453125 -1.222656 7.734375 -0.671875 C 7.015625 -0.128906 6.117188 0.140625 5.046875 0.140625 C 4.203125 0.140625 3.453125 -0.046875 2.796875 -0.421875 C 2.140625 -0.804688 1.625 -1.34375 1.25 -2.03125 C 0.882812 -2.726562 0.703125 -3.546875 0.703125 -4.484375 Z M 0.703125 -4.484375 "/></g></g><g style="fill:#000000;fill-opacity:1;"><g transform="translate(92.241982, 180.574998)"><path style="stroke:none" d="M 0.703125 -4.5 C 0.703125 -5.40625 0.882812 -6.203125 1.25 -6.890625 C 1.625 -7.578125 2.132812 -8.109375 2.78125 -8.484375 C 3.425781 -8.867188 4.144531 -9.0625 4.9375 -9.0625 C 5.71875 -9.0625 6.394531 -8.894531 6.96875 -8.5625 C 7.539062 -8.226562 7.96875 -7.804688 8.25 -7.296875 L 8.25 -8.921875 L 9.75 -8.921875 L 9.75 0 L 8.25 0 L 8.25 -1.65625 C 7.957031 -1.132812 7.519531 -0.703125 6.9375 -0.359375 C 6.363281 -0.0234375 5.691406 0.140625 4.921875 0.140625 C 4.128906 0.140625 3.410156 -0.0507812 2.765625 -0.4375 C 2.128906 -0.832031 1.625 -1.378906 1.25 -2.078125 C 0.882812 -2.785156 0.703125 -3.59375 0.703125 -4.5 Z M 8.25 -4.484375 C 8.25 -5.148438 8.113281 -5.734375 7.84375 -6.234375 C 7.570312 -6.734375 7.207031 -7.113281 6.75 -7.375 C 6.289062 -7.644531 5.78125 -7.78125 5.21875 -7.78125 C 4.664062 -7.78125 4.160156 -7.648438 3.703125 -7.390625 C 3.253906 -7.128906 2.894531 -6.75 2.625 -6.25 C 2.351562 -5.75 2.21875 -5.164062 2.21875 -4.5 C 2.21875 -3.8125 2.351562 -3.210938 2.625 -2.703125 C 2.894531 -2.203125 3.253906 -1.816406 3.703125 -1.546875 C 4.160156 -1.285156 4.664062 -1.15625 5.21875 -1.15625 C 5.78125 -1.15625 6.289062 -1.285156 6.75 -1.546875 C 7.207031 -1.816406 7.570312 -2.203125 7.84375 -2.703125 C 8.113281 -3.210938 8.25 -3.804688 8.25 -4.484375 Z M 8.25 -4.484375 "/></g></g><g style="fill:#000000;fill-opacity:1;"><g transform="translate(103.248471, 180.574998)"><path style="stroke:none" d="M 3.0625 -7.703125 L 3.0625 -2.4375 C 3.0625 -2.007812 3.148438 -1.703125 3.328125 -1.515625 C 3.515625 -1.335938 3.835938 -1.25 4.296875 -1.25 L 5.390625 -1.25 L 5.390625 0 L 4.046875 0 C 3.222656 0 2.601562 -0.1875 2.1875 -0.5625 C 1.78125 -0.945312 1.578125 -1.570312 1.578125 -2.4375 L 1.578125 -7.703125 L 0.421875 -7.703125 L 0.421875 -8.921875 L 1.578125 -8.921875 L 1.578125 -11.171875 L 3.0625 -11.171875 L 3.0625 -8.921875 L 5.390625 -8.921875 L 5.390625 -7.703125 Z M 3.0625 -7.703125 "/></g></g><g style="fill:#000000;fill-opacity:1;"><g transform="translate(109.17504, 180.574998)"><path style="stroke:none" d="M 4.40625 0.140625 C 3.726562 0.140625 3.117188 0.0234375 2.578125 -0.203125 C 2.035156 -0.429688 1.601562 -0.753906 1.28125 -1.171875 C 0.96875 -1.597656 0.796875 -2.082031 0.765625 -2.625 L 2.296875 -2.625 C 2.335938 -2.175781 2.546875 -1.8125 2.921875 -1.53125 C 3.296875 -1.25 3.785156 -1.109375 4.390625 -1.109375 C 4.960938 -1.109375 5.410156 -1.234375 5.734375 -1.484375 C 6.054688 -1.734375 6.21875 -2.046875 6.21875 -2.421875 C 6.21875 -2.816406 6.039062 -3.109375 5.6875 -3.296875 C 5.34375 -3.484375 4.8125 -3.671875 4.09375 -3.859375 C 3.425781 -4.035156 2.882812 -4.210938 2.46875 -4.390625 C 2.050781 -4.566406 1.691406 -4.832031 1.390625 -5.1875 C 1.085938 -5.539062 0.9375 -6.003906 0.9375 -6.578125 C 0.9375 -7.035156 1.070312 -7.453125 1.34375 -7.828125 C 1.625 -8.210938 2.007812 -8.515625 2.5 -8.734375 C 3 -8.953125 3.570312 -9.0625 4.21875 -9.0625 C 5.207031 -9.0625 6.003906 -8.8125 6.609375 -8.3125 C 7.210938 -7.820312 7.539062 -7.140625 7.59375 -6.265625 L 6.109375 -6.265625 C 6.078125 -6.734375 5.890625 -7.109375 5.546875 -7.390625 C 5.203125 -7.671875 4.742188 -7.8125 4.171875 -7.8125 C 3.640625 -7.8125 3.210938 -7.695312 2.890625 -7.46875 C 2.578125 -7.238281 2.421875 -6.941406 2.421875 -6.578125 C 2.421875 -6.285156 2.515625 -6.039062 2.703125 -5.84375 C 2.898438 -5.65625 3.140625 -5.503906 3.421875 -5.390625 C 3.710938 -5.273438 4.113281 -5.148438 4.625 -5.015625 C 5.257812 -4.835938 5.78125 -4.664062 6.1875 -4.5 C 6.59375 -4.332031 6.9375 -4.078125 7.21875 -3.734375 C 7.507812 -3.398438 7.660156 -2.960938 7.671875 -2.421875 C 7.671875 -1.929688 7.535156 -1.488281 7.265625 -1.09375 C 6.992188 -0.707031 6.609375 -0.40625 6.109375 -0.1875 C 5.617188 0.03125 5.050781 0.140625 4.40625 0.140625 Z M 4.40625 0.140625 "/></g></g></g></svg>