<?xml version="1.0" standalone="no"?>
<!DOCTYPE svg PUBLIC "-//W3C//DTD SVG 20010904//EN"
 "http://www.w3.org/TR/2001/REC-SVG-20010904/DTD/svg10.dtd">
<svg version="1.0" xmlns="http://www.w3.org/2000/svg"
 width="1024.000000pt" height="1024.000000pt" viewBox="0 0 1024.000000 1024.000000"
 preserveAspectRatio="xMidYMid meet">

<g transform="translate(0.000000,1024.000000) scale(0.100000,-0.100000)"
fill="#000000" stroke="none">
<path d="M2521 8239 c-76 -13 -183 -52 -249 -91 -93 -54 -220 -189 -270 -285
-84 -161 -82 -144 -82 -922 0 -759 1 -765 64 -896 71 -149 189 -270 329 -338
130 -64 165 -69 453 -74 l260 -5 340 -275 c186 -152 353 -284 369 -294 70 -44
129 -9 140 82 3 30 5 152 3 272 l-3 217 198 0 c138 0 220 5 271 15 274 57 479
248 558 521 l23 79 0 705 0 705 -23 75 c-41 130 -87 206 -187 306 -73 74 -106
98 -175 132 -166 81 -98 76 -1085 78 -491 1 -904 -2 -934 -7z m1824 -194 c33
-9 85 -28 115 -43 72 -35 187 -150 222 -222 59 -120 59 -115 56 -862 l-3 -683
-28 -70 c-49 -124 -142 -227 -256 -285 -100 -50 -120 -53 -418 -59 l-283 -6
-27 -28 -28 -27 -5 -211 -5 -211 -255 208 c-140 114 -274 223 -298 241 l-44
33 -257 0 c-224 0 -268 3 -335 20 -183 47 -314 175 -373 365 -17 56 -18 108
-18 735 l0 675 24 73 c58 178 203 316 374 358 40 9 262 13 917 13 747 1 874
-1 925 -14z"/>
<path d="M3385 7772 c-96 -2 -112 -5 -132 -24 -29 -27 -29 -24 7 -418 16 -179
34 -383 40 -455 16 -210 21 -245 37 -260 11 -12 42 -15 132 -15 100 0 120 3
134 18 12 13 21 73 36 257 12 132 33 379 48 548 l26 308 -22 22 c-23 24 -60
26 -306 19z"/>
<path d="M3385 6431 c-79 -35 -135 -131 -121 -206 11 -56 59 -120 110 -143
126 -60 281 17 294 146 15 158 -140 269 -283 203z"/>
<path d="M5904 8235 c-213 -47 -396 -188 -490 -380 -76 -154 -75 -146 -72
-946 l3 -704 27 -80 c70 -206 221 -366 418 -442 104 -41 135 -45 351 -50 l215
-5 1 -266 c2 -245 3 -268 21 -291 20 -27 57 -37 98 -27 12 3 187 136 388 295
l364 289 259 4 c288 5 320 11 458 77 149 72 250 174 325 326 78 156 75 125 75
910 l0 700 -23 75 c-81 256 -255 429 -511 507 -51 16 -141 17 -951 19 -722 2
-907 0 -956 -11z m1855 -190 c188 -45 336 -194 386 -390 13 -50 15 -160 15
-711 0 -616 -1 -655 -20 -728 -36 -143 -131 -262 -260 -330 -108 -57 -168 -66
-457 -66 l-251 0 -75 -57 c-66 -51 -187 -147 -464 -367 l-83 -66 0 205 c0 226
-6 253 -57 273 -17 7 -132 13 -293 15 -260 3 -266 3 -333 30 -174 68 -293 209
-332 393 -21 101 -22 1296 0 1397 41 195 187 351 375 401 84 22 1755 23 1849
1z"/>
<path d="M6693 7775 c-122 -33 -248 -123 -312 -224 -30 -47 -64 -161 -74 -248
-8 -72 2 -78 151 -81 78 -2 138 1 150 7 12 7 21 25 25 52 8 62 48 130 94 163
33 23 55 30 111 34 148 10 232 -59 232 -191 0 -73 -30 -118 -174 -251 -64 -60
-128 -129 -143 -153 -60 -102 -85 -271 -44 -293 30 -15 266 -13 279 3 6 7 14
33 18 57 14 90 54 145 182 252 158 132 216 245 217 418 0 89 -2 100 -37 173
-67 140 -191 244 -333 282 -75 19 -270 19 -342 0z"/>
<path d="M6788 6430 c-96 -29 -150 -130 -123 -232 22 -88 90 -138 185 -138
109 0 190 79 190 185 0 129 -127 223 -252 185z"/>
<path d="M4735 5020 c-589 -26 -724 -54 -883 -180 -99 -78 -167 -192 -353
-595 -40 -88 -86 -180 -101 -205 l-28 -45 0 53 c0 67 -22 116 -65 142 -29 18
-49 20 -211 20 -204 0 -232 -8 -261 -78 -23 -56 -14 -188 16 -230 38 -54 60
-60 248 -64 l171 -3 -77 -80 c-130 -135 -192 -245 -216 -382 -18 -97 -21
-1205 -5 -1265 13 -44 52 -93 91 -113 40 -21 577 -22 617 -1 62 32 102 104
102 181 l0 45 1340 0 1340 0 0 -49 c0 -61 13 -97 48 -134 53 -56 58 -57 357
-57 210 0 283 3 308 14 42 17 83 66 97 114 14 51 14 1135 -1 1239 -20 146 -80
260 -210 397 l-87 91 167 0 c187 0 217 9 256 75 27 47 28 179 2 227 -33 62
-53 68 -242 71 -198 4 -237 -4 -272 -57 -17 -25 -23 -48 -23 -90 l0 -56 -26
38 c-14 21 -88 171 -164 333 -76 162 -159 323 -184 358 -101 142 -242 223
-428 245 -277 34 -980 56 -1323 41z m1082 -254 c268 -17 332 -31 414 -90 25
-19 62 -58 81 -87 44 -66 280 -585 280 -616 1 -54 92 -51 -1473 -51 l-1450 1
-14 21 c-8 11 -15 26 -15 33 0 13 170 392 239 532 56 115 134 185 253 227 35
12 194 24 633 48 147 8 820 -4 1052 -18z m-2122 -1361 c116 -19 232 -43 258
-52 106 -38 172 -133 148 -213 -16 -54 -55 -97 -99 -110 -58 -16 -595 -13
-635 4 -50 20 -94 77 -107 139 -31 137 57 267 180 267 25 0 140 -16 255 -35z
m3170 16 c58 -26 101 -80 115 -144 24 -105 -9 -194 -85 -232 -37 -18 -64 -20
-325 -23 -185 -3 -298 0 -321 7 -53 16 -85 45 -104 95 -21 56 -8 112 41 165
50 56 109 77 320 112 104 17 191 33 193 35 12 12 131 2 166 -15z m-439 -876
c8 -21 -14 -45 -61 -66 -38 -18 -101 -19 -1245 -19 -1161 0 -1207 1 -1247 19
-47 22 -69 51 -51 69 9 9 342 12 1305 12 1146 0 1294 -2 1299 -15z"/>
</g>
</svg>
